M48
; DRILL file {KiCad (5.1.5)-3} date 4/30/2020 1:53:00 PM
; FORMAT={-:-/ absolute / metric / decimal}
; #@! TF.CreationDate,2020-04-30T13:53:00+02:00
; #@! TF.GenerationSoftware,Kicad,Pcbnew,(5.1.5)-3
; #@! TF.FileFunction,Plated,1,2,PTH
FMAT,2
METRIC
T1C0.700
T2C0.800
T3C0.900
T4C1.000
T5C1.400
T6C2.499
%
G90
G05
T1
X165.735Y-97.79
X165.735Y-105.41
X162.56Y-97.79
X162.56Y-105.41
X161.925Y-77.47
X161.925Y-80.01
X161.925Y-82.55
X175.26Y-83.82
X175.26Y-91.44
X148.59Y-88.9
X148.59Y-96.52
X162.56Y-90.17
X162.56Y-92.71
X162.56Y-95.25
X165.735Y-77.47
X165.735Y-80.01
X165.735Y-82.55
X171.45Y-87.63
X171.45Y-90.17
X171.45Y-92.71
X173.99Y-116.84
X173.99Y-124.46
X161.925Y-66.04
X161.925Y-73.66
X170.18Y-66.04
X170.18Y-73.66
X168.91Y-107.95
X168.91Y-115.57
X162.56Y-116.84
X162.56Y-124.46
X157.48Y-66.04
X157.48Y-73.66
X166.37Y-90.17
X166.37Y-92.71
X166.37Y-95.25
X165.735Y-66.04
X165.735Y-73.66
X159.385Y-97.79
X159.385Y-105.41
X148.59Y-118.11
X148.59Y-120.65
X148.59Y-123.19
X153.67Y-113.03
X153.67Y-120.65
X157.48Y-113.03
X157.48Y-120.65
X148.59Y-109.22
X148.59Y-111.76
X148.59Y-114.3
X168.91Y-101.6
X176.53Y-101.6
X162.56Y-109.22
X162.56Y-111.76
X162.56Y-114.3
X148.59Y-99.06
X148.59Y-106.68
X187.96Y-106.045
X187.96Y-108.585
X187.96Y-111.125
X157.48Y-86.36
X165.1Y-86.36
X170.18Y-80.01
X170.18Y-82.55
X170.18Y-85.09
X187.96Y-85.725
X187.96Y-88.265
X187.96Y-90.805
X173.99Y-107.95
X173.99Y-110.49
X173.99Y-113.03
T2
X151.13Y-67.35
X151.13Y-69.85
X153.98Y-92.71
X157.48Y-92.71
X156.25Y-82.55
X158.75Y-82.55
T3
X154.305Y-100.33
X154.305Y-102.87
T4
X170.18Y-96.52
X172.72Y-96.52
X175.26Y-96.52
T5
X181.61Y-100.965
X181.61Y-121.285
X181.61Y-75.565
X181.61Y-95.885
T6
X168.275Y-120.65
X175.895Y-70.485
X150.495Y-75.565
X150.495Y-83.185
T0
M30
