G04 #@! TF.GenerationSoftware,KiCad,Pcbnew,(5.1.5)-3*
G04 #@! TF.CreationDate,2020-04-30T13:53:03+02:00*
G04 #@! TF.ProjectId,DiscreteAmp,44697363-7265-4746-9541-6d702e6b6963,rev?*
G04 #@! TF.SameCoordinates,Original*
G04 #@! TF.FileFunction,Legend,Top*
G04 #@! TF.FilePolarity,Positive*
%FSLAX46Y46*%
G04 Gerber Fmt 4.6, Leading zero omitted, Abs format (unit mm)*
G04 Created by KiCad (PCBNEW (5.1.5)-3) date 2020-04-30 13:53:03*
%MOMM*%
%LPD*%
G04 APERTURE LIST*
%ADD10C,0.120000*%
%ADD11C,0.150000*%
G04 APERTURE END LIST*
D10*
X153750000Y-68600000D02*
G75*
G03X153750000Y-68600000I-2620000J0D01*
G01*
X148550000Y-68600000D02*
X153710000Y-68600000D01*
X148550000Y-68560000D02*
X153710000Y-68560000D01*
X148551000Y-68520000D02*
X153709000Y-68520000D01*
X148552000Y-68480000D02*
X153708000Y-68480000D01*
X148554000Y-68440000D02*
X153706000Y-68440000D01*
X148557000Y-68400000D02*
X153703000Y-68400000D01*
X148561000Y-68360000D02*
X150090000Y-68360000D01*
X152170000Y-68360000D02*
X153699000Y-68360000D01*
X148565000Y-68320000D02*
X150090000Y-68320000D01*
X152170000Y-68320000D02*
X153695000Y-68320000D01*
X148569000Y-68280000D02*
X150090000Y-68280000D01*
X152170000Y-68280000D02*
X153691000Y-68280000D01*
X148574000Y-68240000D02*
X150090000Y-68240000D01*
X152170000Y-68240000D02*
X153686000Y-68240000D01*
X148580000Y-68200000D02*
X150090000Y-68200000D01*
X152170000Y-68200000D02*
X153680000Y-68200000D01*
X148587000Y-68160000D02*
X150090000Y-68160000D01*
X152170000Y-68160000D02*
X153673000Y-68160000D01*
X148594000Y-68120000D02*
X150090000Y-68120000D01*
X152170000Y-68120000D02*
X153666000Y-68120000D01*
X148602000Y-68080000D02*
X150090000Y-68080000D01*
X152170000Y-68080000D02*
X153658000Y-68080000D01*
X148610000Y-68040000D02*
X150090000Y-68040000D01*
X152170000Y-68040000D02*
X153650000Y-68040000D01*
X148619000Y-68000000D02*
X150090000Y-68000000D01*
X152170000Y-68000000D02*
X153641000Y-68000000D01*
X148629000Y-67960000D02*
X150090000Y-67960000D01*
X152170000Y-67960000D02*
X153631000Y-67960000D01*
X148639000Y-67920000D02*
X150090000Y-67920000D01*
X152170000Y-67920000D02*
X153621000Y-67920000D01*
X148650000Y-67879000D02*
X150090000Y-67879000D01*
X152170000Y-67879000D02*
X153610000Y-67879000D01*
X148662000Y-67839000D02*
X150090000Y-67839000D01*
X152170000Y-67839000D02*
X153598000Y-67839000D01*
X148675000Y-67799000D02*
X150090000Y-67799000D01*
X152170000Y-67799000D02*
X153585000Y-67799000D01*
X148688000Y-67759000D02*
X150090000Y-67759000D01*
X152170000Y-67759000D02*
X153572000Y-67759000D01*
X148702000Y-67719000D02*
X150090000Y-67719000D01*
X152170000Y-67719000D02*
X153558000Y-67719000D01*
X148716000Y-67679000D02*
X150090000Y-67679000D01*
X152170000Y-67679000D02*
X153544000Y-67679000D01*
X148732000Y-67639000D02*
X150090000Y-67639000D01*
X152170000Y-67639000D02*
X153528000Y-67639000D01*
X148748000Y-67599000D02*
X150090000Y-67599000D01*
X152170000Y-67599000D02*
X153512000Y-67599000D01*
X148765000Y-67559000D02*
X150090000Y-67559000D01*
X152170000Y-67559000D02*
X153495000Y-67559000D01*
X148782000Y-67519000D02*
X150090000Y-67519000D01*
X152170000Y-67519000D02*
X153478000Y-67519000D01*
X148801000Y-67479000D02*
X150090000Y-67479000D01*
X152170000Y-67479000D02*
X153459000Y-67479000D01*
X148820000Y-67439000D02*
X150090000Y-67439000D01*
X152170000Y-67439000D02*
X153440000Y-67439000D01*
X148840000Y-67399000D02*
X150090000Y-67399000D01*
X152170000Y-67399000D02*
X153420000Y-67399000D01*
X148862000Y-67359000D02*
X150090000Y-67359000D01*
X152170000Y-67359000D02*
X153398000Y-67359000D01*
X148883000Y-67319000D02*
X150090000Y-67319000D01*
X152170000Y-67319000D02*
X153377000Y-67319000D01*
X148906000Y-67279000D02*
X150090000Y-67279000D01*
X152170000Y-67279000D02*
X153354000Y-67279000D01*
X148930000Y-67239000D02*
X150090000Y-67239000D01*
X152170000Y-67239000D02*
X153330000Y-67239000D01*
X148955000Y-67199000D02*
X150090000Y-67199000D01*
X152170000Y-67199000D02*
X153305000Y-67199000D01*
X148981000Y-67159000D02*
X150090000Y-67159000D01*
X152170000Y-67159000D02*
X153279000Y-67159000D01*
X149008000Y-67119000D02*
X150090000Y-67119000D01*
X152170000Y-67119000D02*
X153252000Y-67119000D01*
X149035000Y-67079000D02*
X150090000Y-67079000D01*
X152170000Y-67079000D02*
X153225000Y-67079000D01*
X149065000Y-67039000D02*
X150090000Y-67039000D01*
X152170000Y-67039000D02*
X153195000Y-67039000D01*
X149095000Y-66999000D02*
X150090000Y-66999000D01*
X152170000Y-66999000D02*
X153165000Y-66999000D01*
X149126000Y-66959000D02*
X150090000Y-66959000D01*
X152170000Y-66959000D02*
X153134000Y-66959000D01*
X149159000Y-66919000D02*
X150090000Y-66919000D01*
X152170000Y-66919000D02*
X153101000Y-66919000D01*
X149193000Y-66879000D02*
X150090000Y-66879000D01*
X152170000Y-66879000D02*
X153067000Y-66879000D01*
X149229000Y-66839000D02*
X150090000Y-66839000D01*
X152170000Y-66839000D02*
X153031000Y-66839000D01*
X149266000Y-66799000D02*
X150090000Y-66799000D01*
X152170000Y-66799000D02*
X152994000Y-66799000D01*
X149304000Y-66759000D02*
X150090000Y-66759000D01*
X152170000Y-66759000D02*
X152956000Y-66759000D01*
X149345000Y-66719000D02*
X150090000Y-66719000D01*
X152170000Y-66719000D02*
X152915000Y-66719000D01*
X149387000Y-66679000D02*
X150090000Y-66679000D01*
X152170000Y-66679000D02*
X152873000Y-66679000D01*
X149431000Y-66639000D02*
X150090000Y-66639000D01*
X152170000Y-66639000D02*
X152829000Y-66639000D01*
X149477000Y-66599000D02*
X150090000Y-66599000D01*
X152170000Y-66599000D02*
X152783000Y-66599000D01*
X149525000Y-66559000D02*
X150090000Y-66559000D01*
X152170000Y-66559000D02*
X152735000Y-66559000D01*
X149576000Y-66519000D02*
X150090000Y-66519000D01*
X152170000Y-66519000D02*
X152684000Y-66519000D01*
X149630000Y-66479000D02*
X150090000Y-66479000D01*
X152170000Y-66479000D02*
X152630000Y-66479000D01*
X149687000Y-66439000D02*
X150090000Y-66439000D01*
X152170000Y-66439000D02*
X152573000Y-66439000D01*
X149747000Y-66399000D02*
X150090000Y-66399000D01*
X152170000Y-66399000D02*
X152513000Y-66399000D01*
X149811000Y-66359000D02*
X150090000Y-66359000D01*
X152170000Y-66359000D02*
X152449000Y-66359000D01*
X149879000Y-66319000D02*
X150090000Y-66319000D01*
X152170000Y-66319000D02*
X152381000Y-66319000D01*
X149952000Y-66279000D02*
X152308000Y-66279000D01*
X150032000Y-66239000D02*
X152228000Y-66239000D01*
X150119000Y-66199000D02*
X152141000Y-66199000D01*
X150215000Y-66159000D02*
X152045000Y-66159000D01*
X150325000Y-66119000D02*
X151935000Y-66119000D01*
X150453000Y-66079000D02*
X151807000Y-66079000D01*
X150612000Y-66039000D02*
X151648000Y-66039000D01*
X150846000Y-65999000D02*
X151414000Y-65999000D01*
X149655000Y-71404775D02*
X149655000Y-70904775D01*
X149405000Y-71154775D02*
X149905000Y-71154775D01*
X159520000Y-83970000D02*
X155480000Y-83970000D01*
X159520000Y-81130000D02*
X155480000Y-81130000D01*
X159520000Y-83970000D02*
X159520000Y-83345000D01*
X159520000Y-81755000D02*
X159520000Y-81130000D01*
X155480000Y-83970000D02*
X155480000Y-83345000D01*
X155480000Y-81755000D02*
X155480000Y-81130000D01*
X159850000Y-92710000D02*
G75*
G03X159850000Y-92710000I-4120000J0D01*
G01*
X155730000Y-96790000D02*
X155730000Y-88630000D01*
X155690000Y-96790000D02*
X155690000Y-88630000D01*
X155650000Y-96790000D02*
X155650000Y-88630000D01*
X155610000Y-96789000D02*
X155610000Y-88631000D01*
X155570000Y-96787000D02*
X155570000Y-88633000D01*
X155530000Y-96786000D02*
X155530000Y-88634000D01*
X155490000Y-96784000D02*
X155490000Y-88636000D01*
X155450000Y-96781000D02*
X155450000Y-88639000D01*
X155410000Y-96778000D02*
X155410000Y-88642000D01*
X155370000Y-96775000D02*
X155370000Y-88645000D01*
X155330000Y-96771000D02*
X155330000Y-88649000D01*
X155290000Y-96767000D02*
X155290000Y-88653000D01*
X155250000Y-96762000D02*
X155250000Y-88658000D01*
X155210000Y-96758000D02*
X155210000Y-88662000D01*
X155170000Y-96752000D02*
X155170000Y-88668000D01*
X155130000Y-96747000D02*
X155130000Y-88673000D01*
X155090000Y-96740000D02*
X155090000Y-88680000D01*
X155050000Y-96734000D02*
X155050000Y-88686000D01*
X155009000Y-96727000D02*
X155009000Y-93750000D01*
X155009000Y-91670000D02*
X155009000Y-88693000D01*
X154969000Y-96720000D02*
X154969000Y-93750000D01*
X154969000Y-91670000D02*
X154969000Y-88700000D01*
X154929000Y-96712000D02*
X154929000Y-93750000D01*
X154929000Y-91670000D02*
X154929000Y-88708000D01*
X154889000Y-96704000D02*
X154889000Y-93750000D01*
X154889000Y-91670000D02*
X154889000Y-88716000D01*
X154849000Y-96695000D02*
X154849000Y-93750000D01*
X154849000Y-91670000D02*
X154849000Y-88725000D01*
X154809000Y-96686000D02*
X154809000Y-93750000D01*
X154809000Y-91670000D02*
X154809000Y-88734000D01*
X154769000Y-96677000D02*
X154769000Y-93750000D01*
X154769000Y-91670000D02*
X154769000Y-88743000D01*
X154729000Y-96667000D02*
X154729000Y-93750000D01*
X154729000Y-91670000D02*
X154729000Y-88753000D01*
X154689000Y-96657000D02*
X154689000Y-93750000D01*
X154689000Y-91670000D02*
X154689000Y-88763000D01*
X154649000Y-96646000D02*
X154649000Y-93750000D01*
X154649000Y-91670000D02*
X154649000Y-88774000D01*
X154609000Y-96635000D02*
X154609000Y-93750000D01*
X154609000Y-91670000D02*
X154609000Y-88785000D01*
X154569000Y-96624000D02*
X154569000Y-93750000D01*
X154569000Y-91670000D02*
X154569000Y-88796000D01*
X154529000Y-96612000D02*
X154529000Y-93750000D01*
X154529000Y-91670000D02*
X154529000Y-88808000D01*
X154489000Y-96599000D02*
X154489000Y-93750000D01*
X154489000Y-91670000D02*
X154489000Y-88821000D01*
X154449000Y-96587000D02*
X154449000Y-93750000D01*
X154449000Y-91670000D02*
X154449000Y-88833000D01*
X154409000Y-96573000D02*
X154409000Y-93750000D01*
X154409000Y-91670000D02*
X154409000Y-88847000D01*
X154369000Y-96560000D02*
X154369000Y-93750000D01*
X154369000Y-91670000D02*
X154369000Y-88860000D01*
X154329000Y-96545000D02*
X154329000Y-93750000D01*
X154329000Y-91670000D02*
X154329000Y-88875000D01*
X154289000Y-96531000D02*
X154289000Y-93750000D01*
X154289000Y-91670000D02*
X154289000Y-88889000D01*
X154249000Y-96515000D02*
X154249000Y-93750000D01*
X154249000Y-91670000D02*
X154249000Y-88905000D01*
X154209000Y-96500000D02*
X154209000Y-93750000D01*
X154209000Y-91670000D02*
X154209000Y-88920000D01*
X154169000Y-96484000D02*
X154169000Y-93750000D01*
X154169000Y-91670000D02*
X154169000Y-88936000D01*
X154129000Y-96467000D02*
X154129000Y-93750000D01*
X154129000Y-91670000D02*
X154129000Y-88953000D01*
X154089000Y-96450000D02*
X154089000Y-93750000D01*
X154089000Y-91670000D02*
X154089000Y-88970000D01*
X154049000Y-96432000D02*
X154049000Y-93750000D01*
X154049000Y-91670000D02*
X154049000Y-88988000D01*
X154009000Y-96414000D02*
X154009000Y-93750000D01*
X154009000Y-91670000D02*
X154009000Y-89006000D01*
X153969000Y-96396000D02*
X153969000Y-93750000D01*
X153969000Y-91670000D02*
X153969000Y-89024000D01*
X153929000Y-96376000D02*
X153929000Y-93750000D01*
X153929000Y-91670000D02*
X153929000Y-89044000D01*
X153889000Y-96357000D02*
X153889000Y-93750000D01*
X153889000Y-91670000D02*
X153889000Y-89063000D01*
X153849000Y-96337000D02*
X153849000Y-93750000D01*
X153849000Y-91670000D02*
X153849000Y-89083000D01*
X153809000Y-96316000D02*
X153809000Y-93750000D01*
X153809000Y-91670000D02*
X153809000Y-89104000D01*
X153769000Y-96294000D02*
X153769000Y-93750000D01*
X153769000Y-91670000D02*
X153769000Y-89126000D01*
X153729000Y-96272000D02*
X153729000Y-93750000D01*
X153729000Y-91670000D02*
X153729000Y-89148000D01*
X153689000Y-96250000D02*
X153689000Y-93750000D01*
X153689000Y-91670000D02*
X153689000Y-89170000D01*
X153649000Y-96227000D02*
X153649000Y-93750000D01*
X153649000Y-91670000D02*
X153649000Y-89193000D01*
X153609000Y-96203000D02*
X153609000Y-93750000D01*
X153609000Y-91670000D02*
X153609000Y-89217000D01*
X153569000Y-96179000D02*
X153569000Y-93750000D01*
X153569000Y-91670000D02*
X153569000Y-89241000D01*
X153529000Y-96154000D02*
X153529000Y-93750000D01*
X153529000Y-91670000D02*
X153529000Y-89266000D01*
X153489000Y-96128000D02*
X153489000Y-93750000D01*
X153489000Y-91670000D02*
X153489000Y-89292000D01*
X153449000Y-96102000D02*
X153449000Y-93750000D01*
X153449000Y-91670000D02*
X153449000Y-89318000D01*
X153409000Y-96075000D02*
X153409000Y-93750000D01*
X153409000Y-91670000D02*
X153409000Y-89345000D01*
X153369000Y-96048000D02*
X153369000Y-93750000D01*
X153369000Y-91670000D02*
X153369000Y-89372000D01*
X153329000Y-96019000D02*
X153329000Y-93750000D01*
X153329000Y-91670000D02*
X153329000Y-89401000D01*
X153289000Y-95990000D02*
X153289000Y-93750000D01*
X153289000Y-91670000D02*
X153289000Y-89430000D01*
X153249000Y-95960000D02*
X153249000Y-93750000D01*
X153249000Y-91670000D02*
X153249000Y-89460000D01*
X153209000Y-95930000D02*
X153209000Y-93750000D01*
X153209000Y-91670000D02*
X153209000Y-89490000D01*
X153169000Y-95899000D02*
X153169000Y-93750000D01*
X153169000Y-91670000D02*
X153169000Y-89521000D01*
X153129000Y-95866000D02*
X153129000Y-93750000D01*
X153129000Y-91670000D02*
X153129000Y-89554000D01*
X153089000Y-95834000D02*
X153089000Y-93750000D01*
X153089000Y-91670000D02*
X153089000Y-89586000D01*
X153049000Y-95800000D02*
X153049000Y-93750000D01*
X153049000Y-91670000D02*
X153049000Y-89620000D01*
X153009000Y-95765000D02*
X153009000Y-93750000D01*
X153009000Y-91670000D02*
X153009000Y-89655000D01*
X152969000Y-95729000D02*
X152969000Y-93750000D01*
X152969000Y-91670000D02*
X152969000Y-89691000D01*
X152929000Y-95693000D02*
X152929000Y-89727000D01*
X152889000Y-95655000D02*
X152889000Y-89765000D01*
X152849000Y-95617000D02*
X152849000Y-89803000D01*
X152809000Y-95577000D02*
X152809000Y-89843000D01*
X152769000Y-95536000D02*
X152769000Y-89884000D01*
X152729000Y-95494000D02*
X152729000Y-89926000D01*
X152689000Y-95451000D02*
X152689000Y-89969000D01*
X152649000Y-95407000D02*
X152649000Y-90013000D01*
X152609000Y-95361000D02*
X152609000Y-90059000D01*
X152569000Y-95314000D02*
X152569000Y-90106000D01*
X152529000Y-95266000D02*
X152529000Y-90154000D01*
X152489000Y-95215000D02*
X152489000Y-90205000D01*
X152449000Y-95164000D02*
X152449000Y-90256000D01*
X152409000Y-95110000D02*
X152409000Y-90310000D01*
X152369000Y-95055000D02*
X152369000Y-90365000D01*
X152329000Y-94997000D02*
X152329000Y-90423000D01*
X152289000Y-94938000D02*
X152289000Y-90482000D01*
X152249000Y-94876000D02*
X152249000Y-90544000D01*
X152209000Y-94812000D02*
X152209000Y-90608000D01*
X152169000Y-94744000D02*
X152169000Y-90676000D01*
X152129000Y-94674000D02*
X152129000Y-90746000D01*
X152089000Y-94600000D02*
X152089000Y-90820000D01*
X152049000Y-94523000D02*
X152049000Y-90897000D01*
X152009000Y-94441000D02*
X152009000Y-90979000D01*
X151969000Y-94355000D02*
X151969000Y-91065000D01*
X151929000Y-94262000D02*
X151929000Y-91158000D01*
X151889000Y-94163000D02*
X151889000Y-91257000D01*
X151849000Y-94056000D02*
X151849000Y-91364000D01*
X151809000Y-93939000D02*
X151809000Y-91481000D01*
X151769000Y-93808000D02*
X151769000Y-91612000D01*
X151729000Y-93658000D02*
X151729000Y-91762000D01*
X151689000Y-93478000D02*
X151689000Y-91942000D01*
X151649000Y-93243000D02*
X151649000Y-92177000D01*
X160139698Y-95025000D02*
X159339698Y-95025000D01*
X159739698Y-95425000D02*
X159739698Y-94625000D01*
X149440000Y-113680000D02*
X149440000Y-109830000D01*
X149440000Y-109830000D02*
X149290000Y-109800000D01*
X147890000Y-109950000D02*
X146990000Y-110280000D01*
X146990000Y-110280000D02*
X146990000Y-113230000D01*
X146990000Y-113230000D02*
X147890000Y-113600000D01*
X160960000Y-113230000D02*
X161860000Y-113600000D01*
X160960000Y-110280000D02*
X160960000Y-113230000D01*
X161860000Y-109950000D02*
X160960000Y-110280000D01*
X163410000Y-109830000D02*
X163260000Y-109800000D01*
X163410000Y-113680000D02*
X163410000Y-109830000D01*
X164770000Y-94180000D02*
X165670000Y-94550000D01*
X164770000Y-91230000D02*
X164770000Y-94180000D01*
X165670000Y-90900000D02*
X164770000Y-91230000D01*
X167220000Y-90780000D02*
X167070000Y-90750000D01*
X167220000Y-94630000D02*
X167220000Y-90780000D01*
X163410000Y-94630000D02*
X163410000Y-90780000D01*
X163410000Y-90780000D02*
X163260000Y-90750000D01*
X161860000Y-90900000D02*
X160960000Y-91230000D01*
X160960000Y-91230000D02*
X160960000Y-94180000D01*
X160960000Y-94180000D02*
X161860000Y-94550000D01*
X174840000Y-112410000D02*
X174840000Y-108560000D01*
X174840000Y-108560000D02*
X174690000Y-108530000D01*
X173290000Y-108680000D02*
X172390000Y-109010000D01*
X172390000Y-109010000D02*
X172390000Y-111960000D01*
X172390000Y-111960000D02*
X173290000Y-112330000D01*
X169850000Y-91640000D02*
X170750000Y-92010000D01*
X169850000Y-88690000D02*
X169850000Y-91640000D01*
X170750000Y-88360000D02*
X169850000Y-88690000D01*
X172300000Y-88240000D02*
X172150000Y-88210000D01*
X172300000Y-92090000D02*
X172300000Y-88240000D01*
X187420000Y-89866000D02*
X186590000Y-89866000D01*
X190080000Y-89866000D02*
X188500000Y-89866000D01*
X186910000Y-86665000D02*
X186590000Y-86665000D01*
X190080000Y-86665000D02*
X189010000Y-86665000D01*
X190080000Y-92385000D02*
X186590000Y-92385000D01*
X190080000Y-84145000D02*
X186590000Y-84145000D01*
X186590000Y-84145000D02*
X186590000Y-92385000D01*
X190080000Y-84145000D02*
X190080000Y-92385000D01*
X190080000Y-104465000D02*
X190080000Y-112705000D01*
X186590000Y-104465000D02*
X186590000Y-112705000D01*
X190080000Y-104465000D02*
X186590000Y-104465000D01*
X190080000Y-112705000D02*
X186590000Y-112705000D01*
X190080000Y-106985000D02*
X189010000Y-106985000D01*
X186910000Y-106985000D02*
X186590000Y-106985000D01*
X190080000Y-110186000D02*
X188500000Y-110186000D01*
X187420000Y-110186000D02*
X186590000Y-110186000D01*
X156110000Y-73120000D02*
X156440000Y-73120000D01*
X156110000Y-66580000D02*
X156110000Y-73120000D01*
X156440000Y-66580000D02*
X156110000Y-66580000D01*
X158850000Y-73120000D02*
X158520000Y-73120000D01*
X158850000Y-66580000D02*
X158850000Y-73120000D01*
X158520000Y-66580000D02*
X158850000Y-66580000D01*
X156440000Y-120110000D02*
X156110000Y-120110000D01*
X156110000Y-120110000D02*
X156110000Y-113570000D01*
X156110000Y-113570000D02*
X156440000Y-113570000D01*
X158520000Y-120110000D02*
X158850000Y-120110000D01*
X158850000Y-120110000D02*
X158850000Y-113570000D01*
X158850000Y-113570000D02*
X158520000Y-113570000D01*
X149960000Y-89440000D02*
X149630000Y-89440000D01*
X149960000Y-95980000D02*
X149960000Y-89440000D01*
X149630000Y-95980000D02*
X149960000Y-95980000D01*
X147220000Y-89440000D02*
X147550000Y-89440000D01*
X147220000Y-95980000D02*
X147220000Y-89440000D01*
X147550000Y-95980000D02*
X147220000Y-95980000D01*
X149960000Y-99600000D02*
X149630000Y-99600000D01*
X149960000Y-106140000D02*
X149960000Y-99600000D01*
X149630000Y-106140000D02*
X149960000Y-106140000D01*
X147220000Y-99600000D02*
X147550000Y-99600000D01*
X147220000Y-106140000D02*
X147220000Y-99600000D01*
X147550000Y-106140000D02*
X147220000Y-106140000D01*
X155040000Y-113570000D02*
X154710000Y-113570000D01*
X155040000Y-120110000D02*
X155040000Y-113570000D01*
X154710000Y-120110000D02*
X155040000Y-120110000D01*
X152300000Y-113570000D02*
X152630000Y-113570000D01*
X152300000Y-120110000D02*
X152300000Y-113570000D01*
X152630000Y-120110000D02*
X152300000Y-120110000D01*
X158020000Y-85320000D02*
X158020000Y-84990000D01*
X158020000Y-84990000D02*
X164560000Y-84990000D01*
X164560000Y-84990000D02*
X164560000Y-85320000D01*
X158020000Y-87400000D02*
X158020000Y-87730000D01*
X158020000Y-87730000D02*
X164560000Y-87730000D01*
X164560000Y-87730000D02*
X164560000Y-87400000D01*
X161520000Y-123920000D02*
X161190000Y-123920000D01*
X161190000Y-123920000D02*
X161190000Y-117380000D01*
X161190000Y-117380000D02*
X161520000Y-117380000D01*
X163600000Y-123920000D02*
X163930000Y-123920000D01*
X163930000Y-123920000D02*
X163930000Y-117380000D01*
X163930000Y-117380000D02*
X163600000Y-117380000D01*
X164695000Y-73120000D02*
X164365000Y-73120000D01*
X164365000Y-73120000D02*
X164365000Y-66580000D01*
X164365000Y-66580000D02*
X164695000Y-66580000D01*
X166775000Y-73120000D02*
X167105000Y-73120000D01*
X167105000Y-73120000D02*
X167105000Y-66580000D01*
X167105000Y-66580000D02*
X166775000Y-66580000D01*
X167105000Y-98330000D02*
X166775000Y-98330000D01*
X167105000Y-104870000D02*
X167105000Y-98330000D01*
X166775000Y-104870000D02*
X167105000Y-104870000D01*
X164365000Y-98330000D02*
X164695000Y-98330000D01*
X164365000Y-104870000D02*
X164365000Y-98330000D01*
X164695000Y-104870000D02*
X164365000Y-104870000D01*
X163295000Y-66580000D02*
X162965000Y-66580000D01*
X163295000Y-73120000D02*
X163295000Y-66580000D01*
X162965000Y-73120000D02*
X163295000Y-73120000D01*
X160555000Y-66580000D02*
X160885000Y-66580000D01*
X160555000Y-73120000D02*
X160555000Y-66580000D01*
X160885000Y-73120000D02*
X160555000Y-73120000D01*
X163930000Y-98330000D02*
X163600000Y-98330000D01*
X163930000Y-104870000D02*
X163930000Y-98330000D01*
X163600000Y-104870000D02*
X163930000Y-104870000D01*
X161190000Y-98330000D02*
X161520000Y-98330000D01*
X161190000Y-104870000D02*
X161190000Y-98330000D01*
X161520000Y-104870000D02*
X161190000Y-104870000D01*
X158345000Y-104870000D02*
X158015000Y-104870000D01*
X158015000Y-104870000D02*
X158015000Y-98330000D01*
X158015000Y-98330000D02*
X158345000Y-98330000D01*
X160425000Y-104870000D02*
X160755000Y-104870000D01*
X160755000Y-104870000D02*
X160755000Y-98330000D01*
X160755000Y-98330000D02*
X160425000Y-98330000D01*
X169450000Y-100230000D02*
X169450000Y-100560000D01*
X175990000Y-100230000D02*
X169450000Y-100230000D01*
X175990000Y-100560000D02*
X175990000Y-100230000D01*
X169450000Y-102970000D02*
X169450000Y-102640000D01*
X175990000Y-102970000D02*
X169450000Y-102970000D01*
X175990000Y-102640000D02*
X175990000Y-102970000D01*
X169950000Y-108490000D02*
X170280000Y-108490000D01*
X170280000Y-108490000D02*
X170280000Y-115030000D01*
X170280000Y-115030000D02*
X169950000Y-115030000D01*
X167870000Y-108490000D02*
X167540000Y-108490000D01*
X167540000Y-108490000D02*
X167540000Y-115030000D01*
X167540000Y-115030000D02*
X167870000Y-115030000D01*
X169140000Y-73120000D02*
X168810000Y-73120000D01*
X168810000Y-73120000D02*
X168810000Y-66580000D01*
X168810000Y-66580000D02*
X169140000Y-66580000D01*
X171220000Y-73120000D02*
X171550000Y-73120000D01*
X171550000Y-73120000D02*
X171550000Y-66580000D01*
X171550000Y-66580000D02*
X171220000Y-66580000D01*
X174220000Y-90900000D02*
X173890000Y-90900000D01*
X173890000Y-90900000D02*
X173890000Y-84360000D01*
X173890000Y-84360000D02*
X174220000Y-84360000D01*
X176300000Y-90900000D02*
X176630000Y-90900000D01*
X176630000Y-90900000D02*
X176630000Y-84360000D01*
X176630000Y-84360000D02*
X176300000Y-84360000D01*
X172950000Y-123920000D02*
X172620000Y-123920000D01*
X172620000Y-123920000D02*
X172620000Y-117380000D01*
X172620000Y-117380000D02*
X172950000Y-117380000D01*
X175030000Y-123920000D02*
X175360000Y-123920000D01*
X175360000Y-123920000D02*
X175360000Y-117380000D01*
X175360000Y-117380000D02*
X175030000Y-117380000D01*
X178640000Y-92995000D02*
X184580000Y-92995000D01*
X184580000Y-92995000D02*
X184580000Y-78455000D01*
X184580000Y-78455000D02*
X178640000Y-78455000D01*
X178640000Y-78455000D02*
X178640000Y-92995000D01*
X181610000Y-94245000D02*
X181610000Y-92995000D01*
X181610000Y-77205000D02*
X181610000Y-78455000D01*
X181610000Y-102605000D02*
X181610000Y-103855000D01*
X181610000Y-119645000D02*
X181610000Y-118395000D01*
X178640000Y-103855000D02*
X178640000Y-118395000D01*
X184580000Y-103855000D02*
X178640000Y-103855000D01*
X184580000Y-118395000D02*
X184580000Y-103855000D01*
X178640000Y-118395000D02*
X184580000Y-118395000D01*
X173990000Y-95190000D02*
X173990000Y-97850000D01*
X173990000Y-95190000D02*
X168850000Y-95190000D01*
X168850000Y-95190000D02*
X168850000Y-97850000D01*
X173990000Y-97850000D02*
X168850000Y-97850000D01*
X176590000Y-97850000D02*
X175260000Y-97850000D01*
X176590000Y-96520000D02*
X176590000Y-97850000D01*
X164885000Y-78090000D02*
X164885000Y-81940000D01*
X164885000Y-81940000D02*
X165035000Y-81970000D01*
X166435000Y-81820000D02*
X167335000Y-81490000D01*
X167335000Y-81490000D02*
X167335000Y-78540000D01*
X167335000Y-78540000D02*
X166435000Y-78170000D01*
X163525000Y-78540000D02*
X162625000Y-78170000D01*
X163525000Y-81490000D02*
X163525000Y-78540000D01*
X162625000Y-81820000D02*
X163525000Y-81490000D01*
X161075000Y-81940000D02*
X161225000Y-81970000D01*
X161075000Y-78090000D02*
X161075000Y-81940000D01*
X171780000Y-81080000D02*
X170880000Y-80710000D01*
X171780000Y-84030000D02*
X171780000Y-81080000D01*
X170880000Y-84360000D02*
X171780000Y-84030000D01*
X169330000Y-84480000D02*
X169480000Y-84510000D01*
X169330000Y-80630000D02*
X169330000Y-84480000D01*
X147740000Y-118730000D02*
X147740000Y-122580000D01*
X147740000Y-122580000D02*
X147890000Y-122610000D01*
X149290000Y-122460000D02*
X150190000Y-122130000D01*
X150190000Y-122130000D02*
X150190000Y-119180000D01*
X150190000Y-119180000D02*
X149290000Y-118810000D01*
X154305462Y-98610000D02*
G75*
G03X152760170Y-104160000I-462J-2990000D01*
G01*
X154304538Y-98610000D02*
G75*
G02X155849830Y-104160000I462J-2990000D01*
G01*
X156805000Y-101600000D02*
G75*
G03X156805000Y-101600000I-2500000J0D01*
G01*
X152760000Y-104160000D02*
X155850000Y-104160000D01*
D11*
X147737142Y-68766666D02*
X147784761Y-68814285D01*
X147832380Y-68957142D01*
X147832380Y-69052380D01*
X147784761Y-69195238D01*
X147689523Y-69290476D01*
X147594285Y-69338095D01*
X147403809Y-69385714D01*
X147260952Y-69385714D01*
X147070476Y-69338095D01*
X146975238Y-69290476D01*
X146880000Y-69195238D01*
X146832380Y-69052380D01*
X146832380Y-68957142D01*
X146880000Y-68814285D01*
X146927619Y-68766666D01*
X147832380Y-67814285D02*
X147832380Y-68385714D01*
X147832380Y-68100000D02*
X146832380Y-68100000D01*
X146975238Y-68195238D01*
X147070476Y-68290476D01*
X147118095Y-68385714D01*
X157333333Y-85457142D02*
X157285714Y-85504761D01*
X157142857Y-85552380D01*
X157047619Y-85552380D01*
X156904761Y-85504761D01*
X156809523Y-85409523D01*
X156761904Y-85314285D01*
X156714285Y-85123809D01*
X156714285Y-84980952D01*
X156761904Y-84790476D01*
X156809523Y-84695238D01*
X156904761Y-84600000D01*
X157047619Y-84552380D01*
X157142857Y-84552380D01*
X157285714Y-84600000D01*
X157333333Y-84647619D01*
X157714285Y-84647619D02*
X157761904Y-84600000D01*
X157857142Y-84552380D01*
X158095238Y-84552380D01*
X158190476Y-84600000D01*
X158238095Y-84647619D01*
X158285714Y-84742857D01*
X158285714Y-84838095D01*
X158238095Y-84980952D01*
X157666666Y-85552380D01*
X158285714Y-85552380D01*
X155563333Y-98317142D02*
X155515714Y-98364761D01*
X155372857Y-98412380D01*
X155277619Y-98412380D01*
X155134761Y-98364761D01*
X155039523Y-98269523D01*
X154991904Y-98174285D01*
X154944285Y-97983809D01*
X154944285Y-97840952D01*
X154991904Y-97650476D01*
X155039523Y-97555238D01*
X155134761Y-97460000D01*
X155277619Y-97412380D01*
X155372857Y-97412380D01*
X155515714Y-97460000D01*
X155563333Y-97507619D01*
X155896666Y-97412380D02*
X156515714Y-97412380D01*
X156182380Y-97793333D01*
X156325238Y-97793333D01*
X156420476Y-97840952D01*
X156468095Y-97888571D01*
X156515714Y-97983809D01*
X156515714Y-98221904D01*
X156468095Y-98317142D01*
X156420476Y-98364761D01*
X156325238Y-98412380D01*
X156039523Y-98412380D01*
X155944285Y-98364761D01*
X155896666Y-98317142D01*
X144867380Y-79708333D02*
X145581666Y-79708333D01*
X145724523Y-79755952D01*
X145819761Y-79851190D01*
X145867380Y-79994047D01*
X145867380Y-80089285D01*
X145867380Y-78708333D02*
X145867380Y-79279761D01*
X145867380Y-78994047D02*
X144867380Y-78994047D01*
X145010238Y-79089285D01*
X145105476Y-79184523D01*
X145153095Y-79279761D01*
X175561666Y-64857380D02*
X175561666Y-65571666D01*
X175514047Y-65714523D01*
X175418809Y-65809761D01*
X175275952Y-65857380D01*
X175180714Y-65857380D01*
X175990238Y-64952619D02*
X176037857Y-64905000D01*
X176133095Y-64857380D01*
X176371190Y-64857380D01*
X176466428Y-64905000D01*
X176514047Y-64952619D01*
X176561666Y-65047857D01*
X176561666Y-65143095D01*
X176514047Y-65285952D01*
X175942619Y-65857380D01*
X176561666Y-65857380D01*
X167941666Y-115022380D02*
X167941666Y-115736666D01*
X167894047Y-115879523D01*
X167798809Y-115974761D01*
X167655952Y-116022380D01*
X167560714Y-116022380D01*
X168322619Y-115022380D02*
X168941666Y-115022380D01*
X168608333Y-115403333D01*
X168751190Y-115403333D01*
X168846428Y-115450952D01*
X168894047Y-115498571D01*
X168941666Y-115593809D01*
X168941666Y-115831904D01*
X168894047Y-115927142D01*
X168846428Y-115974761D01*
X168751190Y-116022380D01*
X168465476Y-116022380D01*
X168370238Y-115974761D01*
X168322619Y-115927142D01*
X146787619Y-111855238D02*
X146740000Y-111950476D01*
X146644761Y-112045714D01*
X146501904Y-112188571D01*
X146454285Y-112283809D01*
X146454285Y-112379047D01*
X146692380Y-112331428D02*
X146644761Y-112426666D01*
X146549523Y-112521904D01*
X146359047Y-112569523D01*
X146025714Y-112569523D01*
X145835238Y-112521904D01*
X145740000Y-112426666D01*
X145692380Y-112331428D01*
X145692380Y-112140952D01*
X145740000Y-112045714D01*
X145835238Y-111950476D01*
X146025714Y-111902857D01*
X146359047Y-111902857D01*
X146549523Y-111950476D01*
X146644761Y-112045714D01*
X146692380Y-112140952D01*
X146692380Y-112331428D01*
X146692380Y-110950476D02*
X146692380Y-111521904D01*
X146692380Y-111236190D02*
X145692380Y-111236190D01*
X145835238Y-111331428D01*
X145930476Y-111426666D01*
X145978095Y-111521904D01*
X160757619Y-111855238D02*
X160710000Y-111950476D01*
X160614761Y-112045714D01*
X160471904Y-112188571D01*
X160424285Y-112283809D01*
X160424285Y-112379047D01*
X160662380Y-112331428D02*
X160614761Y-112426666D01*
X160519523Y-112521904D01*
X160329047Y-112569523D01*
X159995714Y-112569523D01*
X159805238Y-112521904D01*
X159710000Y-112426666D01*
X159662380Y-112331428D01*
X159662380Y-112140952D01*
X159710000Y-112045714D01*
X159805238Y-111950476D01*
X159995714Y-111902857D01*
X160329047Y-111902857D01*
X160519523Y-111950476D01*
X160614761Y-112045714D01*
X160662380Y-112140952D01*
X160662380Y-112331428D01*
X159757619Y-111521904D02*
X159710000Y-111474285D01*
X159662380Y-111379047D01*
X159662380Y-111140952D01*
X159710000Y-111045714D01*
X159757619Y-110998095D01*
X159852857Y-110950476D01*
X159948095Y-110950476D01*
X160090952Y-110998095D01*
X160662380Y-111569523D01*
X160662380Y-110950476D01*
X164567619Y-92805238D02*
X164520000Y-92900476D01*
X164424761Y-92995714D01*
X164281904Y-93138571D01*
X164234285Y-93233809D01*
X164234285Y-93329047D01*
X164472380Y-93281428D02*
X164424761Y-93376666D01*
X164329523Y-93471904D01*
X164139047Y-93519523D01*
X163805714Y-93519523D01*
X163615238Y-93471904D01*
X163520000Y-93376666D01*
X163472380Y-93281428D01*
X163472380Y-93090952D01*
X163520000Y-92995714D01*
X163615238Y-92900476D01*
X163805714Y-92852857D01*
X164139047Y-92852857D01*
X164329523Y-92900476D01*
X164424761Y-92995714D01*
X164472380Y-93090952D01*
X164472380Y-93281428D01*
X163472380Y-92519523D02*
X163472380Y-91900476D01*
X163853333Y-92233809D01*
X163853333Y-92090952D01*
X163900952Y-91995714D01*
X163948571Y-91948095D01*
X164043809Y-91900476D01*
X164281904Y-91900476D01*
X164377142Y-91948095D01*
X164424761Y-91995714D01*
X164472380Y-92090952D01*
X164472380Y-92376666D01*
X164424761Y-92471904D01*
X164377142Y-92519523D01*
X160757619Y-92805238D02*
X160710000Y-92900476D01*
X160614761Y-92995714D01*
X160471904Y-93138571D01*
X160424285Y-93233809D01*
X160424285Y-93329047D01*
X160662380Y-93281428D02*
X160614761Y-93376666D01*
X160519523Y-93471904D01*
X160329047Y-93519523D01*
X159995714Y-93519523D01*
X159805238Y-93471904D01*
X159710000Y-93376666D01*
X159662380Y-93281428D01*
X159662380Y-93090952D01*
X159710000Y-92995714D01*
X159805238Y-92900476D01*
X159995714Y-92852857D01*
X160329047Y-92852857D01*
X160519523Y-92900476D01*
X160614761Y-92995714D01*
X160662380Y-93090952D01*
X160662380Y-93281428D01*
X159662380Y-91995714D02*
X159662380Y-92186190D01*
X159710000Y-92281428D01*
X159757619Y-92329047D01*
X159900476Y-92424285D01*
X160090952Y-92471904D01*
X160471904Y-92471904D01*
X160567142Y-92424285D01*
X160614761Y-92376666D01*
X160662380Y-92281428D01*
X160662380Y-92090952D01*
X160614761Y-91995714D01*
X160567142Y-91948095D01*
X160471904Y-91900476D01*
X160233809Y-91900476D01*
X160138571Y-91948095D01*
X160090952Y-91995714D01*
X160043333Y-92090952D01*
X160043333Y-92281428D01*
X160090952Y-92376666D01*
X160138571Y-92424285D01*
X160233809Y-92471904D01*
X172187619Y-110585238D02*
X172140000Y-110680476D01*
X172044761Y-110775714D01*
X171901904Y-110918571D01*
X171854285Y-111013809D01*
X171854285Y-111109047D01*
X172092380Y-111061428D02*
X172044761Y-111156666D01*
X171949523Y-111251904D01*
X171759047Y-111299523D01*
X171425714Y-111299523D01*
X171235238Y-111251904D01*
X171140000Y-111156666D01*
X171092380Y-111061428D01*
X171092380Y-110870952D01*
X171140000Y-110775714D01*
X171235238Y-110680476D01*
X171425714Y-110632857D01*
X171759047Y-110632857D01*
X171949523Y-110680476D01*
X172044761Y-110775714D01*
X172092380Y-110870952D01*
X172092380Y-111061428D01*
X171520952Y-110061428D02*
X171473333Y-110156666D01*
X171425714Y-110204285D01*
X171330476Y-110251904D01*
X171282857Y-110251904D01*
X171187619Y-110204285D01*
X171140000Y-110156666D01*
X171092380Y-110061428D01*
X171092380Y-109870952D01*
X171140000Y-109775714D01*
X171187619Y-109728095D01*
X171282857Y-109680476D01*
X171330476Y-109680476D01*
X171425714Y-109728095D01*
X171473333Y-109775714D01*
X171520952Y-109870952D01*
X171520952Y-110061428D01*
X171568571Y-110156666D01*
X171616190Y-110204285D01*
X171711428Y-110251904D01*
X171901904Y-110251904D01*
X171997142Y-110204285D01*
X172044761Y-110156666D01*
X172092380Y-110061428D01*
X172092380Y-109870952D01*
X172044761Y-109775714D01*
X171997142Y-109728095D01*
X171901904Y-109680476D01*
X171711428Y-109680476D01*
X171616190Y-109728095D01*
X171568571Y-109775714D01*
X171520952Y-109870952D01*
X169647619Y-90265238D02*
X169600000Y-90360476D01*
X169504761Y-90455714D01*
X169361904Y-90598571D01*
X169314285Y-90693809D01*
X169314285Y-90789047D01*
X169552380Y-90741428D02*
X169504761Y-90836666D01*
X169409523Y-90931904D01*
X169219047Y-90979523D01*
X168885714Y-90979523D01*
X168695238Y-90931904D01*
X168600000Y-90836666D01*
X168552380Y-90741428D01*
X168552380Y-90550952D01*
X168600000Y-90455714D01*
X168695238Y-90360476D01*
X168885714Y-90312857D01*
X169219047Y-90312857D01*
X169409523Y-90360476D01*
X169504761Y-90455714D01*
X169552380Y-90550952D01*
X169552380Y-90741428D01*
X169552380Y-89836666D02*
X169552380Y-89646190D01*
X169504761Y-89550952D01*
X169457142Y-89503333D01*
X169314285Y-89408095D01*
X169123809Y-89360476D01*
X168742857Y-89360476D01*
X168647619Y-89408095D01*
X168600000Y-89455714D01*
X168552380Y-89550952D01*
X168552380Y-89741428D01*
X168600000Y-89836666D01*
X168647619Y-89884285D01*
X168742857Y-89931904D01*
X168980952Y-89931904D01*
X169076190Y-89884285D01*
X169123809Y-89836666D01*
X169171428Y-89741428D01*
X169171428Y-89550952D01*
X169123809Y-89455714D01*
X169076190Y-89408095D01*
X168980952Y-89360476D01*
X191627619Y-88836428D02*
X191580000Y-88931666D01*
X191484761Y-89026904D01*
X191341904Y-89169761D01*
X191294285Y-89265000D01*
X191294285Y-89360238D01*
X191532380Y-89312619D02*
X191484761Y-89407857D01*
X191389523Y-89503095D01*
X191199047Y-89550714D01*
X190865714Y-89550714D01*
X190675238Y-89503095D01*
X190580000Y-89407857D01*
X190532380Y-89312619D01*
X190532380Y-89122142D01*
X190580000Y-89026904D01*
X190675238Y-88931666D01*
X190865714Y-88884047D01*
X191199047Y-88884047D01*
X191389523Y-88931666D01*
X191484761Y-89026904D01*
X191532380Y-89122142D01*
X191532380Y-89312619D01*
X191532380Y-87931666D02*
X191532380Y-88503095D01*
X191532380Y-88217380D02*
X190532380Y-88217380D01*
X190675238Y-88312619D01*
X190770476Y-88407857D01*
X190818095Y-88503095D01*
X190532380Y-87312619D02*
X190532380Y-87217380D01*
X190580000Y-87122142D01*
X190627619Y-87074523D01*
X190722857Y-87026904D01*
X190913333Y-86979285D01*
X191151428Y-86979285D01*
X191341904Y-87026904D01*
X191437142Y-87074523D01*
X191484761Y-87122142D01*
X191532380Y-87217380D01*
X191532380Y-87312619D01*
X191484761Y-87407857D01*
X191437142Y-87455476D01*
X191341904Y-87503095D01*
X191151428Y-87550714D01*
X190913333Y-87550714D01*
X190722857Y-87503095D01*
X190627619Y-87455476D01*
X190580000Y-87407857D01*
X190532380Y-87312619D01*
X191627619Y-109156428D02*
X191580000Y-109251666D01*
X191484761Y-109346904D01*
X191341904Y-109489761D01*
X191294285Y-109585000D01*
X191294285Y-109680238D01*
X191532380Y-109632619D02*
X191484761Y-109727857D01*
X191389523Y-109823095D01*
X191199047Y-109870714D01*
X190865714Y-109870714D01*
X190675238Y-109823095D01*
X190580000Y-109727857D01*
X190532380Y-109632619D01*
X190532380Y-109442142D01*
X190580000Y-109346904D01*
X190675238Y-109251666D01*
X190865714Y-109204047D01*
X191199047Y-109204047D01*
X191389523Y-109251666D01*
X191484761Y-109346904D01*
X191532380Y-109442142D01*
X191532380Y-109632619D01*
X191532380Y-108251666D02*
X191532380Y-108823095D01*
X191532380Y-108537380D02*
X190532380Y-108537380D01*
X190675238Y-108632619D01*
X190770476Y-108727857D01*
X190818095Y-108823095D01*
X191532380Y-107299285D02*
X191532380Y-107870714D01*
X191532380Y-107585000D02*
X190532380Y-107585000D01*
X190675238Y-107680238D01*
X190770476Y-107775476D01*
X190818095Y-107870714D01*
X160302380Y-70016666D02*
X159826190Y-70350000D01*
X160302380Y-70588095D02*
X159302380Y-70588095D01*
X159302380Y-70207142D01*
X159350000Y-70111904D01*
X159397619Y-70064285D01*
X159492857Y-70016666D01*
X159635714Y-70016666D01*
X159730952Y-70064285D01*
X159778571Y-70111904D01*
X159826190Y-70207142D01*
X159826190Y-70588095D01*
X160302380Y-69064285D02*
X160302380Y-69635714D01*
X160302380Y-69350000D02*
X159302380Y-69350000D01*
X159445238Y-69445238D01*
X159540476Y-69540476D01*
X159588095Y-69635714D01*
X155562380Y-117006666D02*
X155086190Y-117340000D01*
X155562380Y-117578095D02*
X154562380Y-117578095D01*
X154562380Y-117197142D01*
X154610000Y-117101904D01*
X154657619Y-117054285D01*
X154752857Y-117006666D01*
X154895714Y-117006666D01*
X154990952Y-117054285D01*
X155038571Y-117101904D01*
X155086190Y-117197142D01*
X155086190Y-117578095D01*
X154657619Y-116625714D02*
X154610000Y-116578095D01*
X154562380Y-116482857D01*
X154562380Y-116244761D01*
X154610000Y-116149523D01*
X154657619Y-116101904D01*
X154752857Y-116054285D01*
X154848095Y-116054285D01*
X154990952Y-116101904D01*
X155562380Y-116673333D01*
X155562380Y-116054285D01*
X146672380Y-92876666D02*
X146196190Y-93210000D01*
X146672380Y-93448095D02*
X145672380Y-93448095D01*
X145672380Y-93067142D01*
X145720000Y-92971904D01*
X145767619Y-92924285D01*
X145862857Y-92876666D01*
X146005714Y-92876666D01*
X146100952Y-92924285D01*
X146148571Y-92971904D01*
X146196190Y-93067142D01*
X146196190Y-93448095D01*
X145672380Y-92543333D02*
X145672380Y-91924285D01*
X146053333Y-92257619D01*
X146053333Y-92114761D01*
X146100952Y-92019523D01*
X146148571Y-91971904D01*
X146243809Y-91924285D01*
X146481904Y-91924285D01*
X146577142Y-91971904D01*
X146624761Y-92019523D01*
X146672380Y-92114761D01*
X146672380Y-92400476D01*
X146624761Y-92495714D01*
X146577142Y-92543333D01*
X146672380Y-103036666D02*
X146196190Y-103370000D01*
X146672380Y-103608095D02*
X145672380Y-103608095D01*
X145672380Y-103227142D01*
X145720000Y-103131904D01*
X145767619Y-103084285D01*
X145862857Y-103036666D01*
X146005714Y-103036666D01*
X146100952Y-103084285D01*
X146148571Y-103131904D01*
X146196190Y-103227142D01*
X146196190Y-103608095D01*
X146005714Y-102179523D02*
X146672380Y-102179523D01*
X145624761Y-102417619D02*
X146339047Y-102655714D01*
X146339047Y-102036666D01*
X151752380Y-117006666D02*
X151276190Y-117340000D01*
X151752380Y-117578095D02*
X150752380Y-117578095D01*
X150752380Y-117197142D01*
X150800000Y-117101904D01*
X150847619Y-117054285D01*
X150942857Y-117006666D01*
X151085714Y-117006666D01*
X151180952Y-117054285D01*
X151228571Y-117101904D01*
X151276190Y-117197142D01*
X151276190Y-117578095D01*
X150752380Y-116101904D02*
X150752380Y-116578095D01*
X151228571Y-116625714D01*
X151180952Y-116578095D01*
X151133333Y-116482857D01*
X151133333Y-116244761D01*
X151180952Y-116149523D01*
X151228571Y-116101904D01*
X151323809Y-116054285D01*
X151561904Y-116054285D01*
X151657142Y-116101904D01*
X151704761Y-116149523D01*
X151752380Y-116244761D01*
X151752380Y-116482857D01*
X151704761Y-116578095D01*
X151657142Y-116625714D01*
X161123333Y-84442380D02*
X160790000Y-83966190D01*
X160551904Y-84442380D02*
X160551904Y-83442380D01*
X160932857Y-83442380D01*
X161028095Y-83490000D01*
X161075714Y-83537619D01*
X161123333Y-83632857D01*
X161123333Y-83775714D01*
X161075714Y-83870952D01*
X161028095Y-83918571D01*
X160932857Y-83966190D01*
X160551904Y-83966190D01*
X161980476Y-83442380D02*
X161790000Y-83442380D01*
X161694761Y-83490000D01*
X161647142Y-83537619D01*
X161551904Y-83680476D01*
X161504285Y-83870952D01*
X161504285Y-84251904D01*
X161551904Y-84347142D01*
X161599523Y-84394761D01*
X161694761Y-84442380D01*
X161885238Y-84442380D01*
X161980476Y-84394761D01*
X162028095Y-84347142D01*
X162075714Y-84251904D01*
X162075714Y-84013809D01*
X162028095Y-83918571D01*
X161980476Y-83870952D01*
X161885238Y-83823333D01*
X161694761Y-83823333D01*
X161599523Y-83870952D01*
X161551904Y-83918571D01*
X161504285Y-84013809D01*
X160642380Y-120816666D02*
X160166190Y-121150000D01*
X160642380Y-121388095D02*
X159642380Y-121388095D01*
X159642380Y-121007142D01*
X159690000Y-120911904D01*
X159737619Y-120864285D01*
X159832857Y-120816666D01*
X159975714Y-120816666D01*
X160070952Y-120864285D01*
X160118571Y-120911904D01*
X160166190Y-121007142D01*
X160166190Y-121388095D01*
X159642380Y-120483333D02*
X159642380Y-119816666D01*
X160642380Y-120245238D01*
X163817380Y-70016666D02*
X163341190Y-70350000D01*
X163817380Y-70588095D02*
X162817380Y-70588095D01*
X162817380Y-70207142D01*
X162865000Y-70111904D01*
X162912619Y-70064285D01*
X163007857Y-70016666D01*
X163150714Y-70016666D01*
X163245952Y-70064285D01*
X163293571Y-70111904D01*
X163341190Y-70207142D01*
X163341190Y-70588095D01*
X163245952Y-69445238D02*
X163198333Y-69540476D01*
X163150714Y-69588095D01*
X163055476Y-69635714D01*
X163007857Y-69635714D01*
X162912619Y-69588095D01*
X162865000Y-69540476D01*
X162817380Y-69445238D01*
X162817380Y-69254761D01*
X162865000Y-69159523D01*
X162912619Y-69111904D01*
X163007857Y-69064285D01*
X163055476Y-69064285D01*
X163150714Y-69111904D01*
X163198333Y-69159523D01*
X163245952Y-69254761D01*
X163245952Y-69445238D01*
X163293571Y-69540476D01*
X163341190Y-69588095D01*
X163436428Y-69635714D01*
X163626904Y-69635714D01*
X163722142Y-69588095D01*
X163769761Y-69540476D01*
X163817380Y-69445238D01*
X163817380Y-69254761D01*
X163769761Y-69159523D01*
X163722142Y-69111904D01*
X163626904Y-69064285D01*
X163436428Y-69064285D01*
X163341190Y-69111904D01*
X163293571Y-69159523D01*
X163245952Y-69254761D01*
X163817380Y-101766666D02*
X163341190Y-102100000D01*
X163817380Y-102338095D02*
X162817380Y-102338095D01*
X162817380Y-101957142D01*
X162865000Y-101861904D01*
X162912619Y-101814285D01*
X163007857Y-101766666D01*
X163150714Y-101766666D01*
X163245952Y-101814285D01*
X163293571Y-101861904D01*
X163341190Y-101957142D01*
X163341190Y-102338095D01*
X163817380Y-101290476D02*
X163817380Y-101100000D01*
X163769761Y-101004761D01*
X163722142Y-100957142D01*
X163579285Y-100861904D01*
X163388809Y-100814285D01*
X163007857Y-100814285D01*
X162912619Y-100861904D01*
X162865000Y-100909523D01*
X162817380Y-101004761D01*
X162817380Y-101195238D01*
X162865000Y-101290476D01*
X162912619Y-101338095D01*
X163007857Y-101385714D01*
X163245952Y-101385714D01*
X163341190Y-101338095D01*
X163388809Y-101290476D01*
X163436428Y-101195238D01*
X163436428Y-101004761D01*
X163388809Y-100909523D01*
X163341190Y-100861904D01*
X163245952Y-100814285D01*
X160007380Y-70492857D02*
X159531190Y-70826190D01*
X160007380Y-71064285D02*
X159007380Y-71064285D01*
X159007380Y-70683333D01*
X159055000Y-70588095D01*
X159102619Y-70540476D01*
X159197857Y-70492857D01*
X159340714Y-70492857D01*
X159435952Y-70540476D01*
X159483571Y-70588095D01*
X159531190Y-70683333D01*
X159531190Y-71064285D01*
X160007380Y-69540476D02*
X160007380Y-70111904D01*
X160007380Y-69826190D02*
X159007380Y-69826190D01*
X159150238Y-69921428D01*
X159245476Y-70016666D01*
X159293095Y-70111904D01*
X159007380Y-68921428D02*
X159007380Y-68826190D01*
X159055000Y-68730952D01*
X159102619Y-68683333D01*
X159197857Y-68635714D01*
X159388333Y-68588095D01*
X159626428Y-68588095D01*
X159816904Y-68635714D01*
X159912142Y-68683333D01*
X159959761Y-68730952D01*
X160007380Y-68826190D01*
X160007380Y-68921428D01*
X159959761Y-69016666D01*
X159912142Y-69064285D01*
X159816904Y-69111904D01*
X159626428Y-69159523D01*
X159388333Y-69159523D01*
X159197857Y-69111904D01*
X159102619Y-69064285D01*
X159055000Y-69016666D01*
X159007380Y-68921428D01*
X160642380Y-102242857D02*
X160166190Y-102576190D01*
X160642380Y-102814285D02*
X159642380Y-102814285D01*
X159642380Y-102433333D01*
X159690000Y-102338095D01*
X159737619Y-102290476D01*
X159832857Y-102242857D01*
X159975714Y-102242857D01*
X160070952Y-102290476D01*
X160118571Y-102338095D01*
X160166190Y-102433333D01*
X160166190Y-102814285D01*
X160642380Y-101290476D02*
X160642380Y-101861904D01*
X160642380Y-101576190D02*
X159642380Y-101576190D01*
X159785238Y-101671428D01*
X159880476Y-101766666D01*
X159928095Y-101861904D01*
X160642380Y-100338095D02*
X160642380Y-100909523D01*
X160642380Y-100623809D02*
X159642380Y-100623809D01*
X159785238Y-100719047D01*
X159880476Y-100814285D01*
X159928095Y-100909523D01*
X157467380Y-102242857D02*
X156991190Y-102576190D01*
X157467380Y-102814285D02*
X156467380Y-102814285D01*
X156467380Y-102433333D01*
X156515000Y-102338095D01*
X156562619Y-102290476D01*
X156657857Y-102242857D01*
X156800714Y-102242857D01*
X156895952Y-102290476D01*
X156943571Y-102338095D01*
X156991190Y-102433333D01*
X156991190Y-102814285D01*
X157467380Y-101290476D02*
X157467380Y-101861904D01*
X157467380Y-101576190D02*
X156467380Y-101576190D01*
X156610238Y-101671428D01*
X156705476Y-101766666D01*
X156753095Y-101861904D01*
X156562619Y-100909523D02*
X156515000Y-100861904D01*
X156467380Y-100766666D01*
X156467380Y-100528571D01*
X156515000Y-100433333D01*
X156562619Y-100385714D01*
X156657857Y-100338095D01*
X156753095Y-100338095D01*
X156895952Y-100385714D01*
X157467380Y-100957142D01*
X157467380Y-100338095D01*
X172077142Y-104422380D02*
X171743809Y-103946190D01*
X171505714Y-104422380D02*
X171505714Y-103422380D01*
X171886666Y-103422380D01*
X171981904Y-103470000D01*
X172029523Y-103517619D01*
X172077142Y-103612857D01*
X172077142Y-103755714D01*
X172029523Y-103850952D01*
X171981904Y-103898571D01*
X171886666Y-103946190D01*
X171505714Y-103946190D01*
X173029523Y-104422380D02*
X172458095Y-104422380D01*
X172743809Y-104422380D02*
X172743809Y-103422380D01*
X172648571Y-103565238D01*
X172553333Y-103660476D01*
X172458095Y-103708095D01*
X173362857Y-103422380D02*
X173981904Y-103422380D01*
X173648571Y-103803333D01*
X173791428Y-103803333D01*
X173886666Y-103850952D01*
X173934285Y-103898571D01*
X173981904Y-103993809D01*
X173981904Y-104231904D01*
X173934285Y-104327142D01*
X173886666Y-104374761D01*
X173791428Y-104422380D01*
X173505714Y-104422380D01*
X173410476Y-104374761D01*
X173362857Y-104327142D01*
X171732380Y-112402857D02*
X171256190Y-112736190D01*
X171732380Y-112974285D02*
X170732380Y-112974285D01*
X170732380Y-112593333D01*
X170780000Y-112498095D01*
X170827619Y-112450476D01*
X170922857Y-112402857D01*
X171065714Y-112402857D01*
X171160952Y-112450476D01*
X171208571Y-112498095D01*
X171256190Y-112593333D01*
X171256190Y-112974285D01*
X171732380Y-111450476D02*
X171732380Y-112021904D01*
X171732380Y-111736190D02*
X170732380Y-111736190D01*
X170875238Y-111831428D01*
X170970476Y-111926666D01*
X171018095Y-112021904D01*
X171065714Y-110593333D02*
X171732380Y-110593333D01*
X170684761Y-110831428D02*
X171399047Y-111069523D01*
X171399047Y-110450476D01*
X168262380Y-70492857D02*
X167786190Y-70826190D01*
X168262380Y-71064285D02*
X167262380Y-71064285D01*
X167262380Y-70683333D01*
X167310000Y-70588095D01*
X167357619Y-70540476D01*
X167452857Y-70492857D01*
X167595714Y-70492857D01*
X167690952Y-70540476D01*
X167738571Y-70588095D01*
X167786190Y-70683333D01*
X167786190Y-71064285D01*
X168262380Y-69540476D02*
X168262380Y-70111904D01*
X168262380Y-69826190D02*
X167262380Y-69826190D01*
X167405238Y-69921428D01*
X167500476Y-70016666D01*
X167548095Y-70111904D01*
X167262380Y-68635714D02*
X167262380Y-69111904D01*
X167738571Y-69159523D01*
X167690952Y-69111904D01*
X167643333Y-69016666D01*
X167643333Y-68778571D01*
X167690952Y-68683333D01*
X167738571Y-68635714D01*
X167833809Y-68588095D01*
X168071904Y-68588095D01*
X168167142Y-68635714D01*
X168214761Y-68683333D01*
X168262380Y-68778571D01*
X168262380Y-69016666D01*
X168214761Y-69111904D01*
X168167142Y-69159523D01*
X173342380Y-88272857D02*
X172866190Y-88606190D01*
X173342380Y-88844285D02*
X172342380Y-88844285D01*
X172342380Y-88463333D01*
X172390000Y-88368095D01*
X172437619Y-88320476D01*
X172532857Y-88272857D01*
X172675714Y-88272857D01*
X172770952Y-88320476D01*
X172818571Y-88368095D01*
X172866190Y-88463333D01*
X172866190Y-88844285D01*
X173342380Y-87320476D02*
X173342380Y-87891904D01*
X173342380Y-87606190D02*
X172342380Y-87606190D01*
X172485238Y-87701428D01*
X172580476Y-87796666D01*
X172628095Y-87891904D01*
X172342380Y-86463333D02*
X172342380Y-86653809D01*
X172390000Y-86749047D01*
X172437619Y-86796666D01*
X172580476Y-86891904D01*
X172770952Y-86939523D01*
X173151904Y-86939523D01*
X173247142Y-86891904D01*
X173294761Y-86844285D01*
X173342380Y-86749047D01*
X173342380Y-86558571D01*
X173294761Y-86463333D01*
X173247142Y-86415714D01*
X173151904Y-86368095D01*
X172913809Y-86368095D01*
X172818571Y-86415714D01*
X172770952Y-86463333D01*
X172723333Y-86558571D01*
X172723333Y-86749047D01*
X172770952Y-86844285D01*
X172818571Y-86891904D01*
X172913809Y-86939523D01*
X172072380Y-121292857D02*
X171596190Y-121626190D01*
X172072380Y-121864285D02*
X171072380Y-121864285D01*
X171072380Y-121483333D01*
X171120000Y-121388095D01*
X171167619Y-121340476D01*
X171262857Y-121292857D01*
X171405714Y-121292857D01*
X171500952Y-121340476D01*
X171548571Y-121388095D01*
X171596190Y-121483333D01*
X171596190Y-121864285D01*
X172072380Y-120340476D02*
X172072380Y-120911904D01*
X172072380Y-120626190D02*
X171072380Y-120626190D01*
X171215238Y-120721428D01*
X171310476Y-120816666D01*
X171358095Y-120911904D01*
X171072380Y-120007142D02*
X171072380Y-119340476D01*
X172072380Y-119769047D01*
X178092380Y-86367857D02*
X177616190Y-86701190D01*
X178092380Y-86939285D02*
X177092380Y-86939285D01*
X177092380Y-86558333D01*
X177140000Y-86463095D01*
X177187619Y-86415476D01*
X177282857Y-86367857D01*
X177425714Y-86367857D01*
X177520952Y-86415476D01*
X177568571Y-86463095D01*
X177616190Y-86558333D01*
X177616190Y-86939285D01*
X178092380Y-85415476D02*
X178092380Y-85986904D01*
X178092380Y-85701190D02*
X177092380Y-85701190D01*
X177235238Y-85796428D01*
X177330476Y-85891666D01*
X177378095Y-85986904D01*
X177520952Y-84844047D02*
X177473333Y-84939285D01*
X177425714Y-84986904D01*
X177330476Y-85034523D01*
X177282857Y-85034523D01*
X177187619Y-84986904D01*
X177140000Y-84939285D01*
X177092380Y-84844047D01*
X177092380Y-84653571D01*
X177140000Y-84558333D01*
X177187619Y-84510714D01*
X177282857Y-84463095D01*
X177330476Y-84463095D01*
X177425714Y-84510714D01*
X177473333Y-84558333D01*
X177520952Y-84653571D01*
X177520952Y-84844047D01*
X177568571Y-84939285D01*
X177616190Y-84986904D01*
X177711428Y-85034523D01*
X177901904Y-85034523D01*
X177997142Y-84986904D01*
X178044761Y-84939285D01*
X178092380Y-84844047D01*
X178092380Y-84653571D01*
X178044761Y-84558333D01*
X177997142Y-84510714D01*
X177901904Y-84463095D01*
X177711428Y-84463095D01*
X177616190Y-84510714D01*
X177568571Y-84558333D01*
X177520952Y-84653571D01*
X178092380Y-111767857D02*
X177616190Y-112101190D01*
X178092380Y-112339285D02*
X177092380Y-112339285D01*
X177092380Y-111958333D01*
X177140000Y-111863095D01*
X177187619Y-111815476D01*
X177282857Y-111767857D01*
X177425714Y-111767857D01*
X177520952Y-111815476D01*
X177568571Y-111863095D01*
X177616190Y-111958333D01*
X177616190Y-112339285D01*
X178092380Y-110815476D02*
X178092380Y-111386904D01*
X178092380Y-111101190D02*
X177092380Y-111101190D01*
X177235238Y-111196428D01*
X177330476Y-111291666D01*
X177378095Y-111386904D01*
X178092380Y-110339285D02*
X178092380Y-110148809D01*
X178044761Y-110053571D01*
X177997142Y-110005952D01*
X177854285Y-109910714D01*
X177663809Y-109863095D01*
X177282857Y-109863095D01*
X177187619Y-109910714D01*
X177140000Y-109958333D01*
X177092380Y-110053571D01*
X177092380Y-110244047D01*
X177140000Y-110339285D01*
X177187619Y-110386904D01*
X177282857Y-110434523D01*
X177520952Y-110434523D01*
X177616190Y-110386904D01*
X177663809Y-110339285D01*
X177711428Y-110244047D01*
X177711428Y-110053571D01*
X177663809Y-109958333D01*
X177616190Y-109910714D01*
X177520952Y-109863095D01*
X178482380Y-97115238D02*
X178006190Y-97448571D01*
X178482380Y-97686666D02*
X177482380Y-97686666D01*
X177482380Y-97305714D01*
X177530000Y-97210476D01*
X177577619Y-97162857D01*
X177672857Y-97115238D01*
X177815714Y-97115238D01*
X177910952Y-97162857D01*
X177958571Y-97210476D01*
X178006190Y-97305714D01*
X178006190Y-97686666D01*
X177482380Y-96829523D02*
X178482380Y-96496190D01*
X177482380Y-96162857D01*
X178482380Y-95305714D02*
X178482380Y-95877142D01*
X178482380Y-95591428D02*
X177482380Y-95591428D01*
X177625238Y-95686666D01*
X177720476Y-95781904D01*
X177768095Y-95877142D01*
X168632619Y-80105238D02*
X168585000Y-80200476D01*
X168489761Y-80295714D01*
X168346904Y-80438571D01*
X168299285Y-80533809D01*
X168299285Y-80629047D01*
X168537380Y-80581428D02*
X168489761Y-80676666D01*
X168394523Y-80771904D01*
X168204047Y-80819523D01*
X167870714Y-80819523D01*
X167680238Y-80771904D01*
X167585000Y-80676666D01*
X167537380Y-80581428D01*
X167537380Y-80390952D01*
X167585000Y-80295714D01*
X167680238Y-80200476D01*
X167870714Y-80152857D01*
X168204047Y-80152857D01*
X168394523Y-80200476D01*
X168489761Y-80295714D01*
X168537380Y-80390952D01*
X168537380Y-80581428D01*
X167870714Y-79295714D02*
X168537380Y-79295714D01*
X167489761Y-79533809D02*
X168204047Y-79771904D01*
X168204047Y-79152857D01*
X164822619Y-80105238D02*
X164775000Y-80200476D01*
X164679761Y-80295714D01*
X164536904Y-80438571D01*
X164489285Y-80533809D01*
X164489285Y-80629047D01*
X164727380Y-80581428D02*
X164679761Y-80676666D01*
X164584523Y-80771904D01*
X164394047Y-80819523D01*
X164060714Y-80819523D01*
X163870238Y-80771904D01*
X163775000Y-80676666D01*
X163727380Y-80581428D01*
X163727380Y-80390952D01*
X163775000Y-80295714D01*
X163870238Y-80200476D01*
X164060714Y-80152857D01*
X164394047Y-80152857D01*
X164584523Y-80200476D01*
X164679761Y-80295714D01*
X164727380Y-80390952D01*
X164727380Y-80581428D01*
X163727380Y-79248095D02*
X163727380Y-79724285D01*
X164203571Y-79771904D01*
X164155952Y-79724285D01*
X164108333Y-79629047D01*
X164108333Y-79390952D01*
X164155952Y-79295714D01*
X164203571Y-79248095D01*
X164298809Y-79200476D01*
X164536904Y-79200476D01*
X164632142Y-79248095D01*
X164679761Y-79295714D01*
X164727380Y-79390952D01*
X164727380Y-79629047D01*
X164679761Y-79724285D01*
X164632142Y-79771904D01*
X173077619Y-82645238D02*
X173030000Y-82740476D01*
X172934761Y-82835714D01*
X172791904Y-82978571D01*
X172744285Y-83073809D01*
X172744285Y-83169047D01*
X172982380Y-83121428D02*
X172934761Y-83216666D01*
X172839523Y-83311904D01*
X172649047Y-83359523D01*
X172315714Y-83359523D01*
X172125238Y-83311904D01*
X172030000Y-83216666D01*
X171982380Y-83121428D01*
X171982380Y-82930952D01*
X172030000Y-82835714D01*
X172125238Y-82740476D01*
X172315714Y-82692857D01*
X172649047Y-82692857D01*
X172839523Y-82740476D01*
X172934761Y-82835714D01*
X172982380Y-82930952D01*
X172982380Y-83121428D01*
X171982380Y-82359523D02*
X171982380Y-81692857D01*
X172982380Y-82121428D01*
X150392380Y-121411904D02*
X151201904Y-121411904D01*
X151297142Y-121364285D01*
X151344761Y-121316666D01*
X151392380Y-121221428D01*
X151392380Y-121030952D01*
X151344761Y-120935714D01*
X151297142Y-120888095D01*
X151201904Y-120840476D01*
X150392380Y-120840476D01*
X151392380Y-119840476D02*
X151392380Y-120411904D01*
X151392380Y-120126190D02*
X150392380Y-120126190D01*
X150535238Y-120221428D01*
X150630476Y-120316666D01*
X150678095Y-120411904D01*
X150797380Y-102338095D02*
X149797380Y-102338095D01*
X149797380Y-102100000D01*
X149845000Y-101957142D01*
X149940238Y-101861904D01*
X150035476Y-101814285D01*
X150225952Y-101766666D01*
X150368809Y-101766666D01*
X150559285Y-101814285D01*
X150654523Y-101861904D01*
X150749761Y-101957142D01*
X150797380Y-102100000D01*
X150797380Y-102338095D01*
X150797380Y-100814285D02*
X150797380Y-101385714D01*
X150797380Y-101100000D02*
X149797380Y-101100000D01*
X149940238Y-101195238D01*
X150035476Y-101290476D01*
X150083095Y-101385714D01*
M02*
