G04 #@! TF.GenerationSoftware,KiCad,Pcbnew,(5.1.5)-3*
G04 #@! TF.CreationDate,2020-04-30T13:53:02+02:00*
G04 #@! TF.ProjectId,DiscreteAmp,44697363-7265-4746-9541-6d702e6b6963,rev?*
G04 #@! TF.SameCoordinates,Original*
G04 #@! TF.FileFunction,Copper,L2,Bot*
G04 #@! TF.FilePolarity,Positive*
%FSLAX46Y46*%
G04 Gerber Fmt 4.6, Leading zero omitted, Abs format (unit mm)*
G04 Created by KiCad (PCBNEW (5.1.5)-3) date 2020-04-30 13:53:02*
%MOMM*%
%LPD*%
G04 APERTURE LIST*
%ADD10R,1.600000X1.600000*%
%ADD11C,1.600000*%
%ADD12O,1.800000X2.250000*%
%ADD13C,1.800000*%
%ADD14R,5.999480X5.999480*%
%ADD15C,5.999480*%
%ADD16O,2.250000X1.800000*%
%ADD17O,2.000000X1.800000*%
%ADD18C,2.000000*%
%ADD19C,2.800000*%
%ADD20O,2.800000X2.800000*%
%ADD21O,2.500000X1.800000*%
%ADD22C,1.000000*%
G04 APERTURE END LIST*
D10*
X151130000Y-69850000D03*
D11*
X151130000Y-67350000D03*
D12*
X158750000Y-82550000D03*
X156250000Y-82550000D03*
D13*
X157480000Y-92710000D03*
X153980000Y-92710000D03*
D14*
X150495000Y-83185000D03*
D15*
X150495000Y-75565000D03*
X175895000Y-70485000D03*
X168275000Y-120650000D03*
D16*
X148590000Y-114300000D03*
X148590000Y-109220000D03*
X148590000Y-111760000D03*
X162560000Y-111760000D03*
X162560000Y-109220000D03*
X162560000Y-114300000D03*
X166370000Y-92710000D03*
X166370000Y-90170000D03*
X166370000Y-95250000D03*
X162560000Y-95250000D03*
X162560000Y-90170000D03*
X162560000Y-92710000D03*
X173990000Y-113030000D03*
X173990000Y-107950000D03*
X173990000Y-110490000D03*
X171450000Y-90170000D03*
X171450000Y-87630000D03*
X171450000Y-92710000D03*
D17*
X187960000Y-90805000D03*
X187960000Y-88265000D03*
X187960000Y-85725000D03*
X187960000Y-106045000D03*
X187960000Y-108585000D03*
X187960000Y-111125000D03*
D18*
X157480000Y-73660000D03*
X157480000Y-66040000D03*
X157480000Y-120650000D03*
X157480000Y-113030000D03*
X148590000Y-88900000D03*
X148590000Y-96520000D03*
X148590000Y-99060000D03*
X148590000Y-106680000D03*
X153670000Y-113030000D03*
X153670000Y-120650000D03*
X157480000Y-86360000D03*
X165100000Y-86360000D03*
X162560000Y-124460000D03*
X162560000Y-116840000D03*
X165735000Y-73660000D03*
X165735000Y-66040000D03*
X165735000Y-97790000D03*
X165735000Y-105410000D03*
X161925000Y-66040000D03*
X161925000Y-73660000D03*
X162560000Y-97790000D03*
X162560000Y-105410000D03*
X159385000Y-105410000D03*
X159385000Y-97790000D03*
X168910000Y-101600000D03*
X176530000Y-101600000D03*
X168910000Y-107950000D03*
X168910000Y-115570000D03*
X170180000Y-73660000D03*
X170180000Y-66040000D03*
X175260000Y-91440000D03*
X175260000Y-83820000D03*
X173990000Y-124460000D03*
X173990000Y-116840000D03*
D19*
X181610000Y-95885000D03*
D20*
X181610000Y-75565000D03*
X181610000Y-100965000D03*
D19*
X181610000Y-121285000D03*
D12*
X175260000Y-96520000D03*
X172720000Y-96520000D03*
X170180000Y-96520000D03*
D16*
X165735000Y-77470000D03*
X165735000Y-82550000D03*
X165735000Y-80010000D03*
X161925000Y-80010000D03*
X161925000Y-82550000D03*
X161925000Y-77470000D03*
X170180000Y-82550000D03*
X170180000Y-85090000D03*
X170180000Y-80010000D03*
X148590000Y-118110000D03*
X148590000Y-123190000D03*
X148590000Y-120650000D03*
D21*
X154305000Y-102870000D03*
X154305000Y-100330000D03*
D22*
X150495000Y-70485000D02*
X151130000Y-69850000D01*
X150495000Y-75565000D02*
X150495000Y-70485000D01*
X152440000Y-66040000D02*
X151130000Y-67350000D01*
X157480000Y-66040000D02*
X152440000Y-66040000D01*
X154940000Y-88900000D02*
X157480000Y-86360000D01*
X148590000Y-88900000D02*
X154940000Y-88900000D01*
X157480000Y-73660000D02*
X158750000Y-74930000D01*
X158750000Y-74930000D02*
X158750000Y-80010000D01*
X158750000Y-85090000D02*
X157480000Y-86360000D01*
X158750000Y-80010000D02*
X158750000Y-85090000D01*
X154305000Y-100330000D02*
X154305000Y-97790000D01*
X154305000Y-97790000D02*
X153035000Y-96520000D01*
X150495000Y-99060000D02*
X148590000Y-99060000D01*
X153035000Y-96520000D02*
X150495000Y-99060000D01*
X148590000Y-96520000D02*
X153035000Y-96520000D01*
X153035000Y-93655000D02*
X153980000Y-92710000D01*
X153035000Y-96520000D02*
X153035000Y-93655000D01*
X150495000Y-83185000D02*
X153075000Y-83185000D01*
X149860000Y-83185000D02*
X150495000Y-83185000D01*
X147320000Y-92710000D02*
X146050000Y-91440000D01*
X153035000Y-96520000D02*
X149225000Y-92710000D01*
X146050000Y-91440000D02*
X146050000Y-86995000D01*
X149225000Y-92710000D02*
X147320000Y-92710000D01*
X146050000Y-86995000D02*
X149860000Y-83185000D01*
X151130000Y-82550000D02*
X150495000Y-83185000D01*
X156250000Y-82550000D02*
X151130000Y-82550000D01*
X158385001Y-104410001D02*
X156845000Y-102870000D01*
X159385000Y-105410000D02*
X158385001Y-104410001D01*
X157480000Y-92710000D02*
X156845000Y-93345000D01*
X156845000Y-102870000D02*
X156845000Y-93345000D01*
X154305000Y-102870000D02*
X151130000Y-106045000D01*
X157480000Y-113030000D02*
X157480000Y-112395000D01*
X151130000Y-110490000D02*
X154940000Y-110490000D01*
X154940000Y-110490000D02*
X157480000Y-113030000D01*
X151130000Y-106045000D02*
X151130000Y-110490000D01*
X148590000Y-111760000D02*
X149860000Y-111760000D01*
X149860000Y-111760000D02*
X151130000Y-110490000D01*
X161925000Y-66040000D02*
X170180000Y-66040000D01*
X176530000Y-72390000D02*
X170180000Y-66040000D01*
X176530000Y-78740000D02*
X176530000Y-72390000D01*
X187960000Y-88265000D02*
X186055000Y-88265000D01*
X186055000Y-88265000D02*
X176530000Y-78740000D01*
X180975000Y-101600000D02*
X181610000Y-100965000D01*
X176530000Y-101600000D02*
X180975000Y-101600000D01*
X181610000Y-95885000D02*
X181610000Y-100965000D01*
X152400000Y-114300000D02*
X153670000Y-113030000D01*
X148590000Y-114300000D02*
X152400000Y-114300000D01*
X148590000Y-120650000D02*
X153670000Y-120650000D01*
X162560000Y-111760000D02*
X161290000Y-111760000D01*
X165100000Y-111760000D02*
X168910000Y-115570000D01*
X162560000Y-111760000D02*
X165100000Y-111760000D01*
X162560000Y-109220000D02*
X162560000Y-105410000D01*
X162560000Y-105410000D02*
X165735000Y-105410000D01*
X162560000Y-116840000D02*
X162560000Y-114300000D01*
X166370000Y-92710000D02*
X165735000Y-92710000D01*
X167640000Y-88900000D02*
X167640000Y-82805000D01*
X166370000Y-90170000D02*
X167640000Y-88900000D01*
X170180000Y-82550000D02*
X165735000Y-82550000D01*
X166370000Y-97155000D02*
X165735000Y-97790000D01*
X166370000Y-95250000D02*
X166370000Y-97155000D01*
X161925000Y-89535000D02*
X162560000Y-90170000D01*
X161925000Y-82550000D02*
X161925000Y-89535000D01*
X161925000Y-82550000D02*
X161925000Y-80010000D01*
X165735000Y-80010000D02*
X161925000Y-80010000D01*
X162560000Y-95250000D02*
X162560000Y-97790000D01*
X170180000Y-73660000D02*
X170180000Y-80010000D01*
X173990000Y-85090000D02*
X175260000Y-83820000D01*
X172465000Y-85090000D02*
X173355000Y-85090000D01*
X170180000Y-85090000D02*
X173355000Y-85090000D01*
X173355000Y-85090000D02*
X173990000Y-85090000D01*
X187960000Y-90805000D02*
X179705000Y-90805000D01*
X179070000Y-90170000D02*
X173990000Y-85090000D01*
X179705000Y-90805000D02*
X179070000Y-90170000D01*
X173990000Y-113030000D02*
X173990000Y-116840000D01*
X171450000Y-92710000D02*
X171450000Y-96520000D01*
X172720000Y-96520000D02*
X171450000Y-96520000D01*
X171450000Y-96520000D02*
X170180000Y-96520000D01*
X171450000Y-96520000D02*
X171450000Y-100965000D01*
X171450000Y-100965000D02*
X173990000Y-103505000D01*
X189865000Y-103505000D02*
X184150000Y-103505000D01*
X190500000Y-104140000D02*
X189865000Y-103505000D01*
X173990000Y-104775000D02*
X173990000Y-107950000D01*
X173990000Y-103505000D02*
X173990000Y-104775000D01*
X187960000Y-111125000D02*
X189230000Y-111125000D01*
X182880000Y-104775000D02*
X173990000Y-104775000D01*
X190500000Y-109855000D02*
X190500000Y-104140000D01*
X184150000Y-103505000D02*
X182880000Y-104775000D01*
X189230000Y-111125000D02*
X190500000Y-109855000D01*
X171450000Y-110490000D02*
X168910000Y-107950000D01*
X173990000Y-110490000D02*
X171450000Y-110490000D01*
X173990000Y-90170000D02*
X175260000Y-91440000D01*
X171450000Y-90170000D02*
X173990000Y-90170000D01*
X175260000Y-96520000D02*
X175260000Y-91440000D01*
X187960000Y-81915000D02*
X181610000Y-75565000D01*
X187960000Y-85725000D02*
X187960000Y-81915000D01*
X173990000Y-123328630D02*
X177800000Y-119518630D01*
X173990000Y-124460000D02*
X173990000Y-123328630D01*
X177800000Y-119518630D02*
X177800000Y-112395000D01*
X184150000Y-106045000D02*
X187960000Y-106045000D01*
X177800000Y-112395000D02*
X184150000Y-106045000D01*
X168275000Y-120650000D02*
X168275000Y-124460000D01*
X168275000Y-124460000D02*
X173990000Y-124460000D01*
X154940000Y-123190000D02*
X157480000Y-120650000D01*
X148590000Y-123190000D02*
X154940000Y-123190000D01*
X168275000Y-124460000D02*
X162560000Y-124460000D01*
X156210000Y-124460000D02*
X154940000Y-123190000D01*
X162560000Y-124460000D02*
X156210000Y-124460000D01*
X148590000Y-106680000D02*
X148590000Y-109220000D01*
X153670000Y-120650000D02*
X160020000Y-114300000D01*
X160020000Y-113030000D02*
X161290000Y-111760000D01*
X160020000Y-114300000D02*
X160020000Y-113030000D01*
X165735000Y-92710000D02*
X164465000Y-91440000D01*
X165100000Y-87774213D02*
X165100000Y-86360000D01*
X164465000Y-88409213D02*
X165100000Y-87774213D01*
X164465000Y-91440000D02*
X164465000Y-88409213D01*
X165735000Y-73660000D02*
X165735000Y-77470000D01*
X161925000Y-73660000D02*
X161925000Y-76835000D01*
X159385000Y-94615000D02*
X159385000Y-97790000D01*
X162560000Y-92710000D02*
X161290000Y-92710000D01*
X161290000Y-92710000D02*
X159385000Y-94615000D01*
X159385000Y-99695000D02*
X159385000Y-97790000D01*
X168910000Y-101600000D02*
X161290000Y-101600000D01*
X161290000Y-101600000D02*
X159385000Y-99695000D01*
X173355000Y-85725000D02*
X173355000Y-85090000D01*
X171450000Y-87630000D02*
X173355000Y-85725000D01*
X173355000Y-85725000D02*
X173990000Y-85090000D01*
X181610000Y-121285000D02*
X181610000Y-112395000D01*
X185420000Y-108585000D02*
X187960000Y-108585000D01*
X181610000Y-112395000D02*
X185420000Y-108585000D01*
M02*
