G04 #@! TF.GenerationSoftware,KiCad,Pcbnew,(5.1.5)-3*
G04 #@! TF.CreationDate,2020-04-30T13:53:03+02:00*
G04 #@! TF.ProjectId,DiscreteAmp,44697363-7265-4746-9541-6d702e6b6963,rev?*
G04 #@! TF.SameCoordinates,Original*
G04 #@! TF.FileFunction,Soldermask,Bot*
G04 #@! TF.FilePolarity,Negative*
%FSLAX46Y46*%
G04 Gerber Fmt 4.6, Leading zero omitted, Abs format (unit mm)*
G04 Created by KiCad (PCBNEW (5.1.5)-3) date 2020-04-30 13:53:03*
%MOMM*%
%LPD*%
G04 APERTURE LIST*
%ADD10C,0.100000*%
G04 APERTURE END LIST*
D10*
G36*
X174296564Y-123449389D02*
G01*
X174487833Y-123528615D01*
X174487835Y-123528616D01*
X174659973Y-123643635D01*
X174806365Y-123790027D01*
X174921385Y-123962167D01*
X175000611Y-124153436D01*
X175041000Y-124356484D01*
X175041000Y-124563516D01*
X175000611Y-124766564D01*
X174921385Y-124957833D01*
X174921384Y-124957835D01*
X174806365Y-125129973D01*
X174659973Y-125276365D01*
X174487835Y-125391384D01*
X174487834Y-125391385D01*
X174487833Y-125391385D01*
X174296564Y-125470611D01*
X174093516Y-125511000D01*
X173886484Y-125511000D01*
X173683436Y-125470611D01*
X173492167Y-125391385D01*
X173492166Y-125391385D01*
X173492165Y-125391384D01*
X173320027Y-125276365D01*
X173173635Y-125129973D01*
X173058616Y-124957835D01*
X173058615Y-124957833D01*
X172979389Y-124766564D01*
X172939000Y-124563516D01*
X172939000Y-124356484D01*
X172979389Y-124153436D01*
X173058615Y-123962167D01*
X173173635Y-123790027D01*
X173320027Y-123643635D01*
X173492165Y-123528616D01*
X173492167Y-123528615D01*
X173683436Y-123449389D01*
X173886484Y-123409000D01*
X174093516Y-123409000D01*
X174296564Y-123449389D01*
G37*
G36*
X162866564Y-123449389D02*
G01*
X163057833Y-123528615D01*
X163057835Y-123528616D01*
X163229973Y-123643635D01*
X163376365Y-123790027D01*
X163491385Y-123962167D01*
X163570611Y-124153436D01*
X163611000Y-124356484D01*
X163611000Y-124563516D01*
X163570611Y-124766564D01*
X163491385Y-124957833D01*
X163491384Y-124957835D01*
X163376365Y-125129973D01*
X163229973Y-125276365D01*
X163057835Y-125391384D01*
X163057834Y-125391385D01*
X163057833Y-125391385D01*
X162866564Y-125470611D01*
X162663516Y-125511000D01*
X162456484Y-125511000D01*
X162253436Y-125470611D01*
X162062167Y-125391385D01*
X162062166Y-125391385D01*
X162062165Y-125391384D01*
X161890027Y-125276365D01*
X161743635Y-125129973D01*
X161628616Y-124957835D01*
X161628615Y-124957833D01*
X161549389Y-124766564D01*
X161509000Y-124563516D01*
X161509000Y-124356484D01*
X161549389Y-124153436D01*
X161628615Y-123962167D01*
X161743635Y-123790027D01*
X161890027Y-123643635D01*
X162062165Y-123528616D01*
X162062167Y-123528615D01*
X162253436Y-123449389D01*
X162456484Y-123409000D01*
X162663516Y-123409000D01*
X162866564Y-123449389D01*
G37*
G36*
X149001425Y-122252760D02*
G01*
X149001428Y-122252761D01*
X149001429Y-122252761D01*
X149180693Y-122307140D01*
X149180696Y-122307142D01*
X149180697Y-122307142D01*
X149345903Y-122395446D01*
X149490712Y-122514288D01*
X149609554Y-122659097D01*
X149650659Y-122736000D01*
X149697860Y-122824307D01*
X149752239Y-123003571D01*
X149752240Y-123003575D01*
X149770601Y-123190000D01*
X149752240Y-123376425D01*
X149752239Y-123376428D01*
X149752239Y-123376429D01*
X149697860Y-123555693D01*
X149697858Y-123555696D01*
X149697858Y-123555697D01*
X149609554Y-123720903D01*
X149490712Y-123865712D01*
X149345903Y-123984554D01*
X149180697Y-124072858D01*
X149180693Y-124072860D01*
X149001429Y-124127239D01*
X149001428Y-124127239D01*
X149001425Y-124127240D01*
X148861718Y-124141000D01*
X148318282Y-124141000D01*
X148178575Y-124127240D01*
X148178572Y-124127239D01*
X148178571Y-124127239D01*
X147999307Y-124072860D01*
X147999303Y-124072858D01*
X147834097Y-123984554D01*
X147689288Y-123865712D01*
X147570446Y-123720903D01*
X147482142Y-123555697D01*
X147482142Y-123555696D01*
X147482140Y-123555693D01*
X147427761Y-123376429D01*
X147427761Y-123376428D01*
X147427760Y-123376425D01*
X147409399Y-123190000D01*
X147427760Y-123003575D01*
X147427761Y-123003571D01*
X147482140Y-122824307D01*
X147529341Y-122736000D01*
X147570446Y-122659097D01*
X147689288Y-122514288D01*
X147834097Y-122395446D01*
X147999303Y-122307142D01*
X147999304Y-122307142D01*
X147999307Y-122307140D01*
X148178571Y-122252761D01*
X148178572Y-122252761D01*
X148178575Y-122252760D01*
X148318282Y-122239000D01*
X148861718Y-122239000D01*
X149001425Y-122252760D01*
G37*
G36*
X168862559Y-117656365D02*
G01*
X169164868Y-117716498D01*
X169720067Y-117946469D01*
X169964808Y-118110000D01*
X170219733Y-118280335D01*
X170644665Y-118705267D01*
X170698416Y-118785712D01*
X170978531Y-119204933D01*
X171208502Y-119760132D01*
X171234287Y-119889761D01*
X171325740Y-120349527D01*
X171325740Y-120950473D01*
X171267121Y-121245170D01*
X171208502Y-121539868D01*
X170978531Y-122095067D01*
X170787565Y-122380867D01*
X170644665Y-122594733D01*
X170219733Y-123019665D01*
X170005867Y-123162565D01*
X169720067Y-123353531D01*
X169164868Y-123583502D01*
X168870170Y-123642121D01*
X168575473Y-123700740D01*
X167974527Y-123700740D01*
X167679830Y-123642121D01*
X167385132Y-123583502D01*
X166829933Y-123353531D01*
X166544133Y-123162565D01*
X166330267Y-123019665D01*
X165905335Y-122594733D01*
X165762435Y-122380867D01*
X165571469Y-122095067D01*
X165341498Y-121539868D01*
X165282879Y-121245170D01*
X165224260Y-120950473D01*
X165224260Y-120349527D01*
X165315713Y-119889761D01*
X165341498Y-119760132D01*
X165571469Y-119204933D01*
X165851584Y-118785712D01*
X165905335Y-118705267D01*
X166330267Y-118280335D01*
X166585192Y-118110000D01*
X166829933Y-117946469D01*
X167385132Y-117716498D01*
X167687441Y-117656365D01*
X167974527Y-117599260D01*
X168575473Y-117599260D01*
X168862559Y-117656365D01*
G37*
G36*
X182033241Y-119889760D02*
G01*
X182297305Y-119999139D01*
X182534958Y-120157934D01*
X182737066Y-120360042D01*
X182895861Y-120597695D01*
X183005240Y-120861759D01*
X183061000Y-121142088D01*
X183061000Y-121427912D01*
X183005240Y-121708241D01*
X182895861Y-121972305D01*
X182737066Y-122209958D01*
X182534958Y-122412066D01*
X182297305Y-122570861D01*
X182033241Y-122680240D01*
X181752912Y-122736000D01*
X181467088Y-122736000D01*
X181186759Y-122680240D01*
X180922695Y-122570861D01*
X180685042Y-122412066D01*
X180482934Y-122209958D01*
X180324139Y-121972305D01*
X180214760Y-121708241D01*
X180159000Y-121427912D01*
X180159000Y-121142088D01*
X180214760Y-120861759D01*
X180324139Y-120597695D01*
X180482934Y-120360042D01*
X180685042Y-120157934D01*
X180922695Y-119999139D01*
X181186759Y-119889760D01*
X181467088Y-119834000D01*
X181752912Y-119834000D01*
X182033241Y-119889760D01*
G37*
G36*
X157786564Y-119639389D02*
G01*
X157963700Y-119712761D01*
X157977835Y-119718616D01*
X158149973Y-119833635D01*
X158296365Y-119980027D01*
X158389289Y-120119097D01*
X158411385Y-120152167D01*
X158490611Y-120343436D01*
X158531000Y-120546484D01*
X158531000Y-120753516D01*
X158490611Y-120956564D01*
X158413764Y-121142089D01*
X158411384Y-121147835D01*
X158296365Y-121319973D01*
X158149973Y-121466365D01*
X157977835Y-121581384D01*
X157977834Y-121581385D01*
X157977833Y-121581385D01*
X157786564Y-121660611D01*
X157583516Y-121701000D01*
X157376484Y-121701000D01*
X157173436Y-121660611D01*
X156982167Y-121581385D01*
X156982166Y-121581385D01*
X156982165Y-121581384D01*
X156810027Y-121466365D01*
X156663635Y-121319973D01*
X156548616Y-121147835D01*
X156546236Y-121142089D01*
X156469389Y-120956564D01*
X156429000Y-120753516D01*
X156429000Y-120546484D01*
X156469389Y-120343436D01*
X156548615Y-120152167D01*
X156570712Y-120119097D01*
X156663635Y-119980027D01*
X156810027Y-119833635D01*
X156982165Y-119718616D01*
X156996300Y-119712761D01*
X157173436Y-119639389D01*
X157376484Y-119599000D01*
X157583516Y-119599000D01*
X157786564Y-119639389D01*
G37*
G36*
X153976564Y-119639389D02*
G01*
X154153700Y-119712761D01*
X154167835Y-119718616D01*
X154339973Y-119833635D01*
X154486365Y-119980027D01*
X154579289Y-120119097D01*
X154601385Y-120152167D01*
X154680611Y-120343436D01*
X154721000Y-120546484D01*
X154721000Y-120753516D01*
X154680611Y-120956564D01*
X154603764Y-121142089D01*
X154601384Y-121147835D01*
X154486365Y-121319973D01*
X154339973Y-121466365D01*
X154167835Y-121581384D01*
X154167834Y-121581385D01*
X154167833Y-121581385D01*
X153976564Y-121660611D01*
X153773516Y-121701000D01*
X153566484Y-121701000D01*
X153363436Y-121660611D01*
X153172167Y-121581385D01*
X153172166Y-121581385D01*
X153172165Y-121581384D01*
X153000027Y-121466365D01*
X152853635Y-121319973D01*
X152738616Y-121147835D01*
X152736236Y-121142089D01*
X152659389Y-120956564D01*
X152619000Y-120753516D01*
X152619000Y-120546484D01*
X152659389Y-120343436D01*
X152738615Y-120152167D01*
X152760712Y-120119097D01*
X152853635Y-119980027D01*
X153000027Y-119833635D01*
X153172165Y-119718616D01*
X153186300Y-119712761D01*
X153363436Y-119639389D01*
X153566484Y-119599000D01*
X153773516Y-119599000D01*
X153976564Y-119639389D01*
G37*
G36*
X149001425Y-119712760D02*
G01*
X149001428Y-119712761D01*
X149001429Y-119712761D01*
X149180693Y-119767140D01*
X149180696Y-119767142D01*
X149180697Y-119767142D01*
X149345903Y-119855446D01*
X149490712Y-119974288D01*
X149609554Y-120119097D01*
X149697858Y-120284303D01*
X149697860Y-120284307D01*
X149752239Y-120463571D01*
X149752240Y-120463575D01*
X149770601Y-120650000D01*
X149752240Y-120836425D01*
X149752239Y-120836428D01*
X149752239Y-120836429D01*
X149697860Y-121015693D01*
X149697858Y-121015696D01*
X149697858Y-121015697D01*
X149609554Y-121180903D01*
X149490712Y-121325712D01*
X149345903Y-121444554D01*
X149180697Y-121532858D01*
X149180693Y-121532860D01*
X149001429Y-121587239D01*
X149001428Y-121587239D01*
X149001425Y-121587240D01*
X148861718Y-121601000D01*
X148318282Y-121601000D01*
X148178575Y-121587240D01*
X148178572Y-121587239D01*
X148178571Y-121587239D01*
X147999307Y-121532860D01*
X147999303Y-121532858D01*
X147834097Y-121444554D01*
X147689288Y-121325712D01*
X147570446Y-121180903D01*
X147482142Y-121015697D01*
X147482142Y-121015696D01*
X147482140Y-121015693D01*
X147427761Y-120836429D01*
X147427761Y-120836428D01*
X147427760Y-120836425D01*
X147409399Y-120650000D01*
X147427760Y-120463575D01*
X147427761Y-120463571D01*
X147482140Y-120284307D01*
X147482142Y-120284303D01*
X147570446Y-120119097D01*
X147689288Y-119974288D01*
X147834097Y-119855446D01*
X147999303Y-119767142D01*
X147999304Y-119767142D01*
X147999307Y-119767140D01*
X148178571Y-119712761D01*
X148178572Y-119712761D01*
X148178575Y-119712760D01*
X148318282Y-119699000D01*
X148861718Y-119699000D01*
X149001425Y-119712760D01*
G37*
G36*
X149001425Y-117172760D02*
G01*
X149001428Y-117172761D01*
X149001429Y-117172761D01*
X149180693Y-117227140D01*
X149180696Y-117227142D01*
X149180697Y-117227142D01*
X149345903Y-117315446D01*
X149490712Y-117434288D01*
X149609554Y-117579097D01*
X149650854Y-117656365D01*
X149697860Y-117744307D01*
X149752239Y-117923571D01*
X149752240Y-117923575D01*
X149770601Y-118110000D01*
X149752240Y-118296425D01*
X149752239Y-118296428D01*
X149752239Y-118296429D01*
X149697860Y-118475693D01*
X149697858Y-118475696D01*
X149697858Y-118475697D01*
X149609554Y-118640903D01*
X149490712Y-118785712D01*
X149345903Y-118904554D01*
X149180697Y-118992858D01*
X149180693Y-118992860D01*
X149001429Y-119047239D01*
X149001428Y-119047239D01*
X149001425Y-119047240D01*
X148861718Y-119061000D01*
X148318282Y-119061000D01*
X148178575Y-119047240D01*
X148178572Y-119047239D01*
X148178571Y-119047239D01*
X147999307Y-118992860D01*
X147999303Y-118992858D01*
X147834097Y-118904554D01*
X147689288Y-118785712D01*
X147570446Y-118640903D01*
X147482142Y-118475697D01*
X147482142Y-118475696D01*
X147482140Y-118475693D01*
X147427761Y-118296429D01*
X147427761Y-118296428D01*
X147427760Y-118296425D01*
X147409399Y-118110000D01*
X147427760Y-117923575D01*
X147427761Y-117923571D01*
X147482140Y-117744307D01*
X147529146Y-117656365D01*
X147570446Y-117579097D01*
X147689288Y-117434288D01*
X147834097Y-117315446D01*
X147999303Y-117227142D01*
X147999304Y-117227142D01*
X147999307Y-117227140D01*
X148178571Y-117172761D01*
X148178572Y-117172761D01*
X148178575Y-117172760D01*
X148318282Y-117159000D01*
X148861718Y-117159000D01*
X149001425Y-117172760D01*
G37*
G36*
X174296564Y-115829389D02*
G01*
X174487833Y-115908615D01*
X174487835Y-115908616D01*
X174659973Y-116023635D01*
X174806365Y-116170027D01*
X174921385Y-116342167D01*
X175000611Y-116533436D01*
X175041000Y-116736484D01*
X175041000Y-116943516D01*
X175000611Y-117146564D01*
X174921385Y-117337833D01*
X174921384Y-117337835D01*
X174806365Y-117509973D01*
X174659973Y-117656365D01*
X174487835Y-117771384D01*
X174487834Y-117771385D01*
X174487833Y-117771385D01*
X174296564Y-117850611D01*
X174093516Y-117891000D01*
X173886484Y-117891000D01*
X173683436Y-117850611D01*
X173492167Y-117771385D01*
X173492166Y-117771385D01*
X173492165Y-117771384D01*
X173320027Y-117656365D01*
X173173635Y-117509973D01*
X173058616Y-117337835D01*
X173058615Y-117337833D01*
X172979389Y-117146564D01*
X172939000Y-116943516D01*
X172939000Y-116736484D01*
X172979389Y-116533436D01*
X173058615Y-116342167D01*
X173173635Y-116170027D01*
X173320027Y-116023635D01*
X173492165Y-115908616D01*
X173492167Y-115908615D01*
X173683436Y-115829389D01*
X173886484Y-115789000D01*
X174093516Y-115789000D01*
X174296564Y-115829389D01*
G37*
G36*
X162866564Y-115829389D02*
G01*
X163057833Y-115908615D01*
X163057835Y-115908616D01*
X163229973Y-116023635D01*
X163376365Y-116170027D01*
X163491385Y-116342167D01*
X163570611Y-116533436D01*
X163611000Y-116736484D01*
X163611000Y-116943516D01*
X163570611Y-117146564D01*
X163491385Y-117337833D01*
X163491384Y-117337835D01*
X163376365Y-117509973D01*
X163229973Y-117656365D01*
X163057835Y-117771384D01*
X163057834Y-117771385D01*
X163057833Y-117771385D01*
X162866564Y-117850611D01*
X162663516Y-117891000D01*
X162456484Y-117891000D01*
X162253436Y-117850611D01*
X162062167Y-117771385D01*
X162062166Y-117771385D01*
X162062165Y-117771384D01*
X161890027Y-117656365D01*
X161743635Y-117509973D01*
X161628616Y-117337835D01*
X161628615Y-117337833D01*
X161549389Y-117146564D01*
X161509000Y-116943516D01*
X161509000Y-116736484D01*
X161549389Y-116533436D01*
X161628615Y-116342167D01*
X161743635Y-116170027D01*
X161890027Y-116023635D01*
X162062165Y-115908616D01*
X162062167Y-115908615D01*
X162253436Y-115829389D01*
X162456484Y-115789000D01*
X162663516Y-115789000D01*
X162866564Y-115829389D01*
G37*
G36*
X169216564Y-114559389D02*
G01*
X169407833Y-114638615D01*
X169407835Y-114638616D01*
X169579973Y-114753635D01*
X169726365Y-114900027D01*
X169841385Y-115072167D01*
X169920611Y-115263436D01*
X169961000Y-115466484D01*
X169961000Y-115673516D01*
X169920611Y-115876564D01*
X169859692Y-116023635D01*
X169841384Y-116067835D01*
X169726365Y-116239973D01*
X169579973Y-116386365D01*
X169407835Y-116501384D01*
X169407834Y-116501385D01*
X169407833Y-116501385D01*
X169216564Y-116580611D01*
X169013516Y-116621000D01*
X168806484Y-116621000D01*
X168603436Y-116580611D01*
X168412167Y-116501385D01*
X168412166Y-116501385D01*
X168412165Y-116501384D01*
X168240027Y-116386365D01*
X168093635Y-116239973D01*
X167978616Y-116067835D01*
X167960308Y-116023635D01*
X167899389Y-115876564D01*
X167859000Y-115673516D01*
X167859000Y-115466484D01*
X167899389Y-115263436D01*
X167978615Y-115072167D01*
X168093635Y-114900027D01*
X168240027Y-114753635D01*
X168412165Y-114638616D01*
X168412167Y-114638615D01*
X168603436Y-114559389D01*
X168806484Y-114519000D01*
X169013516Y-114519000D01*
X169216564Y-114559389D01*
G37*
G36*
X149001425Y-113362760D02*
G01*
X149001428Y-113362761D01*
X149001429Y-113362761D01*
X149180693Y-113417140D01*
X149180696Y-113417142D01*
X149180697Y-113417142D01*
X149345903Y-113505446D01*
X149490712Y-113624288D01*
X149609554Y-113769097D01*
X149697858Y-113934303D01*
X149697860Y-113934307D01*
X149752239Y-114113571D01*
X149752240Y-114113575D01*
X149770601Y-114300000D01*
X149752240Y-114486425D01*
X149752239Y-114486428D01*
X149752239Y-114486429D01*
X149697860Y-114665693D01*
X149697858Y-114665696D01*
X149697858Y-114665697D01*
X149609554Y-114830903D01*
X149490712Y-114975712D01*
X149345903Y-115094554D01*
X149180697Y-115182858D01*
X149180693Y-115182860D01*
X149001429Y-115237239D01*
X149001428Y-115237239D01*
X149001425Y-115237240D01*
X148861718Y-115251000D01*
X148318282Y-115251000D01*
X148178575Y-115237240D01*
X148178572Y-115237239D01*
X148178571Y-115237239D01*
X147999307Y-115182860D01*
X147999303Y-115182858D01*
X147834097Y-115094554D01*
X147689288Y-114975712D01*
X147570446Y-114830903D01*
X147482142Y-114665697D01*
X147482142Y-114665696D01*
X147482140Y-114665693D01*
X147427761Y-114486429D01*
X147427761Y-114486428D01*
X147427760Y-114486425D01*
X147409399Y-114300000D01*
X147427760Y-114113575D01*
X147427761Y-114113571D01*
X147482140Y-113934307D01*
X147482142Y-113934303D01*
X147570446Y-113769097D01*
X147689288Y-113624288D01*
X147834097Y-113505446D01*
X147999303Y-113417142D01*
X147999304Y-113417142D01*
X147999307Y-113417140D01*
X148178571Y-113362761D01*
X148178572Y-113362761D01*
X148178575Y-113362760D01*
X148318282Y-113349000D01*
X148861718Y-113349000D01*
X149001425Y-113362760D01*
G37*
G36*
X162971425Y-113362760D02*
G01*
X162971428Y-113362761D01*
X162971429Y-113362761D01*
X163150693Y-113417140D01*
X163150696Y-113417142D01*
X163150697Y-113417142D01*
X163315903Y-113505446D01*
X163460712Y-113624288D01*
X163579554Y-113769097D01*
X163667858Y-113934303D01*
X163667860Y-113934307D01*
X163722239Y-114113571D01*
X163722240Y-114113575D01*
X163740601Y-114300000D01*
X163722240Y-114486425D01*
X163722239Y-114486428D01*
X163722239Y-114486429D01*
X163667860Y-114665693D01*
X163667858Y-114665696D01*
X163667858Y-114665697D01*
X163579554Y-114830903D01*
X163460712Y-114975712D01*
X163315903Y-115094554D01*
X163150697Y-115182858D01*
X163150693Y-115182860D01*
X162971429Y-115237239D01*
X162971428Y-115237239D01*
X162971425Y-115237240D01*
X162831718Y-115251000D01*
X162288282Y-115251000D01*
X162148575Y-115237240D01*
X162148572Y-115237239D01*
X162148571Y-115237239D01*
X161969307Y-115182860D01*
X161969303Y-115182858D01*
X161804097Y-115094554D01*
X161659288Y-114975712D01*
X161540446Y-114830903D01*
X161452142Y-114665697D01*
X161452142Y-114665696D01*
X161452140Y-114665693D01*
X161397761Y-114486429D01*
X161397761Y-114486428D01*
X161397760Y-114486425D01*
X161379399Y-114300000D01*
X161397760Y-114113575D01*
X161397761Y-114113571D01*
X161452140Y-113934307D01*
X161452142Y-113934303D01*
X161540446Y-113769097D01*
X161659288Y-113624288D01*
X161804097Y-113505446D01*
X161969303Y-113417142D01*
X161969304Y-113417142D01*
X161969307Y-113417140D01*
X162148571Y-113362761D01*
X162148572Y-113362761D01*
X162148575Y-113362760D01*
X162288282Y-113349000D01*
X162831718Y-113349000D01*
X162971425Y-113362760D01*
G37*
G36*
X157786564Y-112019389D02*
G01*
X157963700Y-112092761D01*
X157977835Y-112098616D01*
X158149973Y-112213635D01*
X158296365Y-112360027D01*
X158389289Y-112499097D01*
X158411385Y-112532167D01*
X158490611Y-112723436D01*
X158531000Y-112926484D01*
X158531000Y-113133516D01*
X158490611Y-113336564D01*
X158411385Y-113527833D01*
X158411384Y-113527835D01*
X158296365Y-113699973D01*
X158149973Y-113846365D01*
X157977835Y-113961384D01*
X157977834Y-113961385D01*
X157977833Y-113961385D01*
X157786564Y-114040611D01*
X157583516Y-114081000D01*
X157376484Y-114081000D01*
X157173436Y-114040611D01*
X156982167Y-113961385D01*
X156982166Y-113961385D01*
X156982165Y-113961384D01*
X156810027Y-113846365D01*
X156663635Y-113699973D01*
X156548616Y-113527835D01*
X156548615Y-113527833D01*
X156469389Y-113336564D01*
X156429000Y-113133516D01*
X156429000Y-112926484D01*
X156469389Y-112723436D01*
X156548615Y-112532167D01*
X156570712Y-112499097D01*
X156663635Y-112360027D01*
X156810027Y-112213635D01*
X156982165Y-112098616D01*
X156996300Y-112092761D01*
X157173436Y-112019389D01*
X157376484Y-111979000D01*
X157583516Y-111979000D01*
X157786564Y-112019389D01*
G37*
G36*
X153976564Y-112019389D02*
G01*
X154153700Y-112092761D01*
X154167835Y-112098616D01*
X154339973Y-112213635D01*
X154486365Y-112360027D01*
X154579289Y-112499097D01*
X154601385Y-112532167D01*
X154680611Y-112723436D01*
X154721000Y-112926484D01*
X154721000Y-113133516D01*
X154680611Y-113336564D01*
X154601385Y-113527833D01*
X154601384Y-113527835D01*
X154486365Y-113699973D01*
X154339973Y-113846365D01*
X154167835Y-113961384D01*
X154167834Y-113961385D01*
X154167833Y-113961385D01*
X153976564Y-114040611D01*
X153773516Y-114081000D01*
X153566484Y-114081000D01*
X153363436Y-114040611D01*
X153172167Y-113961385D01*
X153172166Y-113961385D01*
X153172165Y-113961384D01*
X153000027Y-113846365D01*
X152853635Y-113699973D01*
X152738616Y-113527835D01*
X152738615Y-113527833D01*
X152659389Y-113336564D01*
X152619000Y-113133516D01*
X152619000Y-112926484D01*
X152659389Y-112723436D01*
X152738615Y-112532167D01*
X152760712Y-112499097D01*
X152853635Y-112360027D01*
X153000027Y-112213635D01*
X153172165Y-112098616D01*
X153186300Y-112092761D01*
X153363436Y-112019389D01*
X153566484Y-111979000D01*
X153773516Y-111979000D01*
X153976564Y-112019389D01*
G37*
G36*
X174401425Y-112092760D02*
G01*
X174401428Y-112092761D01*
X174401429Y-112092761D01*
X174580693Y-112147140D01*
X174580696Y-112147142D01*
X174580697Y-112147142D01*
X174745903Y-112235446D01*
X174890712Y-112354288D01*
X175009554Y-112499097D01*
X175097858Y-112664303D01*
X175097860Y-112664307D01*
X175152239Y-112843571D01*
X175152240Y-112843575D01*
X175170601Y-113030000D01*
X175152240Y-113216425D01*
X175152239Y-113216428D01*
X175152239Y-113216429D01*
X175097860Y-113395693D01*
X175097858Y-113395696D01*
X175097858Y-113395697D01*
X175009554Y-113560903D01*
X174890712Y-113705712D01*
X174745903Y-113824554D01*
X174580697Y-113912858D01*
X174580693Y-113912860D01*
X174401429Y-113967239D01*
X174401428Y-113967239D01*
X174401425Y-113967240D01*
X174261718Y-113981000D01*
X173718282Y-113981000D01*
X173578575Y-113967240D01*
X173578572Y-113967239D01*
X173578571Y-113967239D01*
X173399307Y-113912860D01*
X173399303Y-113912858D01*
X173234097Y-113824554D01*
X173089288Y-113705712D01*
X172970446Y-113560903D01*
X172882142Y-113395697D01*
X172882142Y-113395696D01*
X172882140Y-113395693D01*
X172827761Y-113216429D01*
X172827761Y-113216428D01*
X172827760Y-113216425D01*
X172809399Y-113030000D01*
X172827760Y-112843575D01*
X172827761Y-112843571D01*
X172882140Y-112664307D01*
X172882142Y-112664303D01*
X172970446Y-112499097D01*
X173089288Y-112354288D01*
X173234097Y-112235446D01*
X173399303Y-112147142D01*
X173399304Y-112147142D01*
X173399307Y-112147140D01*
X173578571Y-112092761D01*
X173578572Y-112092761D01*
X173578575Y-112092760D01*
X173718282Y-112079000D01*
X174261718Y-112079000D01*
X174401425Y-112092760D01*
G37*
G36*
X162971425Y-110822760D02*
G01*
X162971428Y-110822761D01*
X162971429Y-110822761D01*
X163150693Y-110877140D01*
X163150696Y-110877142D01*
X163150697Y-110877142D01*
X163315903Y-110965446D01*
X163460712Y-111084288D01*
X163579554Y-111229097D01*
X163667858Y-111394303D01*
X163667860Y-111394307D01*
X163722239Y-111573571D01*
X163722240Y-111573575D01*
X163740601Y-111760000D01*
X163722240Y-111946425D01*
X163722239Y-111946428D01*
X163722239Y-111946429D01*
X163667860Y-112125693D01*
X163667858Y-112125696D01*
X163667858Y-112125697D01*
X163579554Y-112290903D01*
X163460712Y-112435712D01*
X163315903Y-112554554D01*
X163150697Y-112642858D01*
X163150693Y-112642860D01*
X162971429Y-112697239D01*
X162971428Y-112697239D01*
X162971425Y-112697240D01*
X162831718Y-112711000D01*
X162288282Y-112711000D01*
X162148575Y-112697240D01*
X162148572Y-112697239D01*
X162148571Y-112697239D01*
X161969307Y-112642860D01*
X161969303Y-112642858D01*
X161804097Y-112554554D01*
X161659288Y-112435712D01*
X161540446Y-112290903D01*
X161452142Y-112125697D01*
X161452142Y-112125696D01*
X161452140Y-112125693D01*
X161397761Y-111946429D01*
X161397761Y-111946428D01*
X161397760Y-111946425D01*
X161379399Y-111760000D01*
X161397760Y-111573575D01*
X161397761Y-111573571D01*
X161452140Y-111394307D01*
X161452142Y-111394303D01*
X161540446Y-111229097D01*
X161659288Y-111084288D01*
X161804097Y-110965446D01*
X161969303Y-110877142D01*
X161969304Y-110877142D01*
X161969307Y-110877140D01*
X162148571Y-110822761D01*
X162148572Y-110822761D01*
X162148575Y-110822760D01*
X162288282Y-110809000D01*
X162831718Y-110809000D01*
X162971425Y-110822760D01*
G37*
G36*
X149001425Y-110822760D02*
G01*
X149001428Y-110822761D01*
X149001429Y-110822761D01*
X149180693Y-110877140D01*
X149180696Y-110877142D01*
X149180697Y-110877142D01*
X149345903Y-110965446D01*
X149490712Y-111084288D01*
X149609554Y-111229097D01*
X149697858Y-111394303D01*
X149697860Y-111394307D01*
X149752239Y-111573571D01*
X149752240Y-111573575D01*
X149770601Y-111760000D01*
X149752240Y-111946425D01*
X149752239Y-111946428D01*
X149752239Y-111946429D01*
X149697860Y-112125693D01*
X149697858Y-112125696D01*
X149697858Y-112125697D01*
X149609554Y-112290903D01*
X149490712Y-112435712D01*
X149345903Y-112554554D01*
X149180697Y-112642858D01*
X149180693Y-112642860D01*
X149001429Y-112697239D01*
X149001428Y-112697239D01*
X149001425Y-112697240D01*
X148861718Y-112711000D01*
X148318282Y-112711000D01*
X148178575Y-112697240D01*
X148178572Y-112697239D01*
X148178571Y-112697239D01*
X147999307Y-112642860D01*
X147999303Y-112642858D01*
X147834097Y-112554554D01*
X147689288Y-112435712D01*
X147570446Y-112290903D01*
X147482142Y-112125697D01*
X147482142Y-112125696D01*
X147482140Y-112125693D01*
X147427761Y-111946429D01*
X147427761Y-111946428D01*
X147427760Y-111946425D01*
X147409399Y-111760000D01*
X147427760Y-111573575D01*
X147427761Y-111573571D01*
X147482140Y-111394307D01*
X147482142Y-111394303D01*
X147570446Y-111229097D01*
X147689288Y-111084288D01*
X147834097Y-110965446D01*
X147999303Y-110877142D01*
X147999304Y-110877142D01*
X147999307Y-110877140D01*
X148178571Y-110822761D01*
X148178572Y-110822761D01*
X148178575Y-110822760D01*
X148318282Y-110809000D01*
X148861718Y-110809000D01*
X149001425Y-110822760D01*
G37*
G36*
X188246425Y-110187760D02*
G01*
X188246428Y-110187761D01*
X188246429Y-110187761D01*
X188425693Y-110242140D01*
X188425696Y-110242142D01*
X188425697Y-110242142D01*
X188590903Y-110330446D01*
X188735712Y-110449288D01*
X188854554Y-110594097D01*
X188898561Y-110676429D01*
X188942860Y-110759307D01*
X188997239Y-110938571D01*
X188997240Y-110938575D01*
X189015601Y-111125000D01*
X188997240Y-111311425D01*
X188997239Y-111311428D01*
X188997239Y-111311429D01*
X188942860Y-111490693D01*
X188942858Y-111490696D01*
X188942858Y-111490697D01*
X188854554Y-111655903D01*
X188735712Y-111800712D01*
X188590903Y-111919554D01*
X188425697Y-112007858D01*
X188425693Y-112007860D01*
X188246429Y-112062239D01*
X188246428Y-112062239D01*
X188246425Y-112062240D01*
X188106718Y-112076000D01*
X187813282Y-112076000D01*
X187673575Y-112062240D01*
X187673572Y-112062239D01*
X187673571Y-112062239D01*
X187494307Y-112007860D01*
X187494303Y-112007858D01*
X187329097Y-111919554D01*
X187184288Y-111800712D01*
X187065446Y-111655903D01*
X186977142Y-111490697D01*
X186977142Y-111490696D01*
X186977140Y-111490693D01*
X186922761Y-111311429D01*
X186922761Y-111311428D01*
X186922760Y-111311425D01*
X186904399Y-111125000D01*
X186922760Y-110938575D01*
X186922761Y-110938571D01*
X186977140Y-110759307D01*
X187021439Y-110676429D01*
X187065446Y-110594097D01*
X187184288Y-110449288D01*
X187329097Y-110330446D01*
X187494303Y-110242142D01*
X187494304Y-110242142D01*
X187494307Y-110242140D01*
X187673571Y-110187761D01*
X187673572Y-110187761D01*
X187673575Y-110187760D01*
X187813282Y-110174000D01*
X188106718Y-110174000D01*
X188246425Y-110187760D01*
G37*
G36*
X174401425Y-109552760D02*
G01*
X174401428Y-109552761D01*
X174401429Y-109552761D01*
X174580693Y-109607140D01*
X174580696Y-109607142D01*
X174580697Y-109607142D01*
X174745903Y-109695446D01*
X174890712Y-109814288D01*
X175009554Y-109959097D01*
X175097858Y-110124303D01*
X175097860Y-110124307D01*
X175152239Y-110303571D01*
X175152240Y-110303575D01*
X175170601Y-110490000D01*
X175152240Y-110676425D01*
X175152239Y-110676428D01*
X175152239Y-110676429D01*
X175097860Y-110855693D01*
X175097858Y-110855696D01*
X175097858Y-110855697D01*
X175009554Y-111020903D01*
X174890712Y-111165712D01*
X174745903Y-111284554D01*
X174580697Y-111372858D01*
X174580693Y-111372860D01*
X174401429Y-111427239D01*
X174401428Y-111427239D01*
X174401425Y-111427240D01*
X174261718Y-111441000D01*
X173718282Y-111441000D01*
X173578575Y-111427240D01*
X173578572Y-111427239D01*
X173578571Y-111427239D01*
X173399307Y-111372860D01*
X173399303Y-111372858D01*
X173234097Y-111284554D01*
X173089288Y-111165712D01*
X172970446Y-111020903D01*
X172882142Y-110855697D01*
X172882142Y-110855696D01*
X172882140Y-110855693D01*
X172827761Y-110676429D01*
X172827761Y-110676428D01*
X172827760Y-110676425D01*
X172809399Y-110490000D01*
X172827760Y-110303575D01*
X172827761Y-110303571D01*
X172882140Y-110124307D01*
X172882142Y-110124303D01*
X172970446Y-109959097D01*
X173089288Y-109814288D01*
X173234097Y-109695446D01*
X173399303Y-109607142D01*
X173399304Y-109607142D01*
X173399307Y-109607140D01*
X173578571Y-109552761D01*
X173578572Y-109552761D01*
X173578575Y-109552760D01*
X173718282Y-109539000D01*
X174261718Y-109539000D01*
X174401425Y-109552760D01*
G37*
G36*
X162971425Y-108282760D02*
G01*
X162971428Y-108282761D01*
X162971429Y-108282761D01*
X163150693Y-108337140D01*
X163150696Y-108337142D01*
X163150697Y-108337142D01*
X163315903Y-108425446D01*
X163460712Y-108544288D01*
X163579554Y-108689097D01*
X163667858Y-108854303D01*
X163667860Y-108854307D01*
X163722239Y-109033571D01*
X163722240Y-109033575D01*
X163740601Y-109220000D01*
X163722240Y-109406425D01*
X163722239Y-109406428D01*
X163722239Y-109406429D01*
X163667860Y-109585693D01*
X163667858Y-109585696D01*
X163667858Y-109585697D01*
X163579554Y-109750903D01*
X163460712Y-109895712D01*
X163315903Y-110014554D01*
X163150697Y-110102858D01*
X163150693Y-110102860D01*
X162971429Y-110157239D01*
X162971428Y-110157239D01*
X162971425Y-110157240D01*
X162831718Y-110171000D01*
X162288282Y-110171000D01*
X162148575Y-110157240D01*
X162148572Y-110157239D01*
X162148571Y-110157239D01*
X161969307Y-110102860D01*
X161969303Y-110102858D01*
X161804097Y-110014554D01*
X161659288Y-109895712D01*
X161540446Y-109750903D01*
X161452142Y-109585697D01*
X161452142Y-109585696D01*
X161452140Y-109585693D01*
X161397761Y-109406429D01*
X161397761Y-109406428D01*
X161397760Y-109406425D01*
X161379399Y-109220000D01*
X161397760Y-109033575D01*
X161397761Y-109033571D01*
X161452140Y-108854307D01*
X161452142Y-108854303D01*
X161540446Y-108689097D01*
X161659288Y-108544288D01*
X161804097Y-108425446D01*
X161969303Y-108337142D01*
X161969304Y-108337142D01*
X161969307Y-108337140D01*
X162148571Y-108282761D01*
X162148572Y-108282761D01*
X162148575Y-108282760D01*
X162288282Y-108269000D01*
X162831718Y-108269000D01*
X162971425Y-108282760D01*
G37*
G36*
X149001425Y-108282760D02*
G01*
X149001428Y-108282761D01*
X149001429Y-108282761D01*
X149180693Y-108337140D01*
X149180696Y-108337142D01*
X149180697Y-108337142D01*
X149345903Y-108425446D01*
X149490712Y-108544288D01*
X149609554Y-108689097D01*
X149697858Y-108854303D01*
X149697860Y-108854307D01*
X149752239Y-109033571D01*
X149752240Y-109033575D01*
X149770601Y-109220000D01*
X149752240Y-109406425D01*
X149752239Y-109406428D01*
X149752239Y-109406429D01*
X149697860Y-109585693D01*
X149697858Y-109585696D01*
X149697858Y-109585697D01*
X149609554Y-109750903D01*
X149490712Y-109895712D01*
X149345903Y-110014554D01*
X149180697Y-110102858D01*
X149180693Y-110102860D01*
X149001429Y-110157239D01*
X149001428Y-110157239D01*
X149001425Y-110157240D01*
X148861718Y-110171000D01*
X148318282Y-110171000D01*
X148178575Y-110157240D01*
X148178572Y-110157239D01*
X148178571Y-110157239D01*
X147999307Y-110102860D01*
X147999303Y-110102858D01*
X147834097Y-110014554D01*
X147689288Y-109895712D01*
X147570446Y-109750903D01*
X147482142Y-109585697D01*
X147482142Y-109585696D01*
X147482140Y-109585693D01*
X147427761Y-109406429D01*
X147427761Y-109406428D01*
X147427760Y-109406425D01*
X147409399Y-109220000D01*
X147427760Y-109033575D01*
X147427761Y-109033571D01*
X147482140Y-108854307D01*
X147482142Y-108854303D01*
X147570446Y-108689097D01*
X147689288Y-108544288D01*
X147834097Y-108425446D01*
X147999303Y-108337142D01*
X147999304Y-108337142D01*
X147999307Y-108337140D01*
X148178571Y-108282761D01*
X148178572Y-108282761D01*
X148178575Y-108282760D01*
X148318282Y-108269000D01*
X148861718Y-108269000D01*
X149001425Y-108282760D01*
G37*
G36*
X188246425Y-107647760D02*
G01*
X188246428Y-107647761D01*
X188246429Y-107647761D01*
X188425693Y-107702140D01*
X188425696Y-107702142D01*
X188425697Y-107702142D01*
X188590903Y-107790446D01*
X188735712Y-107909288D01*
X188854554Y-108054097D01*
X188898561Y-108136429D01*
X188942860Y-108219307D01*
X188997239Y-108398571D01*
X188997240Y-108398575D01*
X189015601Y-108585000D01*
X188997240Y-108771425D01*
X188997239Y-108771428D01*
X188997239Y-108771429D01*
X188942860Y-108950693D01*
X188942858Y-108950696D01*
X188942858Y-108950697D01*
X188854554Y-109115903D01*
X188735712Y-109260712D01*
X188590903Y-109379554D01*
X188425697Y-109467858D01*
X188425693Y-109467860D01*
X188246429Y-109522239D01*
X188246428Y-109522239D01*
X188246425Y-109522240D01*
X188106718Y-109536000D01*
X187813282Y-109536000D01*
X187673575Y-109522240D01*
X187673572Y-109522239D01*
X187673571Y-109522239D01*
X187494307Y-109467860D01*
X187494303Y-109467858D01*
X187329097Y-109379554D01*
X187184288Y-109260712D01*
X187065446Y-109115903D01*
X186977142Y-108950697D01*
X186977142Y-108950696D01*
X186977140Y-108950693D01*
X186922761Y-108771429D01*
X186922761Y-108771428D01*
X186922760Y-108771425D01*
X186904399Y-108585000D01*
X186922760Y-108398575D01*
X186922761Y-108398571D01*
X186977140Y-108219307D01*
X187021439Y-108136429D01*
X187065446Y-108054097D01*
X187184288Y-107909288D01*
X187329097Y-107790446D01*
X187494303Y-107702142D01*
X187494304Y-107702142D01*
X187494307Y-107702140D01*
X187673571Y-107647761D01*
X187673572Y-107647761D01*
X187673575Y-107647760D01*
X187813282Y-107634000D01*
X188106718Y-107634000D01*
X188246425Y-107647760D01*
G37*
G36*
X169216564Y-106939389D02*
G01*
X169393700Y-107012761D01*
X169407835Y-107018616D01*
X169579973Y-107133635D01*
X169726365Y-107280027D01*
X169819289Y-107419097D01*
X169841385Y-107452167D01*
X169920611Y-107643436D01*
X169961000Y-107846484D01*
X169961000Y-108053516D01*
X169920611Y-108256564D01*
X169841385Y-108447833D01*
X169841384Y-108447835D01*
X169726365Y-108619973D01*
X169579973Y-108766365D01*
X169407835Y-108881384D01*
X169407834Y-108881385D01*
X169407833Y-108881385D01*
X169216564Y-108960611D01*
X169013516Y-109001000D01*
X168806484Y-109001000D01*
X168603436Y-108960611D01*
X168412167Y-108881385D01*
X168412166Y-108881385D01*
X168412165Y-108881384D01*
X168240027Y-108766365D01*
X168093635Y-108619973D01*
X167978616Y-108447835D01*
X167978615Y-108447833D01*
X167899389Y-108256564D01*
X167859000Y-108053516D01*
X167859000Y-107846484D01*
X167899389Y-107643436D01*
X167978615Y-107452167D01*
X168000712Y-107419097D01*
X168093635Y-107280027D01*
X168240027Y-107133635D01*
X168412165Y-107018616D01*
X168426300Y-107012761D01*
X168603436Y-106939389D01*
X168806484Y-106899000D01*
X169013516Y-106899000D01*
X169216564Y-106939389D01*
G37*
G36*
X174401425Y-107012760D02*
G01*
X174401428Y-107012761D01*
X174401429Y-107012761D01*
X174580693Y-107067140D01*
X174580696Y-107067142D01*
X174580697Y-107067142D01*
X174745903Y-107155446D01*
X174890712Y-107274288D01*
X175009554Y-107419097D01*
X175050854Y-107496365D01*
X175097860Y-107584307D01*
X175152239Y-107763571D01*
X175152240Y-107763575D01*
X175170601Y-107950000D01*
X175152240Y-108136425D01*
X175152239Y-108136428D01*
X175152239Y-108136429D01*
X175097860Y-108315693D01*
X175097858Y-108315696D01*
X175097858Y-108315697D01*
X175009554Y-108480903D01*
X174890712Y-108625712D01*
X174745903Y-108744554D01*
X174580697Y-108832858D01*
X174580693Y-108832860D01*
X174401429Y-108887239D01*
X174401428Y-108887239D01*
X174401425Y-108887240D01*
X174261718Y-108901000D01*
X173718282Y-108901000D01*
X173578575Y-108887240D01*
X173578572Y-108887239D01*
X173578571Y-108887239D01*
X173399307Y-108832860D01*
X173399303Y-108832858D01*
X173234097Y-108744554D01*
X173089288Y-108625712D01*
X172970446Y-108480903D01*
X172882142Y-108315697D01*
X172882142Y-108315696D01*
X172882140Y-108315693D01*
X172827761Y-108136429D01*
X172827761Y-108136428D01*
X172827760Y-108136425D01*
X172809399Y-107950000D01*
X172827760Y-107763575D01*
X172827761Y-107763571D01*
X172882140Y-107584307D01*
X172929146Y-107496365D01*
X172970446Y-107419097D01*
X173089288Y-107274288D01*
X173234097Y-107155446D01*
X173399303Y-107067142D01*
X173399304Y-107067142D01*
X173399307Y-107067140D01*
X173578571Y-107012761D01*
X173578572Y-107012761D01*
X173578575Y-107012760D01*
X173718282Y-106999000D01*
X174261718Y-106999000D01*
X174401425Y-107012760D01*
G37*
G36*
X148896564Y-105669389D02*
G01*
X149087833Y-105748615D01*
X149087835Y-105748616D01*
X149252394Y-105858571D01*
X149259973Y-105863635D01*
X149406365Y-106010027D01*
X149521385Y-106182167D01*
X149600611Y-106373436D01*
X149641000Y-106576484D01*
X149641000Y-106783516D01*
X149600611Y-106986564D01*
X149521385Y-107177833D01*
X149521384Y-107177835D01*
X149406365Y-107349973D01*
X149259973Y-107496365D01*
X149087835Y-107611384D01*
X149087834Y-107611385D01*
X149087833Y-107611385D01*
X148896564Y-107690611D01*
X148693516Y-107731000D01*
X148486484Y-107731000D01*
X148283436Y-107690611D01*
X148092167Y-107611385D01*
X148092166Y-107611385D01*
X148092165Y-107611384D01*
X147920027Y-107496365D01*
X147773635Y-107349973D01*
X147658616Y-107177835D01*
X147658615Y-107177833D01*
X147579389Y-106986564D01*
X147539000Y-106783516D01*
X147539000Y-106576484D01*
X147579389Y-106373436D01*
X147658615Y-106182167D01*
X147773635Y-106010027D01*
X147920027Y-105863635D01*
X147927606Y-105858571D01*
X148092165Y-105748616D01*
X148092167Y-105748615D01*
X148283436Y-105669389D01*
X148486484Y-105629000D01*
X148693516Y-105629000D01*
X148896564Y-105669389D01*
G37*
G36*
X188246425Y-105107760D02*
G01*
X188246428Y-105107761D01*
X188246429Y-105107761D01*
X188425693Y-105162140D01*
X188425696Y-105162142D01*
X188425697Y-105162142D01*
X188590903Y-105250446D01*
X188735712Y-105369288D01*
X188854554Y-105514097D01*
X188937559Y-105669389D01*
X188942860Y-105679307D01*
X188997239Y-105858571D01*
X188997240Y-105858575D01*
X189015601Y-106045000D01*
X188997240Y-106231425D01*
X188997239Y-106231428D01*
X188997239Y-106231429D01*
X188942860Y-106410693D01*
X188942858Y-106410696D01*
X188942858Y-106410697D01*
X188854554Y-106575903D01*
X188735712Y-106720712D01*
X188590903Y-106839554D01*
X188425697Y-106927858D01*
X188425693Y-106927860D01*
X188246429Y-106982239D01*
X188246428Y-106982239D01*
X188246425Y-106982240D01*
X188106718Y-106996000D01*
X187813282Y-106996000D01*
X187673575Y-106982240D01*
X187673572Y-106982239D01*
X187673571Y-106982239D01*
X187494307Y-106927860D01*
X187494303Y-106927858D01*
X187329097Y-106839554D01*
X187184288Y-106720712D01*
X187065446Y-106575903D01*
X186977142Y-106410697D01*
X186977142Y-106410696D01*
X186977140Y-106410693D01*
X186922761Y-106231429D01*
X186922761Y-106231428D01*
X186922760Y-106231425D01*
X186904399Y-106045000D01*
X186922760Y-105858575D01*
X186922761Y-105858571D01*
X186977140Y-105679307D01*
X186982441Y-105669389D01*
X187065446Y-105514097D01*
X187184288Y-105369288D01*
X187329097Y-105250446D01*
X187494303Y-105162142D01*
X187494304Y-105162142D01*
X187494307Y-105162140D01*
X187673571Y-105107761D01*
X187673572Y-105107761D01*
X187673575Y-105107760D01*
X187813282Y-105094000D01*
X188106718Y-105094000D01*
X188246425Y-105107760D01*
G37*
G36*
X162866564Y-104399389D02*
G01*
X163057833Y-104478615D01*
X163057835Y-104478616D01*
X163229973Y-104593635D01*
X163376365Y-104740027D01*
X163491385Y-104912167D01*
X163570611Y-105103436D01*
X163611000Y-105306484D01*
X163611000Y-105513516D01*
X163570611Y-105716564D01*
X163511790Y-105858571D01*
X163491384Y-105907835D01*
X163376365Y-106079973D01*
X163229973Y-106226365D01*
X163057835Y-106341384D01*
X163057834Y-106341385D01*
X163057833Y-106341385D01*
X162866564Y-106420611D01*
X162663516Y-106461000D01*
X162456484Y-106461000D01*
X162253436Y-106420611D01*
X162062167Y-106341385D01*
X162062166Y-106341385D01*
X162062165Y-106341384D01*
X161890027Y-106226365D01*
X161743635Y-106079973D01*
X161628616Y-105907835D01*
X161608210Y-105858571D01*
X161549389Y-105716564D01*
X161509000Y-105513516D01*
X161509000Y-105306484D01*
X161549389Y-105103436D01*
X161628615Y-104912167D01*
X161743635Y-104740027D01*
X161890027Y-104593635D01*
X162062165Y-104478616D01*
X162062167Y-104478615D01*
X162253436Y-104399389D01*
X162456484Y-104359000D01*
X162663516Y-104359000D01*
X162866564Y-104399389D01*
G37*
G36*
X166041564Y-104399389D02*
G01*
X166232833Y-104478615D01*
X166232835Y-104478616D01*
X166404973Y-104593635D01*
X166551365Y-104740027D01*
X166666385Y-104912167D01*
X166745611Y-105103436D01*
X166786000Y-105306484D01*
X166786000Y-105513516D01*
X166745611Y-105716564D01*
X166686790Y-105858571D01*
X166666384Y-105907835D01*
X166551365Y-106079973D01*
X166404973Y-106226365D01*
X166232835Y-106341384D01*
X166232834Y-106341385D01*
X166232833Y-106341385D01*
X166041564Y-106420611D01*
X165838516Y-106461000D01*
X165631484Y-106461000D01*
X165428436Y-106420611D01*
X165237167Y-106341385D01*
X165237166Y-106341385D01*
X165237165Y-106341384D01*
X165065027Y-106226365D01*
X164918635Y-106079973D01*
X164803616Y-105907835D01*
X164783210Y-105858571D01*
X164724389Y-105716564D01*
X164684000Y-105513516D01*
X164684000Y-105306484D01*
X164724389Y-105103436D01*
X164803615Y-104912167D01*
X164918635Y-104740027D01*
X165065027Y-104593635D01*
X165237165Y-104478616D01*
X165237167Y-104478615D01*
X165428436Y-104399389D01*
X165631484Y-104359000D01*
X165838516Y-104359000D01*
X166041564Y-104399389D01*
G37*
G36*
X159691564Y-104399389D02*
G01*
X159882833Y-104478615D01*
X159882835Y-104478616D01*
X160054973Y-104593635D01*
X160201365Y-104740027D01*
X160316385Y-104912167D01*
X160395611Y-105103436D01*
X160436000Y-105306484D01*
X160436000Y-105513516D01*
X160395611Y-105716564D01*
X160336790Y-105858571D01*
X160316384Y-105907835D01*
X160201365Y-106079973D01*
X160054973Y-106226365D01*
X159882835Y-106341384D01*
X159882834Y-106341385D01*
X159882833Y-106341385D01*
X159691564Y-106420611D01*
X159488516Y-106461000D01*
X159281484Y-106461000D01*
X159078436Y-106420611D01*
X158887167Y-106341385D01*
X158887166Y-106341385D01*
X158887165Y-106341384D01*
X158715027Y-106226365D01*
X158568635Y-106079973D01*
X158453616Y-105907835D01*
X158433210Y-105858571D01*
X158374389Y-105716564D01*
X158334000Y-105513516D01*
X158334000Y-105306484D01*
X158374389Y-105103436D01*
X158453615Y-104912167D01*
X158568635Y-104740027D01*
X158715027Y-104593635D01*
X158887165Y-104478616D01*
X158887167Y-104478615D01*
X159078436Y-104399389D01*
X159281484Y-104359000D01*
X159488516Y-104359000D01*
X159691564Y-104399389D01*
G37*
G36*
X154841425Y-101932760D02*
G01*
X154841428Y-101932761D01*
X154841429Y-101932761D01*
X155020693Y-101987140D01*
X155020696Y-101987142D01*
X155020697Y-101987142D01*
X155185903Y-102075446D01*
X155330712Y-102194288D01*
X155449554Y-102339097D01*
X155490659Y-102416000D01*
X155537860Y-102504307D01*
X155592239Y-102683571D01*
X155592240Y-102683575D01*
X155610601Y-102870000D01*
X155592240Y-103056425D01*
X155592239Y-103056428D01*
X155592239Y-103056429D01*
X155537860Y-103235693D01*
X155537858Y-103235696D01*
X155537858Y-103235697D01*
X155449554Y-103400903D01*
X155330712Y-103545712D01*
X155185903Y-103664554D01*
X155020697Y-103752858D01*
X155020693Y-103752860D01*
X154841429Y-103807239D01*
X154841428Y-103807239D01*
X154841425Y-103807240D01*
X154701718Y-103821000D01*
X153908282Y-103821000D01*
X153768575Y-103807240D01*
X153768572Y-103807239D01*
X153768571Y-103807239D01*
X153589307Y-103752860D01*
X153589303Y-103752858D01*
X153424097Y-103664554D01*
X153279288Y-103545712D01*
X153160446Y-103400903D01*
X153072142Y-103235697D01*
X153072142Y-103235696D01*
X153072140Y-103235693D01*
X153017761Y-103056429D01*
X153017761Y-103056428D01*
X153017760Y-103056425D01*
X152999399Y-102870000D01*
X153017760Y-102683575D01*
X153017761Y-102683571D01*
X153072140Y-102504307D01*
X153119341Y-102416000D01*
X153160446Y-102339097D01*
X153279288Y-102194288D01*
X153424097Y-102075446D01*
X153589303Y-101987142D01*
X153589304Y-101987142D01*
X153589307Y-101987140D01*
X153768571Y-101932761D01*
X153768572Y-101932761D01*
X153768575Y-101932760D01*
X153908282Y-101919000D01*
X154701718Y-101919000D01*
X154841425Y-101932760D01*
G37*
G36*
X169216564Y-100589389D02*
G01*
X169407833Y-100668615D01*
X169407835Y-100668616D01*
X169579973Y-100783635D01*
X169726365Y-100930027D01*
X169841385Y-101102167D01*
X169920611Y-101293436D01*
X169961000Y-101496484D01*
X169961000Y-101703516D01*
X169920611Y-101906564D01*
X169843774Y-102092065D01*
X169841384Y-102097835D01*
X169726365Y-102269973D01*
X169579973Y-102416365D01*
X169407835Y-102531384D01*
X169407834Y-102531385D01*
X169407833Y-102531385D01*
X169216564Y-102610611D01*
X169013516Y-102651000D01*
X168806484Y-102651000D01*
X168603436Y-102610611D01*
X168412167Y-102531385D01*
X168412166Y-102531385D01*
X168412165Y-102531384D01*
X168240027Y-102416365D01*
X168093635Y-102269973D01*
X167978616Y-102097835D01*
X167976226Y-102092065D01*
X167899389Y-101906564D01*
X167859000Y-101703516D01*
X167859000Y-101496484D01*
X167899389Y-101293436D01*
X167978615Y-101102167D01*
X168093635Y-100930027D01*
X168240027Y-100783635D01*
X168412165Y-100668616D01*
X168412167Y-100668615D01*
X168603436Y-100589389D01*
X168806484Y-100549000D01*
X169013516Y-100549000D01*
X169216564Y-100589389D01*
G37*
G36*
X176836564Y-100589389D02*
G01*
X177027833Y-100668615D01*
X177027835Y-100668616D01*
X177199973Y-100783635D01*
X177346365Y-100930027D01*
X177461385Y-101102167D01*
X177540611Y-101293436D01*
X177581000Y-101496484D01*
X177581000Y-101703516D01*
X177540611Y-101906564D01*
X177463774Y-102092065D01*
X177461384Y-102097835D01*
X177346365Y-102269973D01*
X177199973Y-102416365D01*
X177027835Y-102531384D01*
X177027834Y-102531385D01*
X177027833Y-102531385D01*
X176836564Y-102610611D01*
X176633516Y-102651000D01*
X176426484Y-102651000D01*
X176223436Y-102610611D01*
X176032167Y-102531385D01*
X176032166Y-102531385D01*
X176032165Y-102531384D01*
X175860027Y-102416365D01*
X175713635Y-102269973D01*
X175598616Y-102097835D01*
X175596226Y-102092065D01*
X175519389Y-101906564D01*
X175479000Y-101703516D01*
X175479000Y-101496484D01*
X175519389Y-101293436D01*
X175598615Y-101102167D01*
X175713635Y-100930027D01*
X175860027Y-100783635D01*
X176032165Y-100668616D01*
X176032167Y-100668615D01*
X176223436Y-100589389D01*
X176426484Y-100549000D01*
X176633516Y-100549000D01*
X176836564Y-100589389D01*
G37*
G36*
X182033241Y-99569760D02*
G01*
X182297305Y-99679139D01*
X182534958Y-99837934D01*
X182737066Y-100040042D01*
X182895861Y-100277695D01*
X183005240Y-100541759D01*
X183061000Y-100822088D01*
X183061000Y-101107912D01*
X183005240Y-101388241D01*
X182895861Y-101652305D01*
X182737066Y-101889958D01*
X182534958Y-102092066D01*
X182297305Y-102250861D01*
X182033241Y-102360240D01*
X181752912Y-102416000D01*
X181467088Y-102416000D01*
X181186759Y-102360240D01*
X180922695Y-102250861D01*
X180685042Y-102092066D01*
X180482934Y-101889958D01*
X180324139Y-101652305D01*
X180214760Y-101388241D01*
X180159000Y-101107912D01*
X180159000Y-100822088D01*
X180214760Y-100541759D01*
X180324139Y-100277695D01*
X180482934Y-100040042D01*
X180685042Y-99837934D01*
X180922695Y-99679139D01*
X181186759Y-99569760D01*
X181467088Y-99514000D01*
X181752912Y-99514000D01*
X182033241Y-99569760D01*
G37*
G36*
X154841425Y-99392760D02*
G01*
X154841428Y-99392761D01*
X154841429Y-99392761D01*
X155020693Y-99447140D01*
X155020696Y-99447142D01*
X155020697Y-99447142D01*
X155185903Y-99535446D01*
X155330712Y-99654288D01*
X155449554Y-99799097D01*
X155490854Y-99876365D01*
X155537860Y-99964307D01*
X155592239Y-100143571D01*
X155592240Y-100143575D01*
X155610601Y-100330000D01*
X155592240Y-100516425D01*
X155592239Y-100516428D01*
X155592239Y-100516429D01*
X155537860Y-100695693D01*
X155537858Y-100695696D01*
X155537858Y-100695697D01*
X155449554Y-100860903D01*
X155330712Y-101005712D01*
X155185903Y-101124554D01*
X155020697Y-101212858D01*
X155020693Y-101212860D01*
X154841429Y-101267239D01*
X154841428Y-101267239D01*
X154841425Y-101267240D01*
X154701718Y-101281000D01*
X153908282Y-101281000D01*
X153768575Y-101267240D01*
X153768572Y-101267239D01*
X153768571Y-101267239D01*
X153589307Y-101212860D01*
X153589303Y-101212858D01*
X153424097Y-101124554D01*
X153279288Y-101005712D01*
X153160446Y-100860903D01*
X153072142Y-100695697D01*
X153072142Y-100695696D01*
X153072140Y-100695693D01*
X153017761Y-100516429D01*
X153017761Y-100516428D01*
X153017760Y-100516425D01*
X152999399Y-100330000D01*
X153017760Y-100143575D01*
X153017761Y-100143571D01*
X153072140Y-99964307D01*
X153119146Y-99876365D01*
X153160446Y-99799097D01*
X153279288Y-99654288D01*
X153424097Y-99535446D01*
X153589303Y-99447142D01*
X153589304Y-99447142D01*
X153589307Y-99447140D01*
X153768571Y-99392761D01*
X153768572Y-99392761D01*
X153768575Y-99392760D01*
X153908282Y-99379000D01*
X154701718Y-99379000D01*
X154841425Y-99392760D01*
G37*
G36*
X148896564Y-98049389D02*
G01*
X149087833Y-98128615D01*
X149087835Y-98128616D01*
X149259973Y-98243635D01*
X149406365Y-98390027D01*
X149521385Y-98562167D01*
X149600611Y-98753436D01*
X149641000Y-98956484D01*
X149641000Y-99163516D01*
X149600611Y-99366564D01*
X149521385Y-99557833D01*
X149521384Y-99557835D01*
X149406365Y-99729973D01*
X149259973Y-99876365D01*
X149087835Y-99991384D01*
X149087834Y-99991385D01*
X149087833Y-99991385D01*
X148896564Y-100070611D01*
X148693516Y-100111000D01*
X148486484Y-100111000D01*
X148283436Y-100070611D01*
X148092167Y-99991385D01*
X148092166Y-99991385D01*
X148092165Y-99991384D01*
X147920027Y-99876365D01*
X147773635Y-99729973D01*
X147658616Y-99557835D01*
X147658615Y-99557833D01*
X147579389Y-99366564D01*
X147539000Y-99163516D01*
X147539000Y-98956484D01*
X147579389Y-98753436D01*
X147658615Y-98562167D01*
X147773635Y-98390027D01*
X147920027Y-98243635D01*
X148092165Y-98128616D01*
X148092167Y-98128615D01*
X148283436Y-98049389D01*
X148486484Y-98009000D01*
X148693516Y-98009000D01*
X148896564Y-98049389D01*
G37*
G36*
X166041564Y-96779389D02*
G01*
X166232833Y-96858615D01*
X166232835Y-96858616D01*
X166404973Y-96973635D01*
X166551365Y-97120027D01*
X166585331Y-97170860D01*
X166666385Y-97292167D01*
X166745611Y-97483436D01*
X166786000Y-97686484D01*
X166786000Y-97893516D01*
X166745611Y-98096564D01*
X166684692Y-98243635D01*
X166666384Y-98287835D01*
X166551365Y-98459973D01*
X166404973Y-98606365D01*
X166232835Y-98721384D01*
X166232834Y-98721385D01*
X166232833Y-98721385D01*
X166041564Y-98800611D01*
X165838516Y-98841000D01*
X165631484Y-98841000D01*
X165428436Y-98800611D01*
X165237167Y-98721385D01*
X165237166Y-98721385D01*
X165237165Y-98721384D01*
X165065027Y-98606365D01*
X164918635Y-98459973D01*
X164803616Y-98287835D01*
X164785308Y-98243635D01*
X164724389Y-98096564D01*
X164684000Y-97893516D01*
X164684000Y-97686484D01*
X164724389Y-97483436D01*
X164803615Y-97292167D01*
X164884670Y-97170860D01*
X164918635Y-97120027D01*
X165065027Y-96973635D01*
X165237165Y-96858616D01*
X165237167Y-96858615D01*
X165428436Y-96779389D01*
X165631484Y-96739000D01*
X165838516Y-96739000D01*
X166041564Y-96779389D01*
G37*
G36*
X162866564Y-96779389D02*
G01*
X163057833Y-96858615D01*
X163057835Y-96858616D01*
X163229973Y-96973635D01*
X163376365Y-97120027D01*
X163410331Y-97170860D01*
X163491385Y-97292167D01*
X163570611Y-97483436D01*
X163611000Y-97686484D01*
X163611000Y-97893516D01*
X163570611Y-98096564D01*
X163509692Y-98243635D01*
X163491384Y-98287835D01*
X163376365Y-98459973D01*
X163229973Y-98606365D01*
X163057835Y-98721384D01*
X163057834Y-98721385D01*
X163057833Y-98721385D01*
X162866564Y-98800611D01*
X162663516Y-98841000D01*
X162456484Y-98841000D01*
X162253436Y-98800611D01*
X162062167Y-98721385D01*
X162062166Y-98721385D01*
X162062165Y-98721384D01*
X161890027Y-98606365D01*
X161743635Y-98459973D01*
X161628616Y-98287835D01*
X161610308Y-98243635D01*
X161549389Y-98096564D01*
X161509000Y-97893516D01*
X161509000Y-97686484D01*
X161549389Y-97483436D01*
X161628615Y-97292167D01*
X161709670Y-97170860D01*
X161743635Y-97120027D01*
X161890027Y-96973635D01*
X162062165Y-96858616D01*
X162062167Y-96858615D01*
X162253436Y-96779389D01*
X162456484Y-96739000D01*
X162663516Y-96739000D01*
X162866564Y-96779389D01*
G37*
G36*
X159691564Y-96779389D02*
G01*
X159882833Y-96858615D01*
X159882835Y-96858616D01*
X160054973Y-96973635D01*
X160201365Y-97120027D01*
X160235331Y-97170860D01*
X160316385Y-97292167D01*
X160395611Y-97483436D01*
X160436000Y-97686484D01*
X160436000Y-97893516D01*
X160395611Y-98096564D01*
X160334692Y-98243635D01*
X160316384Y-98287835D01*
X160201365Y-98459973D01*
X160054973Y-98606365D01*
X159882835Y-98721384D01*
X159882834Y-98721385D01*
X159882833Y-98721385D01*
X159691564Y-98800611D01*
X159488516Y-98841000D01*
X159281484Y-98841000D01*
X159078436Y-98800611D01*
X158887167Y-98721385D01*
X158887166Y-98721385D01*
X158887165Y-98721384D01*
X158715027Y-98606365D01*
X158568635Y-98459973D01*
X158453616Y-98287835D01*
X158435308Y-98243635D01*
X158374389Y-98096564D01*
X158334000Y-97893516D01*
X158334000Y-97686484D01*
X158374389Y-97483436D01*
X158453615Y-97292167D01*
X158534670Y-97170860D01*
X158568635Y-97120027D01*
X158715027Y-96973635D01*
X158887165Y-96858616D01*
X158887167Y-96858615D01*
X159078436Y-96779389D01*
X159281484Y-96739000D01*
X159488516Y-96739000D01*
X159691564Y-96779389D01*
G37*
G36*
X175446425Y-95357760D02*
G01*
X175446428Y-95357761D01*
X175446429Y-95357761D01*
X175625693Y-95412140D01*
X175625696Y-95412142D01*
X175625697Y-95412142D01*
X175790903Y-95500446D01*
X175935712Y-95619288D01*
X176054554Y-95764097D01*
X176100484Y-95850027D01*
X176142860Y-95929307D01*
X176197239Y-96108571D01*
X176197239Y-96108574D01*
X176197240Y-96108576D01*
X176211000Y-96248283D01*
X176211000Y-96791718D01*
X176197240Y-96931425D01*
X176197239Y-96931428D01*
X176197239Y-96931429D01*
X176142860Y-97110693D01*
X176142858Y-97110696D01*
X176142858Y-97110697D01*
X176054554Y-97275903D01*
X175935712Y-97420712D01*
X175790903Y-97539554D01*
X175625696Y-97627858D01*
X175625692Y-97627860D01*
X175446428Y-97682239D01*
X175446427Y-97682239D01*
X175446424Y-97682240D01*
X175260000Y-97700601D01*
X175073575Y-97682240D01*
X175073572Y-97682239D01*
X175073571Y-97682239D01*
X174894307Y-97627860D01*
X174894303Y-97627858D01*
X174729097Y-97539554D01*
X174584288Y-97420712D01*
X174465446Y-97275903D01*
X174377142Y-97110696D01*
X174377141Y-97110693D01*
X174377140Y-97110692D01*
X174322761Y-96931428D01*
X174322761Y-96931427D01*
X174322760Y-96931424D01*
X174309000Y-96791717D01*
X174309000Y-96248282D01*
X174322760Y-96108575D01*
X174322761Y-96108571D01*
X174377140Y-95929307D01*
X174419517Y-95850027D01*
X174465448Y-95764096D01*
X174584289Y-95619288D01*
X174729098Y-95500446D01*
X174894304Y-95412142D01*
X174894305Y-95412142D01*
X174894308Y-95412140D01*
X175073572Y-95357761D01*
X175073573Y-95357761D01*
X175073576Y-95357760D01*
X175260000Y-95339399D01*
X175446425Y-95357760D01*
G37*
G36*
X172906425Y-95357760D02*
G01*
X172906428Y-95357761D01*
X172906429Y-95357761D01*
X173085693Y-95412140D01*
X173085696Y-95412142D01*
X173085697Y-95412142D01*
X173250903Y-95500446D01*
X173395712Y-95619288D01*
X173514554Y-95764097D01*
X173560484Y-95850027D01*
X173602860Y-95929307D01*
X173657239Y-96108571D01*
X173657239Y-96108574D01*
X173657240Y-96108576D01*
X173671000Y-96248283D01*
X173671000Y-96791718D01*
X173657240Y-96931425D01*
X173657239Y-96931428D01*
X173657239Y-96931429D01*
X173602860Y-97110693D01*
X173602858Y-97110696D01*
X173602858Y-97110697D01*
X173514554Y-97275903D01*
X173395712Y-97420712D01*
X173250903Y-97539554D01*
X173085696Y-97627858D01*
X173085692Y-97627860D01*
X172906428Y-97682239D01*
X172906427Y-97682239D01*
X172906424Y-97682240D01*
X172720000Y-97700601D01*
X172533575Y-97682240D01*
X172533572Y-97682239D01*
X172533571Y-97682239D01*
X172354307Y-97627860D01*
X172354303Y-97627858D01*
X172189097Y-97539554D01*
X172044288Y-97420712D01*
X171925446Y-97275903D01*
X171837142Y-97110696D01*
X171837141Y-97110693D01*
X171837140Y-97110692D01*
X171782761Y-96931428D01*
X171782761Y-96931427D01*
X171782760Y-96931424D01*
X171769000Y-96791717D01*
X171769000Y-96248282D01*
X171782760Y-96108575D01*
X171782761Y-96108571D01*
X171837140Y-95929307D01*
X171879517Y-95850027D01*
X171925448Y-95764096D01*
X172044289Y-95619288D01*
X172189098Y-95500446D01*
X172354304Y-95412142D01*
X172354305Y-95412142D01*
X172354308Y-95412140D01*
X172533572Y-95357761D01*
X172533573Y-95357761D01*
X172533576Y-95357760D01*
X172720000Y-95339399D01*
X172906425Y-95357760D01*
G37*
G36*
X170366425Y-95357760D02*
G01*
X170366428Y-95357761D01*
X170366429Y-95357761D01*
X170545693Y-95412140D01*
X170545696Y-95412142D01*
X170545697Y-95412142D01*
X170710903Y-95500446D01*
X170855712Y-95619288D01*
X170974554Y-95764097D01*
X171020484Y-95850027D01*
X171062860Y-95929307D01*
X171117239Y-96108571D01*
X171117239Y-96108574D01*
X171117240Y-96108576D01*
X171131000Y-96248283D01*
X171131000Y-96791718D01*
X171117240Y-96931425D01*
X171117239Y-96931428D01*
X171117239Y-96931429D01*
X171062860Y-97110693D01*
X171062858Y-97110696D01*
X171062858Y-97110697D01*
X170974554Y-97275903D01*
X170855712Y-97420712D01*
X170710903Y-97539554D01*
X170545696Y-97627858D01*
X170545692Y-97627860D01*
X170366428Y-97682239D01*
X170366427Y-97682239D01*
X170366424Y-97682240D01*
X170180000Y-97700601D01*
X169993575Y-97682240D01*
X169993572Y-97682239D01*
X169993571Y-97682239D01*
X169814307Y-97627860D01*
X169814303Y-97627858D01*
X169649097Y-97539554D01*
X169504288Y-97420712D01*
X169385446Y-97275903D01*
X169297142Y-97110696D01*
X169297141Y-97110693D01*
X169297140Y-97110692D01*
X169242761Y-96931428D01*
X169242761Y-96931427D01*
X169242760Y-96931424D01*
X169229000Y-96791717D01*
X169229000Y-96248282D01*
X169242760Y-96108575D01*
X169242761Y-96108571D01*
X169297140Y-95929307D01*
X169339517Y-95850027D01*
X169385448Y-95764096D01*
X169504289Y-95619288D01*
X169649098Y-95500446D01*
X169814304Y-95412142D01*
X169814305Y-95412142D01*
X169814308Y-95412140D01*
X169993572Y-95357761D01*
X169993573Y-95357761D01*
X169993576Y-95357760D01*
X170180000Y-95339399D01*
X170366425Y-95357760D01*
G37*
G36*
X148896564Y-95509389D02*
G01*
X149087833Y-95588615D01*
X149087835Y-95588616D01*
X149259973Y-95703635D01*
X149406365Y-95850027D01*
X149459338Y-95929306D01*
X149521385Y-96022167D01*
X149600611Y-96213436D01*
X149641000Y-96416484D01*
X149641000Y-96623516D01*
X149600611Y-96826564D01*
X149539692Y-96973635D01*
X149521384Y-97017835D01*
X149406365Y-97189973D01*
X149259973Y-97336365D01*
X149087835Y-97451384D01*
X149087834Y-97451385D01*
X149087833Y-97451385D01*
X148896564Y-97530611D01*
X148693516Y-97571000D01*
X148486484Y-97571000D01*
X148283436Y-97530611D01*
X148092167Y-97451385D01*
X148092166Y-97451385D01*
X148092165Y-97451384D01*
X147920027Y-97336365D01*
X147773635Y-97189973D01*
X147658616Y-97017835D01*
X147640308Y-96973635D01*
X147579389Y-96826564D01*
X147539000Y-96623516D01*
X147539000Y-96416484D01*
X147579389Y-96213436D01*
X147658615Y-96022167D01*
X147720663Y-95929306D01*
X147773635Y-95850027D01*
X147920027Y-95703635D01*
X148092165Y-95588616D01*
X148092167Y-95588615D01*
X148283436Y-95509389D01*
X148486484Y-95469000D01*
X148693516Y-95469000D01*
X148896564Y-95509389D01*
G37*
G36*
X182033241Y-94489760D02*
G01*
X182297305Y-94599139D01*
X182534958Y-94757934D01*
X182737066Y-94960042D01*
X182895861Y-95197695D01*
X183005240Y-95461759D01*
X183061000Y-95742088D01*
X183061000Y-96027912D01*
X183005240Y-96308241D01*
X182895861Y-96572305D01*
X182737066Y-96809958D01*
X182534958Y-97012066D01*
X182297305Y-97170861D01*
X182033241Y-97280240D01*
X181752912Y-97336000D01*
X181467088Y-97336000D01*
X181186759Y-97280240D01*
X180922695Y-97170861D01*
X180685042Y-97012066D01*
X180482934Y-96809958D01*
X180324139Y-96572305D01*
X180214760Y-96308241D01*
X180159000Y-96027912D01*
X180159000Y-95742088D01*
X180214760Y-95461759D01*
X180324139Y-95197695D01*
X180482934Y-94960042D01*
X180685042Y-94757934D01*
X180922695Y-94599139D01*
X181186759Y-94489760D01*
X181467088Y-94434000D01*
X181752912Y-94434000D01*
X182033241Y-94489760D01*
G37*
G36*
X166781425Y-94312760D02*
G01*
X166781428Y-94312761D01*
X166781429Y-94312761D01*
X166960693Y-94367140D01*
X166960696Y-94367142D01*
X166960697Y-94367142D01*
X167125903Y-94455446D01*
X167270712Y-94574288D01*
X167389554Y-94719097D01*
X167477858Y-94884303D01*
X167477860Y-94884307D01*
X167532239Y-95063571D01*
X167532240Y-95063575D01*
X167550601Y-95250000D01*
X167532240Y-95436425D01*
X167532239Y-95436428D01*
X167532239Y-95436429D01*
X167477860Y-95615693D01*
X167477858Y-95615696D01*
X167477858Y-95615697D01*
X167389554Y-95780903D01*
X167270712Y-95925712D01*
X167125903Y-96044554D01*
X166960697Y-96132858D01*
X166960693Y-96132860D01*
X166781429Y-96187239D01*
X166781428Y-96187239D01*
X166781425Y-96187240D01*
X166641718Y-96201000D01*
X166098282Y-96201000D01*
X165958575Y-96187240D01*
X165958572Y-96187239D01*
X165958571Y-96187239D01*
X165779307Y-96132860D01*
X165779303Y-96132858D01*
X165614097Y-96044554D01*
X165469288Y-95925712D01*
X165350446Y-95780903D01*
X165262142Y-95615697D01*
X165262142Y-95615696D01*
X165262140Y-95615693D01*
X165207761Y-95436429D01*
X165207761Y-95436428D01*
X165207760Y-95436425D01*
X165189399Y-95250000D01*
X165207760Y-95063575D01*
X165207761Y-95063571D01*
X165262140Y-94884307D01*
X165262142Y-94884303D01*
X165350446Y-94719097D01*
X165469288Y-94574288D01*
X165614097Y-94455446D01*
X165779303Y-94367142D01*
X165779304Y-94367142D01*
X165779307Y-94367140D01*
X165958571Y-94312761D01*
X165958572Y-94312761D01*
X165958575Y-94312760D01*
X166098282Y-94299000D01*
X166641718Y-94299000D01*
X166781425Y-94312760D01*
G37*
G36*
X162971425Y-94312760D02*
G01*
X162971428Y-94312761D01*
X162971429Y-94312761D01*
X163150693Y-94367140D01*
X163150696Y-94367142D01*
X163150697Y-94367142D01*
X163315903Y-94455446D01*
X163460712Y-94574288D01*
X163579554Y-94719097D01*
X163667858Y-94884303D01*
X163667860Y-94884307D01*
X163722239Y-95063571D01*
X163722240Y-95063575D01*
X163740601Y-95250000D01*
X163722240Y-95436425D01*
X163722239Y-95436428D01*
X163722239Y-95436429D01*
X163667860Y-95615693D01*
X163667858Y-95615696D01*
X163667858Y-95615697D01*
X163579554Y-95780903D01*
X163460712Y-95925712D01*
X163315903Y-96044554D01*
X163150697Y-96132858D01*
X163150693Y-96132860D01*
X162971429Y-96187239D01*
X162971428Y-96187239D01*
X162971425Y-96187240D01*
X162831718Y-96201000D01*
X162288282Y-96201000D01*
X162148575Y-96187240D01*
X162148572Y-96187239D01*
X162148571Y-96187239D01*
X161969307Y-96132860D01*
X161969303Y-96132858D01*
X161804097Y-96044554D01*
X161659288Y-95925712D01*
X161540446Y-95780903D01*
X161452142Y-95615697D01*
X161452142Y-95615696D01*
X161452140Y-95615693D01*
X161397761Y-95436429D01*
X161397761Y-95436428D01*
X161397760Y-95436425D01*
X161379399Y-95250000D01*
X161397760Y-95063575D01*
X161397761Y-95063571D01*
X161452140Y-94884307D01*
X161452142Y-94884303D01*
X161540446Y-94719097D01*
X161659288Y-94574288D01*
X161804097Y-94455446D01*
X161969303Y-94367142D01*
X161969304Y-94367142D01*
X161969307Y-94367140D01*
X162148571Y-94312761D01*
X162148572Y-94312761D01*
X162148575Y-94312760D01*
X162288282Y-94299000D01*
X162831718Y-94299000D01*
X162971425Y-94312760D01*
G37*
G36*
X162971425Y-91772760D02*
G01*
X162971428Y-91772761D01*
X162971429Y-91772761D01*
X163150693Y-91827140D01*
X163150696Y-91827142D01*
X163150697Y-91827142D01*
X163315903Y-91915446D01*
X163460712Y-92034288D01*
X163579554Y-92179097D01*
X163622548Y-92259534D01*
X163667860Y-92344307D01*
X163722239Y-92523571D01*
X163722240Y-92523575D01*
X163740601Y-92710000D01*
X163722240Y-92896425D01*
X163722239Y-92896428D01*
X163722239Y-92896429D01*
X163667860Y-93075693D01*
X163667858Y-93075696D01*
X163667858Y-93075697D01*
X163579554Y-93240903D01*
X163460712Y-93385712D01*
X163315903Y-93504554D01*
X163150697Y-93592858D01*
X163150693Y-93592860D01*
X162971429Y-93647239D01*
X162971428Y-93647239D01*
X162971425Y-93647240D01*
X162831718Y-93661000D01*
X162288282Y-93661000D01*
X162148575Y-93647240D01*
X162148572Y-93647239D01*
X162148571Y-93647239D01*
X161969307Y-93592860D01*
X161969303Y-93592858D01*
X161804097Y-93504554D01*
X161659288Y-93385712D01*
X161540446Y-93240903D01*
X161452142Y-93075697D01*
X161452142Y-93075696D01*
X161452140Y-93075693D01*
X161397761Y-92896429D01*
X161397761Y-92896428D01*
X161397760Y-92896425D01*
X161379399Y-92710000D01*
X161397760Y-92523575D01*
X161397761Y-92523571D01*
X161452140Y-92344307D01*
X161497452Y-92259534D01*
X161540446Y-92179097D01*
X161659288Y-92034288D01*
X161804097Y-91915446D01*
X161969303Y-91827142D01*
X161969304Y-91827142D01*
X161969307Y-91827140D01*
X162148571Y-91772761D01*
X162148572Y-91772761D01*
X162148575Y-91772760D01*
X162288282Y-91759000D01*
X162831718Y-91759000D01*
X162971425Y-91772760D01*
G37*
G36*
X171861425Y-91772760D02*
G01*
X171861428Y-91772761D01*
X171861429Y-91772761D01*
X172040693Y-91827140D01*
X172040696Y-91827142D01*
X172040697Y-91827142D01*
X172205903Y-91915446D01*
X172350712Y-92034288D01*
X172469554Y-92179097D01*
X172512548Y-92259534D01*
X172557860Y-92344307D01*
X172612239Y-92523571D01*
X172612240Y-92523575D01*
X172630601Y-92710000D01*
X172612240Y-92896425D01*
X172612239Y-92896428D01*
X172612239Y-92896429D01*
X172557860Y-93075693D01*
X172557858Y-93075696D01*
X172557858Y-93075697D01*
X172469554Y-93240903D01*
X172350712Y-93385712D01*
X172205903Y-93504554D01*
X172040697Y-93592858D01*
X172040693Y-93592860D01*
X171861429Y-93647239D01*
X171861428Y-93647239D01*
X171861425Y-93647240D01*
X171721718Y-93661000D01*
X171178282Y-93661000D01*
X171038575Y-93647240D01*
X171038572Y-93647239D01*
X171038571Y-93647239D01*
X170859307Y-93592860D01*
X170859303Y-93592858D01*
X170694097Y-93504554D01*
X170549288Y-93385712D01*
X170430446Y-93240903D01*
X170342142Y-93075697D01*
X170342142Y-93075696D01*
X170342140Y-93075693D01*
X170287761Y-92896429D01*
X170287761Y-92896428D01*
X170287760Y-92896425D01*
X170269399Y-92710000D01*
X170287760Y-92523575D01*
X170287761Y-92523571D01*
X170342140Y-92344307D01*
X170387452Y-92259534D01*
X170430446Y-92179097D01*
X170549288Y-92034288D01*
X170694097Y-91915446D01*
X170859303Y-91827142D01*
X170859304Y-91827142D01*
X170859307Y-91827140D01*
X171038571Y-91772761D01*
X171038572Y-91772761D01*
X171038575Y-91772760D01*
X171178282Y-91759000D01*
X171721718Y-91759000D01*
X171861425Y-91772760D01*
G37*
G36*
X166781425Y-91772760D02*
G01*
X166781428Y-91772761D01*
X166781429Y-91772761D01*
X166960693Y-91827140D01*
X166960696Y-91827142D01*
X166960697Y-91827142D01*
X167125903Y-91915446D01*
X167270712Y-92034288D01*
X167389554Y-92179097D01*
X167432548Y-92259534D01*
X167477860Y-92344307D01*
X167532239Y-92523571D01*
X167532240Y-92523575D01*
X167550601Y-92710000D01*
X167532240Y-92896425D01*
X167532239Y-92896428D01*
X167532239Y-92896429D01*
X167477860Y-93075693D01*
X167477858Y-93075696D01*
X167477858Y-93075697D01*
X167389554Y-93240903D01*
X167270712Y-93385712D01*
X167125903Y-93504554D01*
X166960697Y-93592858D01*
X166960693Y-93592860D01*
X166781429Y-93647239D01*
X166781428Y-93647239D01*
X166781425Y-93647240D01*
X166641718Y-93661000D01*
X166098282Y-93661000D01*
X165958575Y-93647240D01*
X165958572Y-93647239D01*
X165958571Y-93647239D01*
X165779307Y-93592860D01*
X165779303Y-93592858D01*
X165614097Y-93504554D01*
X165469288Y-93385712D01*
X165350446Y-93240903D01*
X165262142Y-93075697D01*
X165262142Y-93075696D01*
X165262140Y-93075693D01*
X165207761Y-92896429D01*
X165207761Y-92896428D01*
X165207760Y-92896425D01*
X165189399Y-92710000D01*
X165207760Y-92523575D01*
X165207761Y-92523571D01*
X165262140Y-92344307D01*
X165307452Y-92259534D01*
X165350446Y-92179097D01*
X165469288Y-92034288D01*
X165614097Y-91915446D01*
X165779303Y-91827142D01*
X165779304Y-91827142D01*
X165779307Y-91827140D01*
X165958571Y-91772761D01*
X165958572Y-91772761D01*
X165958575Y-91772760D01*
X166098282Y-91759000D01*
X166641718Y-91759000D01*
X166781425Y-91772760D01*
G37*
G36*
X157757395Y-91795546D02*
G01*
X157930466Y-91867234D01*
X157930467Y-91867235D01*
X158086227Y-91971310D01*
X158218690Y-92103773D01*
X158269020Y-92179097D01*
X158322766Y-92259534D01*
X158394454Y-92432605D01*
X158431000Y-92616333D01*
X158431000Y-92803667D01*
X158394454Y-92987395D01*
X158322766Y-93160466D01*
X158322765Y-93160467D01*
X158218690Y-93316227D01*
X158086227Y-93448690D01*
X158007818Y-93501081D01*
X157930466Y-93552766D01*
X157757395Y-93624454D01*
X157573667Y-93661000D01*
X157386333Y-93661000D01*
X157202605Y-93624454D01*
X157029534Y-93552766D01*
X156952182Y-93501081D01*
X156873773Y-93448690D01*
X156741310Y-93316227D01*
X156637235Y-93160467D01*
X156637234Y-93160466D01*
X156565546Y-92987395D01*
X156529000Y-92803667D01*
X156529000Y-92616333D01*
X156565546Y-92432605D01*
X156637234Y-92259534D01*
X156690980Y-92179097D01*
X156741310Y-92103773D01*
X156873773Y-91971310D01*
X157029533Y-91867235D01*
X157029534Y-91867234D01*
X157202605Y-91795546D01*
X157386333Y-91759000D01*
X157573667Y-91759000D01*
X157757395Y-91795546D01*
G37*
G36*
X154257395Y-91795546D02*
G01*
X154430466Y-91867234D01*
X154430467Y-91867235D01*
X154586227Y-91971310D01*
X154718690Y-92103773D01*
X154769020Y-92179097D01*
X154822766Y-92259534D01*
X154894454Y-92432605D01*
X154931000Y-92616333D01*
X154931000Y-92803667D01*
X154894454Y-92987395D01*
X154822766Y-93160466D01*
X154822765Y-93160467D01*
X154718690Y-93316227D01*
X154586227Y-93448690D01*
X154507818Y-93501081D01*
X154430466Y-93552766D01*
X154257395Y-93624454D01*
X154073667Y-93661000D01*
X153886333Y-93661000D01*
X153702605Y-93624454D01*
X153529534Y-93552766D01*
X153452182Y-93501081D01*
X153373773Y-93448690D01*
X153241310Y-93316227D01*
X153137235Y-93160467D01*
X153137234Y-93160466D01*
X153065546Y-92987395D01*
X153029000Y-92803667D01*
X153029000Y-92616333D01*
X153065546Y-92432605D01*
X153137234Y-92259534D01*
X153190980Y-92179097D01*
X153241310Y-92103773D01*
X153373773Y-91971310D01*
X153529533Y-91867235D01*
X153529534Y-91867234D01*
X153702605Y-91795546D01*
X153886333Y-91759000D01*
X154073667Y-91759000D01*
X154257395Y-91795546D01*
G37*
G36*
X175566564Y-90429389D02*
G01*
X175757833Y-90508615D01*
X175757835Y-90508616D01*
X175922394Y-90618571D01*
X175929973Y-90623635D01*
X176076365Y-90770027D01*
X176191385Y-90942167D01*
X176270611Y-91133436D01*
X176311000Y-91336484D01*
X176311000Y-91543516D01*
X176270611Y-91746564D01*
X176191385Y-91937833D01*
X176191384Y-91937835D01*
X176076365Y-92109973D01*
X175929973Y-92256365D01*
X175757835Y-92371384D01*
X175757834Y-92371385D01*
X175757833Y-92371385D01*
X175566564Y-92450611D01*
X175363516Y-92491000D01*
X175156484Y-92491000D01*
X174953436Y-92450611D01*
X174762167Y-92371385D01*
X174762166Y-92371385D01*
X174762165Y-92371384D01*
X174590027Y-92256365D01*
X174443635Y-92109973D01*
X174328616Y-91937835D01*
X174328615Y-91937833D01*
X174249389Y-91746564D01*
X174209000Y-91543516D01*
X174209000Y-91336484D01*
X174249389Y-91133436D01*
X174328615Y-90942167D01*
X174443635Y-90770027D01*
X174590027Y-90623635D01*
X174597606Y-90618571D01*
X174762165Y-90508616D01*
X174762167Y-90508615D01*
X174953436Y-90429389D01*
X175156484Y-90389000D01*
X175363516Y-90389000D01*
X175566564Y-90429389D01*
G37*
G36*
X188246425Y-89867760D02*
G01*
X188246428Y-89867761D01*
X188246429Y-89867761D01*
X188425693Y-89922140D01*
X188425696Y-89922142D01*
X188425697Y-89922142D01*
X188590903Y-90010446D01*
X188735712Y-90129288D01*
X188854554Y-90274097D01*
X188937559Y-90429389D01*
X188942860Y-90439307D01*
X188997239Y-90618571D01*
X188997240Y-90618575D01*
X189015601Y-90805000D01*
X188997240Y-90991425D01*
X188997239Y-90991428D01*
X188997239Y-90991429D01*
X188942860Y-91170693D01*
X188942858Y-91170696D01*
X188942858Y-91170697D01*
X188854554Y-91335903D01*
X188735712Y-91480712D01*
X188590903Y-91599554D01*
X188425697Y-91687858D01*
X188425693Y-91687860D01*
X188246429Y-91742239D01*
X188246428Y-91742239D01*
X188246425Y-91742240D01*
X188106718Y-91756000D01*
X187813282Y-91756000D01*
X187673575Y-91742240D01*
X187673572Y-91742239D01*
X187673571Y-91742239D01*
X187494307Y-91687860D01*
X187494303Y-91687858D01*
X187329097Y-91599554D01*
X187184288Y-91480712D01*
X187065446Y-91335903D01*
X186977142Y-91170697D01*
X186977142Y-91170696D01*
X186977140Y-91170693D01*
X186922761Y-90991429D01*
X186922761Y-90991428D01*
X186922760Y-90991425D01*
X186904399Y-90805000D01*
X186922760Y-90618575D01*
X186922761Y-90618571D01*
X186977140Y-90439307D01*
X186982441Y-90429389D01*
X187065446Y-90274097D01*
X187184288Y-90129288D01*
X187329097Y-90010446D01*
X187494303Y-89922142D01*
X187494304Y-89922142D01*
X187494307Y-89922140D01*
X187673571Y-89867761D01*
X187673572Y-89867761D01*
X187673575Y-89867760D01*
X187813282Y-89854000D01*
X188106718Y-89854000D01*
X188246425Y-89867760D01*
G37*
G36*
X166781425Y-89232760D02*
G01*
X166781428Y-89232761D01*
X166781429Y-89232761D01*
X166960693Y-89287140D01*
X166960696Y-89287142D01*
X166960697Y-89287142D01*
X167125903Y-89375446D01*
X167270712Y-89494288D01*
X167389554Y-89639097D01*
X167430854Y-89716365D01*
X167477860Y-89804307D01*
X167532239Y-89983571D01*
X167532240Y-89983575D01*
X167550601Y-90170000D01*
X167532240Y-90356425D01*
X167532239Y-90356428D01*
X167532239Y-90356429D01*
X167477860Y-90535693D01*
X167477858Y-90535696D01*
X167477858Y-90535697D01*
X167389554Y-90700903D01*
X167270712Y-90845712D01*
X167125903Y-90964554D01*
X166960697Y-91052858D01*
X166960693Y-91052860D01*
X166781429Y-91107239D01*
X166781428Y-91107239D01*
X166781425Y-91107240D01*
X166641718Y-91121000D01*
X166098282Y-91121000D01*
X165958575Y-91107240D01*
X165958572Y-91107239D01*
X165958571Y-91107239D01*
X165779307Y-91052860D01*
X165779303Y-91052858D01*
X165614097Y-90964554D01*
X165469288Y-90845712D01*
X165350446Y-90700903D01*
X165262142Y-90535697D01*
X165262142Y-90535696D01*
X165262140Y-90535693D01*
X165207761Y-90356429D01*
X165207761Y-90356428D01*
X165207760Y-90356425D01*
X165189399Y-90170000D01*
X165207760Y-89983575D01*
X165207761Y-89983571D01*
X165262140Y-89804307D01*
X165309146Y-89716365D01*
X165350446Y-89639097D01*
X165469288Y-89494288D01*
X165614097Y-89375446D01*
X165779303Y-89287142D01*
X165779304Y-89287142D01*
X165779307Y-89287140D01*
X165958571Y-89232761D01*
X165958572Y-89232761D01*
X165958575Y-89232760D01*
X166098282Y-89219000D01*
X166641718Y-89219000D01*
X166781425Y-89232760D01*
G37*
G36*
X171861425Y-89232760D02*
G01*
X171861428Y-89232761D01*
X171861429Y-89232761D01*
X172040693Y-89287140D01*
X172040696Y-89287142D01*
X172040697Y-89287142D01*
X172205903Y-89375446D01*
X172350712Y-89494288D01*
X172469554Y-89639097D01*
X172510854Y-89716365D01*
X172557860Y-89804307D01*
X172612239Y-89983571D01*
X172612240Y-89983575D01*
X172630601Y-90170000D01*
X172612240Y-90356425D01*
X172612239Y-90356428D01*
X172612239Y-90356429D01*
X172557860Y-90535693D01*
X172557858Y-90535696D01*
X172557858Y-90535697D01*
X172469554Y-90700903D01*
X172350712Y-90845712D01*
X172205903Y-90964554D01*
X172040697Y-91052858D01*
X172040693Y-91052860D01*
X171861429Y-91107239D01*
X171861428Y-91107239D01*
X171861425Y-91107240D01*
X171721718Y-91121000D01*
X171178282Y-91121000D01*
X171038575Y-91107240D01*
X171038572Y-91107239D01*
X171038571Y-91107239D01*
X170859307Y-91052860D01*
X170859303Y-91052858D01*
X170694097Y-90964554D01*
X170549288Y-90845712D01*
X170430446Y-90700903D01*
X170342142Y-90535697D01*
X170342142Y-90535696D01*
X170342140Y-90535693D01*
X170287761Y-90356429D01*
X170287761Y-90356428D01*
X170287760Y-90356425D01*
X170269399Y-90170000D01*
X170287760Y-89983575D01*
X170287761Y-89983571D01*
X170342140Y-89804307D01*
X170389146Y-89716365D01*
X170430446Y-89639097D01*
X170549288Y-89494288D01*
X170694097Y-89375446D01*
X170859303Y-89287142D01*
X170859304Y-89287142D01*
X170859307Y-89287140D01*
X171038571Y-89232761D01*
X171038572Y-89232761D01*
X171038575Y-89232760D01*
X171178282Y-89219000D01*
X171721718Y-89219000D01*
X171861425Y-89232760D01*
G37*
G36*
X162971425Y-89232760D02*
G01*
X162971428Y-89232761D01*
X162971429Y-89232761D01*
X163150693Y-89287140D01*
X163150696Y-89287142D01*
X163150697Y-89287142D01*
X163315903Y-89375446D01*
X163460712Y-89494288D01*
X163579554Y-89639097D01*
X163620854Y-89716365D01*
X163667860Y-89804307D01*
X163722239Y-89983571D01*
X163722240Y-89983575D01*
X163740601Y-90170000D01*
X163722240Y-90356425D01*
X163722239Y-90356428D01*
X163722239Y-90356429D01*
X163667860Y-90535693D01*
X163667858Y-90535696D01*
X163667858Y-90535697D01*
X163579554Y-90700903D01*
X163460712Y-90845712D01*
X163315903Y-90964554D01*
X163150697Y-91052858D01*
X163150693Y-91052860D01*
X162971429Y-91107239D01*
X162971428Y-91107239D01*
X162971425Y-91107240D01*
X162831718Y-91121000D01*
X162288282Y-91121000D01*
X162148575Y-91107240D01*
X162148572Y-91107239D01*
X162148571Y-91107239D01*
X161969307Y-91052860D01*
X161969303Y-91052858D01*
X161804097Y-90964554D01*
X161659288Y-90845712D01*
X161540446Y-90700903D01*
X161452142Y-90535697D01*
X161452142Y-90535696D01*
X161452140Y-90535693D01*
X161397761Y-90356429D01*
X161397761Y-90356428D01*
X161397760Y-90356425D01*
X161379399Y-90170000D01*
X161397760Y-89983575D01*
X161397761Y-89983571D01*
X161452140Y-89804307D01*
X161499146Y-89716365D01*
X161540446Y-89639097D01*
X161659288Y-89494288D01*
X161804097Y-89375446D01*
X161969303Y-89287142D01*
X161969304Y-89287142D01*
X161969307Y-89287140D01*
X162148571Y-89232761D01*
X162148572Y-89232761D01*
X162148575Y-89232760D01*
X162288282Y-89219000D01*
X162831718Y-89219000D01*
X162971425Y-89232760D01*
G37*
G36*
X148896564Y-87889389D02*
G01*
X149087833Y-87968615D01*
X149087835Y-87968616D01*
X149252394Y-88078571D01*
X149259973Y-88083635D01*
X149406365Y-88230027D01*
X149521385Y-88402167D01*
X149600611Y-88593436D01*
X149641000Y-88796484D01*
X149641000Y-89003516D01*
X149600611Y-89206564D01*
X149521385Y-89397833D01*
X149521384Y-89397835D01*
X149406365Y-89569973D01*
X149259973Y-89716365D01*
X149087835Y-89831384D01*
X149087834Y-89831385D01*
X149087833Y-89831385D01*
X148896564Y-89910611D01*
X148693516Y-89951000D01*
X148486484Y-89951000D01*
X148283436Y-89910611D01*
X148092167Y-89831385D01*
X148092166Y-89831385D01*
X148092165Y-89831384D01*
X147920027Y-89716365D01*
X147773635Y-89569973D01*
X147658616Y-89397835D01*
X147658615Y-89397833D01*
X147579389Y-89206564D01*
X147539000Y-89003516D01*
X147539000Y-88796484D01*
X147579389Y-88593436D01*
X147658615Y-88402167D01*
X147773635Y-88230027D01*
X147920027Y-88083635D01*
X147927606Y-88078571D01*
X148092165Y-87968616D01*
X148092167Y-87968615D01*
X148283436Y-87889389D01*
X148486484Y-87849000D01*
X148693516Y-87849000D01*
X148896564Y-87889389D01*
G37*
G36*
X188246425Y-87327760D02*
G01*
X188246428Y-87327761D01*
X188246429Y-87327761D01*
X188425693Y-87382140D01*
X188425696Y-87382142D01*
X188425697Y-87382142D01*
X188590903Y-87470446D01*
X188735712Y-87589288D01*
X188854554Y-87734097D01*
X188937559Y-87889389D01*
X188942860Y-87899307D01*
X188997239Y-88078571D01*
X188997240Y-88078575D01*
X189015601Y-88265000D01*
X188997240Y-88451425D01*
X188997239Y-88451428D01*
X188997239Y-88451429D01*
X188942860Y-88630693D01*
X188942858Y-88630696D01*
X188942858Y-88630697D01*
X188854554Y-88795903D01*
X188735712Y-88940712D01*
X188590903Y-89059554D01*
X188425697Y-89147858D01*
X188425693Y-89147860D01*
X188246429Y-89202239D01*
X188246428Y-89202239D01*
X188246425Y-89202240D01*
X188106718Y-89216000D01*
X187813282Y-89216000D01*
X187673575Y-89202240D01*
X187673572Y-89202239D01*
X187673571Y-89202239D01*
X187494307Y-89147860D01*
X187494303Y-89147858D01*
X187329097Y-89059554D01*
X187184288Y-88940712D01*
X187065446Y-88795903D01*
X186977142Y-88630697D01*
X186977142Y-88630696D01*
X186977140Y-88630693D01*
X186922761Y-88451429D01*
X186922761Y-88451428D01*
X186922760Y-88451425D01*
X186904399Y-88265000D01*
X186922760Y-88078575D01*
X186922761Y-88078571D01*
X186977140Y-87899307D01*
X186982441Y-87889389D01*
X187065446Y-87734097D01*
X187184288Y-87589288D01*
X187329097Y-87470446D01*
X187494303Y-87382142D01*
X187494304Y-87382142D01*
X187494307Y-87382140D01*
X187673571Y-87327761D01*
X187673572Y-87327761D01*
X187673575Y-87327760D01*
X187813282Y-87314000D01*
X188106718Y-87314000D01*
X188246425Y-87327760D01*
G37*
G36*
X171861425Y-86692760D02*
G01*
X171861428Y-86692761D01*
X171861429Y-86692761D01*
X172040693Y-86747140D01*
X172040696Y-86747142D01*
X172040697Y-86747142D01*
X172205903Y-86835446D01*
X172350712Y-86954288D01*
X172469554Y-87099097D01*
X172510854Y-87176365D01*
X172557860Y-87264307D01*
X172612239Y-87443571D01*
X172612240Y-87443575D01*
X172630601Y-87630000D01*
X172612240Y-87816425D01*
X172612239Y-87816428D01*
X172612239Y-87816429D01*
X172557860Y-87995693D01*
X172557858Y-87995696D01*
X172557858Y-87995697D01*
X172469554Y-88160903D01*
X172350712Y-88305712D01*
X172205903Y-88424554D01*
X172040697Y-88512858D01*
X172040693Y-88512860D01*
X171861429Y-88567239D01*
X171861428Y-88567239D01*
X171861425Y-88567240D01*
X171721718Y-88581000D01*
X171178282Y-88581000D01*
X171038575Y-88567240D01*
X171038572Y-88567239D01*
X171038571Y-88567239D01*
X170859307Y-88512860D01*
X170859303Y-88512858D01*
X170694097Y-88424554D01*
X170549288Y-88305712D01*
X170430446Y-88160903D01*
X170342142Y-87995697D01*
X170342142Y-87995696D01*
X170342140Y-87995693D01*
X170287761Y-87816429D01*
X170287761Y-87816428D01*
X170287760Y-87816425D01*
X170269399Y-87630000D01*
X170287760Y-87443575D01*
X170287761Y-87443571D01*
X170342140Y-87264307D01*
X170389146Y-87176365D01*
X170430446Y-87099097D01*
X170549288Y-86954288D01*
X170694097Y-86835446D01*
X170859303Y-86747142D01*
X170859304Y-86747142D01*
X170859307Y-86747140D01*
X171038571Y-86692761D01*
X171038572Y-86692761D01*
X171038575Y-86692760D01*
X171178282Y-86679000D01*
X171721718Y-86679000D01*
X171861425Y-86692760D01*
G37*
G36*
X165406564Y-85349389D02*
G01*
X165597833Y-85428615D01*
X165597835Y-85428616D01*
X165762394Y-85538571D01*
X165769973Y-85543635D01*
X165916365Y-85690027D01*
X166031385Y-85862167D01*
X166110611Y-86053436D01*
X166151000Y-86256484D01*
X166151000Y-86463516D01*
X166110611Y-86666564D01*
X166031385Y-86857833D01*
X166031384Y-86857835D01*
X165916365Y-87029973D01*
X165769973Y-87176365D01*
X165597835Y-87291384D01*
X165597834Y-87291385D01*
X165597833Y-87291385D01*
X165406564Y-87370611D01*
X165203516Y-87411000D01*
X164996484Y-87411000D01*
X164793436Y-87370611D01*
X164602167Y-87291385D01*
X164602166Y-87291385D01*
X164602165Y-87291384D01*
X164430027Y-87176365D01*
X164283635Y-87029973D01*
X164168616Y-86857835D01*
X164168615Y-86857833D01*
X164089389Y-86666564D01*
X164049000Y-86463516D01*
X164049000Y-86256484D01*
X164089389Y-86053436D01*
X164168615Y-85862167D01*
X164283635Y-85690027D01*
X164430027Y-85543635D01*
X164437606Y-85538571D01*
X164602165Y-85428616D01*
X164602167Y-85428615D01*
X164793436Y-85349389D01*
X164996484Y-85309000D01*
X165203516Y-85309000D01*
X165406564Y-85349389D01*
G37*
G36*
X157786564Y-85349389D02*
G01*
X157977833Y-85428615D01*
X157977835Y-85428616D01*
X158142394Y-85538571D01*
X158149973Y-85543635D01*
X158296365Y-85690027D01*
X158411385Y-85862167D01*
X158490611Y-86053436D01*
X158531000Y-86256484D01*
X158531000Y-86463516D01*
X158490611Y-86666564D01*
X158411385Y-86857833D01*
X158411384Y-86857835D01*
X158296365Y-87029973D01*
X158149973Y-87176365D01*
X157977835Y-87291384D01*
X157977834Y-87291385D01*
X157977833Y-87291385D01*
X157786564Y-87370611D01*
X157583516Y-87411000D01*
X157376484Y-87411000D01*
X157173436Y-87370611D01*
X156982167Y-87291385D01*
X156982166Y-87291385D01*
X156982165Y-87291384D01*
X156810027Y-87176365D01*
X156663635Y-87029973D01*
X156548616Y-86857835D01*
X156548615Y-86857833D01*
X156469389Y-86666564D01*
X156429000Y-86463516D01*
X156429000Y-86256484D01*
X156469389Y-86053436D01*
X156548615Y-85862167D01*
X156663635Y-85690027D01*
X156810027Y-85543635D01*
X156817606Y-85538571D01*
X156982165Y-85428616D01*
X156982167Y-85428615D01*
X157173436Y-85349389D01*
X157376484Y-85309000D01*
X157583516Y-85309000D01*
X157786564Y-85349389D01*
G37*
G36*
X188246425Y-84787760D02*
G01*
X188246428Y-84787761D01*
X188246429Y-84787761D01*
X188425693Y-84842140D01*
X188425696Y-84842142D01*
X188425697Y-84842142D01*
X188590903Y-84930446D01*
X188735712Y-85049288D01*
X188854554Y-85194097D01*
X188937559Y-85349389D01*
X188942860Y-85359307D01*
X188997239Y-85538571D01*
X188997240Y-85538575D01*
X189015601Y-85725000D01*
X188997240Y-85911425D01*
X188997239Y-85911428D01*
X188997239Y-85911429D01*
X188942860Y-86090693D01*
X188942858Y-86090696D01*
X188942858Y-86090697D01*
X188854554Y-86255903D01*
X188735712Y-86400712D01*
X188590903Y-86519554D01*
X188425697Y-86607858D01*
X188425693Y-86607860D01*
X188246429Y-86662239D01*
X188246428Y-86662239D01*
X188246425Y-86662240D01*
X188106718Y-86676000D01*
X187813282Y-86676000D01*
X187673575Y-86662240D01*
X187673572Y-86662239D01*
X187673571Y-86662239D01*
X187494307Y-86607860D01*
X187494303Y-86607858D01*
X187329097Y-86519554D01*
X187184288Y-86400712D01*
X187065446Y-86255903D01*
X186977142Y-86090697D01*
X186977142Y-86090696D01*
X186977140Y-86090693D01*
X186922761Y-85911429D01*
X186922761Y-85911428D01*
X186922760Y-85911425D01*
X186904399Y-85725000D01*
X186922760Y-85538575D01*
X186922761Y-85538571D01*
X186977140Y-85359307D01*
X186982441Y-85349389D01*
X187065446Y-85194097D01*
X187184288Y-85049288D01*
X187329097Y-84930446D01*
X187494303Y-84842142D01*
X187494304Y-84842142D01*
X187494307Y-84842140D01*
X187673571Y-84787761D01*
X187673572Y-84787761D01*
X187673575Y-84787760D01*
X187813282Y-84774000D01*
X188106718Y-84774000D01*
X188246425Y-84787760D01*
G37*
G36*
X153545740Y-86235740D02*
G01*
X147444260Y-86235740D01*
X147444260Y-80134260D01*
X153545740Y-80134260D01*
X153545740Y-86235740D01*
G37*
G36*
X170591425Y-84152760D02*
G01*
X170591428Y-84152761D01*
X170591429Y-84152761D01*
X170770693Y-84207140D01*
X170770696Y-84207142D01*
X170770697Y-84207142D01*
X170935903Y-84295446D01*
X171080712Y-84414288D01*
X171199554Y-84559097D01*
X171240854Y-84636365D01*
X171287860Y-84724307D01*
X171342239Y-84903571D01*
X171342240Y-84903575D01*
X171360601Y-85090000D01*
X171342240Y-85276425D01*
X171342239Y-85276428D01*
X171342239Y-85276429D01*
X171287860Y-85455693D01*
X171287858Y-85455696D01*
X171287858Y-85455697D01*
X171199554Y-85620903D01*
X171080712Y-85765712D01*
X170935903Y-85884554D01*
X170770697Y-85972858D01*
X170770693Y-85972860D01*
X170591429Y-86027239D01*
X170591428Y-86027239D01*
X170591425Y-86027240D01*
X170451718Y-86041000D01*
X169908282Y-86041000D01*
X169768575Y-86027240D01*
X169768572Y-86027239D01*
X169768571Y-86027239D01*
X169589307Y-85972860D01*
X169589303Y-85972858D01*
X169424097Y-85884554D01*
X169279288Y-85765712D01*
X169160446Y-85620903D01*
X169072142Y-85455697D01*
X169072142Y-85455696D01*
X169072140Y-85455693D01*
X169017761Y-85276429D01*
X169017761Y-85276428D01*
X169017760Y-85276425D01*
X168999399Y-85090000D01*
X169017760Y-84903575D01*
X169017761Y-84903571D01*
X169072140Y-84724307D01*
X169119146Y-84636365D01*
X169160446Y-84559097D01*
X169279288Y-84414288D01*
X169424097Y-84295446D01*
X169589303Y-84207142D01*
X169589304Y-84207142D01*
X169589307Y-84207140D01*
X169768571Y-84152761D01*
X169768572Y-84152761D01*
X169768575Y-84152760D01*
X169908282Y-84139000D01*
X170451718Y-84139000D01*
X170591425Y-84152760D01*
G37*
G36*
X175566564Y-82809389D02*
G01*
X175757833Y-82888615D01*
X175757835Y-82888616D01*
X175866800Y-82961424D01*
X175929973Y-83003635D01*
X176076365Y-83150027D01*
X176191385Y-83322167D01*
X176270611Y-83513436D01*
X176311000Y-83716484D01*
X176311000Y-83923516D01*
X176270611Y-84126564D01*
X176191385Y-84317833D01*
X176191384Y-84317835D01*
X176076365Y-84489973D01*
X175929973Y-84636365D01*
X175757835Y-84751384D01*
X175757834Y-84751385D01*
X175757833Y-84751385D01*
X175566564Y-84830611D01*
X175363516Y-84871000D01*
X175156484Y-84871000D01*
X174953436Y-84830611D01*
X174762167Y-84751385D01*
X174762166Y-84751385D01*
X174762165Y-84751384D01*
X174590027Y-84636365D01*
X174443635Y-84489973D01*
X174328616Y-84317835D01*
X174328615Y-84317833D01*
X174249389Y-84126564D01*
X174209000Y-83923516D01*
X174209000Y-83716484D01*
X174249389Y-83513436D01*
X174328615Y-83322167D01*
X174443635Y-83150027D01*
X174590027Y-83003635D01*
X174653200Y-82961424D01*
X174762165Y-82888616D01*
X174762167Y-82888615D01*
X174953436Y-82809389D01*
X175156484Y-82769000D01*
X175363516Y-82769000D01*
X175566564Y-82809389D01*
G37*
G36*
X158936425Y-81387760D02*
G01*
X158936428Y-81387761D01*
X158936429Y-81387761D01*
X159115693Y-81442140D01*
X159115696Y-81442142D01*
X159115697Y-81442142D01*
X159280903Y-81530446D01*
X159425712Y-81649288D01*
X159544554Y-81794097D01*
X159607788Y-81912401D01*
X159632860Y-81959307D01*
X159687239Y-82138571D01*
X159687239Y-82138574D01*
X159687240Y-82138576D01*
X159701000Y-82278283D01*
X159701000Y-82821718D01*
X159687240Y-82961425D01*
X159687239Y-82961428D01*
X159687239Y-82961429D01*
X159632860Y-83140693D01*
X159632858Y-83140696D01*
X159632858Y-83140697D01*
X159544554Y-83305903D01*
X159425712Y-83450712D01*
X159280903Y-83569554D01*
X159115696Y-83657858D01*
X159115692Y-83657860D01*
X158936428Y-83712239D01*
X158936427Y-83712239D01*
X158936424Y-83712240D01*
X158750000Y-83730601D01*
X158563575Y-83712240D01*
X158563572Y-83712239D01*
X158563571Y-83712239D01*
X158384307Y-83657860D01*
X158384303Y-83657858D01*
X158219097Y-83569554D01*
X158074288Y-83450712D01*
X157955446Y-83305903D01*
X157867142Y-83140696D01*
X157867141Y-83140693D01*
X157867140Y-83140692D01*
X157812761Y-82961428D01*
X157812761Y-82961427D01*
X157812760Y-82961424D01*
X157799000Y-82821717D01*
X157799000Y-82278282D01*
X157812760Y-82138575D01*
X157849003Y-82019097D01*
X157867140Y-81959307D01*
X157912584Y-81874288D01*
X157955448Y-81794096D01*
X158074289Y-81649288D01*
X158219098Y-81530446D01*
X158384304Y-81442142D01*
X158384305Y-81442142D01*
X158384308Y-81442140D01*
X158563572Y-81387761D01*
X158563573Y-81387761D01*
X158563576Y-81387760D01*
X158750000Y-81369399D01*
X158936425Y-81387760D01*
G37*
G36*
X156436425Y-81387760D02*
G01*
X156436428Y-81387761D01*
X156436429Y-81387761D01*
X156615693Y-81442140D01*
X156615696Y-81442142D01*
X156615697Y-81442142D01*
X156780903Y-81530446D01*
X156925712Y-81649288D01*
X157044554Y-81794097D01*
X157107788Y-81912401D01*
X157132860Y-81959307D01*
X157187239Y-82138571D01*
X157187239Y-82138574D01*
X157187240Y-82138576D01*
X157201000Y-82278283D01*
X157201000Y-82821718D01*
X157187240Y-82961425D01*
X157187239Y-82961428D01*
X157187239Y-82961429D01*
X157132860Y-83140693D01*
X157132858Y-83140696D01*
X157132858Y-83140697D01*
X157044554Y-83305903D01*
X156925712Y-83450712D01*
X156780903Y-83569554D01*
X156615696Y-83657858D01*
X156615692Y-83657860D01*
X156436428Y-83712239D01*
X156436427Y-83712239D01*
X156436424Y-83712240D01*
X156250000Y-83730601D01*
X156063575Y-83712240D01*
X156063572Y-83712239D01*
X156063571Y-83712239D01*
X155884307Y-83657860D01*
X155884303Y-83657858D01*
X155719097Y-83569554D01*
X155574288Y-83450712D01*
X155455446Y-83305903D01*
X155367142Y-83140696D01*
X155367141Y-83140693D01*
X155367140Y-83140692D01*
X155312761Y-82961428D01*
X155312761Y-82961427D01*
X155312760Y-82961424D01*
X155299000Y-82821717D01*
X155299000Y-82278282D01*
X155312760Y-82138575D01*
X155349003Y-82019097D01*
X155367140Y-81959307D01*
X155412584Y-81874288D01*
X155455448Y-81794096D01*
X155574289Y-81649288D01*
X155719098Y-81530446D01*
X155884304Y-81442142D01*
X155884305Y-81442142D01*
X155884308Y-81442140D01*
X156063572Y-81387761D01*
X156063573Y-81387761D01*
X156063576Y-81387760D01*
X156250000Y-81369399D01*
X156436425Y-81387760D01*
G37*
G36*
X170591425Y-81612760D02*
G01*
X170591428Y-81612761D01*
X170591429Y-81612761D01*
X170770693Y-81667140D01*
X170770696Y-81667142D01*
X170770697Y-81667142D01*
X170935903Y-81755446D01*
X171080712Y-81874288D01*
X171199554Y-82019097D01*
X171287858Y-82184303D01*
X171287860Y-82184307D01*
X171316367Y-82278283D01*
X171342240Y-82363575D01*
X171360601Y-82550000D01*
X171342240Y-82736425D01*
X171342239Y-82736428D01*
X171342239Y-82736429D01*
X171287860Y-82915693D01*
X171287858Y-82915696D01*
X171287858Y-82915697D01*
X171199554Y-83080903D01*
X171080712Y-83225712D01*
X170935903Y-83344554D01*
X170770697Y-83432858D01*
X170770693Y-83432860D01*
X170591429Y-83487239D01*
X170591428Y-83487239D01*
X170591425Y-83487240D01*
X170451718Y-83501000D01*
X169908282Y-83501000D01*
X169768575Y-83487240D01*
X169768572Y-83487239D01*
X169768571Y-83487239D01*
X169589307Y-83432860D01*
X169589303Y-83432858D01*
X169424097Y-83344554D01*
X169279288Y-83225712D01*
X169160446Y-83080903D01*
X169072142Y-82915697D01*
X169072142Y-82915696D01*
X169072140Y-82915693D01*
X169017761Y-82736429D01*
X169017761Y-82736428D01*
X169017760Y-82736425D01*
X168999399Y-82550000D01*
X169017760Y-82363575D01*
X169043633Y-82278283D01*
X169072140Y-82184307D01*
X169072142Y-82184303D01*
X169160446Y-82019097D01*
X169279288Y-81874288D01*
X169424097Y-81755446D01*
X169589303Y-81667142D01*
X169589304Y-81667142D01*
X169589307Y-81667140D01*
X169768571Y-81612761D01*
X169768572Y-81612761D01*
X169768575Y-81612760D01*
X169908282Y-81599000D01*
X170451718Y-81599000D01*
X170591425Y-81612760D01*
G37*
G36*
X162336425Y-81612760D02*
G01*
X162336428Y-81612761D01*
X162336429Y-81612761D01*
X162515693Y-81667140D01*
X162515696Y-81667142D01*
X162515697Y-81667142D01*
X162680903Y-81755446D01*
X162825712Y-81874288D01*
X162944554Y-82019097D01*
X163032858Y-82184303D01*
X163032860Y-82184307D01*
X163061367Y-82278283D01*
X163087240Y-82363575D01*
X163105601Y-82550000D01*
X163087240Y-82736425D01*
X163087239Y-82736428D01*
X163087239Y-82736429D01*
X163032860Y-82915693D01*
X163032858Y-82915696D01*
X163032858Y-82915697D01*
X162944554Y-83080903D01*
X162825712Y-83225712D01*
X162680903Y-83344554D01*
X162515697Y-83432858D01*
X162515693Y-83432860D01*
X162336429Y-83487239D01*
X162336428Y-83487239D01*
X162336425Y-83487240D01*
X162196718Y-83501000D01*
X161653282Y-83501000D01*
X161513575Y-83487240D01*
X161513572Y-83487239D01*
X161513571Y-83487239D01*
X161334307Y-83432860D01*
X161334303Y-83432858D01*
X161169097Y-83344554D01*
X161024288Y-83225712D01*
X160905446Y-83080903D01*
X160817142Y-82915697D01*
X160817142Y-82915696D01*
X160817140Y-82915693D01*
X160762761Y-82736429D01*
X160762761Y-82736428D01*
X160762760Y-82736425D01*
X160744399Y-82550000D01*
X160762760Y-82363575D01*
X160788633Y-82278283D01*
X160817140Y-82184307D01*
X160817142Y-82184303D01*
X160905446Y-82019097D01*
X161024288Y-81874288D01*
X161169097Y-81755446D01*
X161334303Y-81667142D01*
X161334304Y-81667142D01*
X161334307Y-81667140D01*
X161513571Y-81612761D01*
X161513572Y-81612761D01*
X161513575Y-81612760D01*
X161653282Y-81599000D01*
X162196718Y-81599000D01*
X162336425Y-81612760D01*
G37*
G36*
X166146425Y-81612760D02*
G01*
X166146428Y-81612761D01*
X166146429Y-81612761D01*
X166325693Y-81667140D01*
X166325696Y-81667142D01*
X166325697Y-81667142D01*
X166490903Y-81755446D01*
X166635712Y-81874288D01*
X166754554Y-82019097D01*
X166842858Y-82184303D01*
X166842860Y-82184307D01*
X166871367Y-82278283D01*
X166897240Y-82363575D01*
X166915601Y-82550000D01*
X166897240Y-82736425D01*
X166897239Y-82736428D01*
X166897239Y-82736429D01*
X166842860Y-82915693D01*
X166842858Y-82915696D01*
X166842858Y-82915697D01*
X166754554Y-83080903D01*
X166635712Y-83225712D01*
X166490903Y-83344554D01*
X166325697Y-83432858D01*
X166325693Y-83432860D01*
X166146429Y-83487239D01*
X166146428Y-83487239D01*
X166146425Y-83487240D01*
X166006718Y-83501000D01*
X165463282Y-83501000D01*
X165323575Y-83487240D01*
X165323572Y-83487239D01*
X165323571Y-83487239D01*
X165144307Y-83432860D01*
X165144303Y-83432858D01*
X164979097Y-83344554D01*
X164834288Y-83225712D01*
X164715446Y-83080903D01*
X164627142Y-82915697D01*
X164627142Y-82915696D01*
X164627140Y-82915693D01*
X164572761Y-82736429D01*
X164572761Y-82736428D01*
X164572760Y-82736425D01*
X164554399Y-82550000D01*
X164572760Y-82363575D01*
X164598633Y-82278283D01*
X164627140Y-82184307D01*
X164627142Y-82184303D01*
X164715446Y-82019097D01*
X164834288Y-81874288D01*
X164979097Y-81755446D01*
X165144303Y-81667142D01*
X165144304Y-81667142D01*
X165144307Y-81667140D01*
X165323571Y-81612761D01*
X165323572Y-81612761D01*
X165323575Y-81612760D01*
X165463282Y-81599000D01*
X166006718Y-81599000D01*
X166146425Y-81612760D01*
G37*
G36*
X166146425Y-79072760D02*
G01*
X166146428Y-79072761D01*
X166146429Y-79072761D01*
X166325693Y-79127140D01*
X166325696Y-79127142D01*
X166325697Y-79127142D01*
X166490903Y-79215446D01*
X166635712Y-79334288D01*
X166754554Y-79479097D01*
X166842858Y-79644303D01*
X166842860Y-79644307D01*
X166897239Y-79823571D01*
X166897240Y-79823575D01*
X166915601Y-80010000D01*
X166897240Y-80196425D01*
X166897239Y-80196428D01*
X166897239Y-80196429D01*
X166842860Y-80375693D01*
X166842858Y-80375696D01*
X166842858Y-80375697D01*
X166754554Y-80540903D01*
X166635712Y-80685712D01*
X166490903Y-80804554D01*
X166325697Y-80892858D01*
X166325693Y-80892860D01*
X166146429Y-80947239D01*
X166146428Y-80947239D01*
X166146425Y-80947240D01*
X166006718Y-80961000D01*
X165463282Y-80961000D01*
X165323575Y-80947240D01*
X165323572Y-80947239D01*
X165323571Y-80947239D01*
X165144307Y-80892860D01*
X165144303Y-80892858D01*
X164979097Y-80804554D01*
X164834288Y-80685712D01*
X164715446Y-80540903D01*
X164627142Y-80375697D01*
X164627142Y-80375696D01*
X164627140Y-80375693D01*
X164572761Y-80196429D01*
X164572761Y-80196428D01*
X164572760Y-80196425D01*
X164554399Y-80010000D01*
X164572760Y-79823575D01*
X164572761Y-79823571D01*
X164627140Y-79644307D01*
X164627142Y-79644303D01*
X164715446Y-79479097D01*
X164834288Y-79334288D01*
X164979097Y-79215446D01*
X165144303Y-79127142D01*
X165144304Y-79127142D01*
X165144307Y-79127140D01*
X165323571Y-79072761D01*
X165323572Y-79072761D01*
X165323575Y-79072760D01*
X165463282Y-79059000D01*
X166006718Y-79059000D01*
X166146425Y-79072760D01*
G37*
G36*
X162336425Y-79072760D02*
G01*
X162336428Y-79072761D01*
X162336429Y-79072761D01*
X162515693Y-79127140D01*
X162515696Y-79127142D01*
X162515697Y-79127142D01*
X162680903Y-79215446D01*
X162825712Y-79334288D01*
X162944554Y-79479097D01*
X163032858Y-79644303D01*
X163032860Y-79644307D01*
X163087239Y-79823571D01*
X163087240Y-79823575D01*
X163105601Y-80010000D01*
X163087240Y-80196425D01*
X163087239Y-80196428D01*
X163087239Y-80196429D01*
X163032860Y-80375693D01*
X163032858Y-80375696D01*
X163032858Y-80375697D01*
X162944554Y-80540903D01*
X162825712Y-80685712D01*
X162680903Y-80804554D01*
X162515697Y-80892858D01*
X162515693Y-80892860D01*
X162336429Y-80947239D01*
X162336428Y-80947239D01*
X162336425Y-80947240D01*
X162196718Y-80961000D01*
X161653282Y-80961000D01*
X161513575Y-80947240D01*
X161513572Y-80947239D01*
X161513571Y-80947239D01*
X161334307Y-80892860D01*
X161334303Y-80892858D01*
X161169097Y-80804554D01*
X161024288Y-80685712D01*
X160905446Y-80540903D01*
X160817142Y-80375697D01*
X160817142Y-80375696D01*
X160817140Y-80375693D01*
X160762761Y-80196429D01*
X160762761Y-80196428D01*
X160762760Y-80196425D01*
X160744399Y-80010000D01*
X160762760Y-79823575D01*
X160762761Y-79823571D01*
X160817140Y-79644307D01*
X160817142Y-79644303D01*
X160905446Y-79479097D01*
X161024288Y-79334288D01*
X161169097Y-79215446D01*
X161334303Y-79127142D01*
X161334304Y-79127142D01*
X161334307Y-79127140D01*
X161513571Y-79072761D01*
X161513572Y-79072761D01*
X161513575Y-79072760D01*
X161653282Y-79059000D01*
X162196718Y-79059000D01*
X162336425Y-79072760D01*
G37*
G36*
X170591425Y-79072760D02*
G01*
X170591428Y-79072761D01*
X170591429Y-79072761D01*
X170770693Y-79127140D01*
X170770696Y-79127142D01*
X170770697Y-79127142D01*
X170935903Y-79215446D01*
X171080712Y-79334288D01*
X171199554Y-79479097D01*
X171287858Y-79644303D01*
X171287860Y-79644307D01*
X171342239Y-79823571D01*
X171342240Y-79823575D01*
X171360601Y-80010000D01*
X171342240Y-80196425D01*
X171342239Y-80196428D01*
X171342239Y-80196429D01*
X171287860Y-80375693D01*
X171287858Y-80375696D01*
X171287858Y-80375697D01*
X171199554Y-80540903D01*
X171080712Y-80685712D01*
X170935903Y-80804554D01*
X170770697Y-80892858D01*
X170770693Y-80892860D01*
X170591429Y-80947239D01*
X170591428Y-80947239D01*
X170591425Y-80947240D01*
X170451718Y-80961000D01*
X169908282Y-80961000D01*
X169768575Y-80947240D01*
X169768572Y-80947239D01*
X169768571Y-80947239D01*
X169589307Y-80892860D01*
X169589303Y-80892858D01*
X169424097Y-80804554D01*
X169279288Y-80685712D01*
X169160446Y-80540903D01*
X169072142Y-80375697D01*
X169072142Y-80375696D01*
X169072140Y-80375693D01*
X169017761Y-80196429D01*
X169017761Y-80196428D01*
X169017760Y-80196425D01*
X168999399Y-80010000D01*
X169017760Y-79823575D01*
X169017761Y-79823571D01*
X169072140Y-79644307D01*
X169072142Y-79644303D01*
X169160446Y-79479097D01*
X169279288Y-79334288D01*
X169424097Y-79215446D01*
X169589303Y-79127142D01*
X169589304Y-79127142D01*
X169589307Y-79127140D01*
X169768571Y-79072761D01*
X169768572Y-79072761D01*
X169768575Y-79072760D01*
X169908282Y-79059000D01*
X170451718Y-79059000D01*
X170591425Y-79072760D01*
G37*
G36*
X151090170Y-72572879D02*
G01*
X151384868Y-72631498D01*
X151940067Y-72861469D01*
X152225867Y-73052435D01*
X152439733Y-73195335D01*
X152864665Y-73620267D01*
X152960379Y-73763514D01*
X153198531Y-74119933D01*
X153428502Y-74675132D01*
X153545740Y-75264528D01*
X153545740Y-75865472D01*
X153428502Y-76454868D01*
X153198531Y-77010067D01*
X153015781Y-77283571D01*
X152864665Y-77509733D01*
X152439733Y-77934665D01*
X152340600Y-78000903D01*
X151940067Y-78268531D01*
X151384868Y-78498502D01*
X151090170Y-78557121D01*
X150795473Y-78615740D01*
X150194527Y-78615740D01*
X149899830Y-78557121D01*
X149605132Y-78498502D01*
X149049933Y-78268531D01*
X148649400Y-78000903D01*
X148550267Y-77934665D01*
X148125335Y-77509733D01*
X147974219Y-77283571D01*
X147791469Y-77010067D01*
X147561498Y-76454868D01*
X147444260Y-75865472D01*
X147444260Y-75264528D01*
X147561498Y-74675132D01*
X147791469Y-74119933D01*
X148029621Y-73763514D01*
X148125335Y-73620267D01*
X148550267Y-73195335D01*
X148764133Y-73052435D01*
X149049933Y-72861469D01*
X149605132Y-72631498D01*
X149899830Y-72572879D01*
X150194527Y-72514260D01*
X150795473Y-72514260D01*
X151090170Y-72572879D01*
G37*
G36*
X162336425Y-76532760D02*
G01*
X162336428Y-76532761D01*
X162336429Y-76532761D01*
X162515693Y-76587140D01*
X162515696Y-76587142D01*
X162515697Y-76587142D01*
X162680903Y-76675446D01*
X162825712Y-76794288D01*
X162944554Y-76939097D01*
X162985659Y-77016000D01*
X163032860Y-77104307D01*
X163087239Y-77283571D01*
X163087240Y-77283575D01*
X163105601Y-77470000D01*
X163087240Y-77656425D01*
X163087239Y-77656428D01*
X163087239Y-77656429D01*
X163032860Y-77835693D01*
X163032858Y-77835696D01*
X163032858Y-77835697D01*
X162944554Y-78000903D01*
X162825712Y-78145712D01*
X162680903Y-78264554D01*
X162515697Y-78352858D01*
X162515693Y-78352860D01*
X162336429Y-78407239D01*
X162336428Y-78407239D01*
X162336425Y-78407240D01*
X162196718Y-78421000D01*
X161653282Y-78421000D01*
X161513575Y-78407240D01*
X161513572Y-78407239D01*
X161513571Y-78407239D01*
X161334307Y-78352860D01*
X161334303Y-78352858D01*
X161169097Y-78264554D01*
X161024288Y-78145712D01*
X160905446Y-78000903D01*
X160817142Y-77835697D01*
X160817142Y-77835696D01*
X160817140Y-77835693D01*
X160762761Y-77656429D01*
X160762761Y-77656428D01*
X160762760Y-77656425D01*
X160744399Y-77470000D01*
X160762760Y-77283575D01*
X160762761Y-77283571D01*
X160817140Y-77104307D01*
X160864341Y-77016000D01*
X160905446Y-76939097D01*
X161024288Y-76794288D01*
X161169097Y-76675446D01*
X161334303Y-76587142D01*
X161334304Y-76587142D01*
X161334307Y-76587140D01*
X161513571Y-76532761D01*
X161513572Y-76532761D01*
X161513575Y-76532760D01*
X161653282Y-76519000D01*
X162196718Y-76519000D01*
X162336425Y-76532760D01*
G37*
G36*
X166146425Y-76532760D02*
G01*
X166146428Y-76532761D01*
X166146429Y-76532761D01*
X166325693Y-76587140D01*
X166325696Y-76587142D01*
X166325697Y-76587142D01*
X166490903Y-76675446D01*
X166635712Y-76794288D01*
X166754554Y-76939097D01*
X166795659Y-77016000D01*
X166842860Y-77104307D01*
X166897239Y-77283571D01*
X166897240Y-77283575D01*
X166915601Y-77470000D01*
X166897240Y-77656425D01*
X166897239Y-77656428D01*
X166897239Y-77656429D01*
X166842860Y-77835693D01*
X166842858Y-77835696D01*
X166842858Y-77835697D01*
X166754554Y-78000903D01*
X166635712Y-78145712D01*
X166490903Y-78264554D01*
X166325697Y-78352858D01*
X166325693Y-78352860D01*
X166146429Y-78407239D01*
X166146428Y-78407239D01*
X166146425Y-78407240D01*
X166006718Y-78421000D01*
X165463282Y-78421000D01*
X165323575Y-78407240D01*
X165323572Y-78407239D01*
X165323571Y-78407239D01*
X165144307Y-78352860D01*
X165144303Y-78352858D01*
X164979097Y-78264554D01*
X164834288Y-78145712D01*
X164715446Y-78000903D01*
X164627142Y-77835697D01*
X164627142Y-77835696D01*
X164627140Y-77835693D01*
X164572761Y-77656429D01*
X164572761Y-77656428D01*
X164572760Y-77656425D01*
X164554399Y-77470000D01*
X164572760Y-77283575D01*
X164572761Y-77283571D01*
X164627140Y-77104307D01*
X164674341Y-77016000D01*
X164715446Y-76939097D01*
X164834288Y-76794288D01*
X164979097Y-76675446D01*
X165144303Y-76587142D01*
X165144304Y-76587142D01*
X165144307Y-76587140D01*
X165323571Y-76532761D01*
X165323572Y-76532761D01*
X165323575Y-76532760D01*
X165463282Y-76519000D01*
X166006718Y-76519000D01*
X166146425Y-76532760D01*
G37*
G36*
X182033241Y-74169760D02*
G01*
X182297305Y-74279139D01*
X182534958Y-74437934D01*
X182737066Y-74640042D01*
X182895861Y-74877695D01*
X183005240Y-75141759D01*
X183061000Y-75422088D01*
X183061000Y-75707912D01*
X183005240Y-75988241D01*
X182895861Y-76252305D01*
X182737066Y-76489958D01*
X182534958Y-76692066D01*
X182297305Y-76850861D01*
X182033241Y-76960240D01*
X181752912Y-77016000D01*
X181467088Y-77016000D01*
X181186759Y-76960240D01*
X180922695Y-76850861D01*
X180685042Y-76692066D01*
X180482934Y-76489958D01*
X180324139Y-76252305D01*
X180214760Y-75988241D01*
X180159000Y-75707912D01*
X180159000Y-75422088D01*
X180214760Y-75141759D01*
X180324139Y-74877695D01*
X180482934Y-74640042D01*
X180685042Y-74437934D01*
X180922695Y-74279139D01*
X181186759Y-74169760D01*
X181467088Y-74114000D01*
X181752912Y-74114000D01*
X182033241Y-74169760D01*
G37*
G36*
X157786564Y-72649389D02*
G01*
X157977833Y-72728615D01*
X157977835Y-72728616D01*
X158149973Y-72843635D01*
X158296365Y-72990027D01*
X158411385Y-73162167D01*
X158490611Y-73353436D01*
X158531000Y-73556484D01*
X158531000Y-73763516D01*
X158490611Y-73966564D01*
X158427083Y-74119935D01*
X158411384Y-74157835D01*
X158296365Y-74329973D01*
X158149973Y-74476365D01*
X157977835Y-74591384D01*
X157977834Y-74591385D01*
X157977833Y-74591385D01*
X157786564Y-74670611D01*
X157583516Y-74711000D01*
X157376484Y-74711000D01*
X157173436Y-74670611D01*
X156982167Y-74591385D01*
X156982166Y-74591385D01*
X156982165Y-74591384D01*
X156810027Y-74476365D01*
X156663635Y-74329973D01*
X156548616Y-74157835D01*
X156532917Y-74119935D01*
X156469389Y-73966564D01*
X156429000Y-73763516D01*
X156429000Y-73556484D01*
X156469389Y-73353436D01*
X156548615Y-73162167D01*
X156663635Y-72990027D01*
X156810027Y-72843635D01*
X156982165Y-72728616D01*
X156982167Y-72728615D01*
X157173436Y-72649389D01*
X157376484Y-72609000D01*
X157583516Y-72609000D01*
X157786564Y-72649389D01*
G37*
G36*
X166041564Y-72649389D02*
G01*
X166232833Y-72728615D01*
X166232835Y-72728616D01*
X166404973Y-72843635D01*
X166551365Y-72990027D01*
X166666385Y-73162167D01*
X166745611Y-73353436D01*
X166786000Y-73556484D01*
X166786000Y-73763516D01*
X166745611Y-73966564D01*
X166682083Y-74119935D01*
X166666384Y-74157835D01*
X166551365Y-74329973D01*
X166404973Y-74476365D01*
X166232835Y-74591384D01*
X166232834Y-74591385D01*
X166232833Y-74591385D01*
X166041564Y-74670611D01*
X165838516Y-74711000D01*
X165631484Y-74711000D01*
X165428436Y-74670611D01*
X165237167Y-74591385D01*
X165237166Y-74591385D01*
X165237165Y-74591384D01*
X165065027Y-74476365D01*
X164918635Y-74329973D01*
X164803616Y-74157835D01*
X164787917Y-74119935D01*
X164724389Y-73966564D01*
X164684000Y-73763516D01*
X164684000Y-73556484D01*
X164724389Y-73353436D01*
X164803615Y-73162167D01*
X164918635Y-72990027D01*
X165065027Y-72843635D01*
X165237165Y-72728616D01*
X165237167Y-72728615D01*
X165428436Y-72649389D01*
X165631484Y-72609000D01*
X165838516Y-72609000D01*
X166041564Y-72649389D01*
G37*
G36*
X162231564Y-72649389D02*
G01*
X162422833Y-72728615D01*
X162422835Y-72728616D01*
X162594973Y-72843635D01*
X162741365Y-72990027D01*
X162856385Y-73162167D01*
X162935611Y-73353436D01*
X162976000Y-73556484D01*
X162976000Y-73763516D01*
X162935611Y-73966564D01*
X162872083Y-74119935D01*
X162856384Y-74157835D01*
X162741365Y-74329973D01*
X162594973Y-74476365D01*
X162422835Y-74591384D01*
X162422834Y-74591385D01*
X162422833Y-74591385D01*
X162231564Y-74670611D01*
X162028516Y-74711000D01*
X161821484Y-74711000D01*
X161618436Y-74670611D01*
X161427167Y-74591385D01*
X161427166Y-74591385D01*
X161427165Y-74591384D01*
X161255027Y-74476365D01*
X161108635Y-74329973D01*
X160993616Y-74157835D01*
X160977917Y-74119935D01*
X160914389Y-73966564D01*
X160874000Y-73763516D01*
X160874000Y-73556484D01*
X160914389Y-73353436D01*
X160993615Y-73162167D01*
X161108635Y-72990027D01*
X161255027Y-72843635D01*
X161427165Y-72728616D01*
X161427167Y-72728615D01*
X161618436Y-72649389D01*
X161821484Y-72609000D01*
X162028516Y-72609000D01*
X162231564Y-72649389D01*
G37*
G36*
X170486564Y-72649389D02*
G01*
X170677833Y-72728615D01*
X170677835Y-72728616D01*
X170849973Y-72843635D01*
X170996365Y-72990027D01*
X171111385Y-73162167D01*
X171190611Y-73353436D01*
X171231000Y-73556484D01*
X171231000Y-73763516D01*
X171190611Y-73966564D01*
X171127083Y-74119935D01*
X171111384Y-74157835D01*
X170996365Y-74329973D01*
X170849973Y-74476365D01*
X170677835Y-74591384D01*
X170677834Y-74591385D01*
X170677833Y-74591385D01*
X170486564Y-74670611D01*
X170283516Y-74711000D01*
X170076484Y-74711000D01*
X169873436Y-74670611D01*
X169682167Y-74591385D01*
X169682166Y-74591385D01*
X169682165Y-74591384D01*
X169510027Y-74476365D01*
X169363635Y-74329973D01*
X169248616Y-74157835D01*
X169232917Y-74119935D01*
X169169389Y-73966564D01*
X169129000Y-73763516D01*
X169129000Y-73556484D01*
X169169389Y-73353436D01*
X169248615Y-73162167D01*
X169363635Y-72990027D01*
X169510027Y-72843635D01*
X169682165Y-72728616D01*
X169682167Y-72728615D01*
X169873436Y-72649389D01*
X170076484Y-72609000D01*
X170283516Y-72609000D01*
X170486564Y-72649389D01*
G37*
G36*
X176490170Y-67492879D02*
G01*
X176784868Y-67551498D01*
X177340067Y-67781469D01*
X177625867Y-67972435D01*
X177839733Y-68115335D01*
X178264665Y-68540267D01*
X178407565Y-68754133D01*
X178598531Y-69039933D01*
X178828502Y-69595132D01*
X178945740Y-70184528D01*
X178945740Y-70785472D01*
X178828502Y-71374868D01*
X178598531Y-71930067D01*
X178407565Y-72215867D01*
X178264665Y-72429733D01*
X177839733Y-72854665D01*
X177625867Y-72997565D01*
X177340067Y-73188531D01*
X176784868Y-73418502D01*
X176490170Y-73477121D01*
X176195473Y-73535740D01*
X175594527Y-73535740D01*
X175299830Y-73477121D01*
X175005132Y-73418502D01*
X174449933Y-73188531D01*
X174164133Y-72997565D01*
X173950267Y-72854665D01*
X173525335Y-72429733D01*
X173382435Y-72215867D01*
X173191469Y-71930067D01*
X172961498Y-71374868D01*
X172844260Y-70785472D01*
X172844260Y-70184528D01*
X172961498Y-69595132D01*
X173191469Y-69039933D01*
X173382435Y-68754133D01*
X173525335Y-68540267D01*
X173950267Y-68115335D01*
X174164133Y-67972435D01*
X174449933Y-67781469D01*
X175005132Y-67551498D01*
X175299830Y-67492879D01*
X175594527Y-67434260D01*
X176195473Y-67434260D01*
X176490170Y-67492879D01*
G37*
G36*
X151981000Y-70701000D02*
G01*
X150279000Y-70701000D01*
X150279000Y-68999000D01*
X151981000Y-68999000D01*
X151981000Y-70701000D01*
G37*
G36*
X151378228Y-66531703D02*
G01*
X151533100Y-66595853D01*
X151672481Y-66688985D01*
X151791015Y-66807519D01*
X151884147Y-66946900D01*
X151948297Y-67101772D01*
X151981000Y-67266184D01*
X151981000Y-67433816D01*
X151948297Y-67598228D01*
X151884147Y-67753100D01*
X151791015Y-67892481D01*
X151672481Y-68011015D01*
X151533100Y-68104147D01*
X151378228Y-68168297D01*
X151213816Y-68201000D01*
X151046184Y-68201000D01*
X150881772Y-68168297D01*
X150726900Y-68104147D01*
X150587519Y-68011015D01*
X150468985Y-67892481D01*
X150375853Y-67753100D01*
X150311703Y-67598228D01*
X150279000Y-67433816D01*
X150279000Y-67266184D01*
X150311703Y-67101772D01*
X150375853Y-66946900D01*
X150468985Y-66807519D01*
X150587519Y-66688985D01*
X150726900Y-66595853D01*
X150881772Y-66531703D01*
X151046184Y-66499000D01*
X151213816Y-66499000D01*
X151378228Y-66531703D01*
G37*
G36*
X170486564Y-65029389D02*
G01*
X170677833Y-65108615D01*
X170677835Y-65108616D01*
X170849973Y-65223635D01*
X170996365Y-65370027D01*
X171111385Y-65542167D01*
X171190611Y-65733436D01*
X171231000Y-65936484D01*
X171231000Y-66143516D01*
X171190611Y-66346564D01*
X171127470Y-66499000D01*
X171111384Y-66537835D01*
X170996365Y-66709973D01*
X170849973Y-66856365D01*
X170677835Y-66971384D01*
X170677834Y-66971385D01*
X170677833Y-66971385D01*
X170486564Y-67050611D01*
X170283516Y-67091000D01*
X170076484Y-67091000D01*
X169873436Y-67050611D01*
X169682167Y-66971385D01*
X169682166Y-66971385D01*
X169682165Y-66971384D01*
X169510027Y-66856365D01*
X169363635Y-66709973D01*
X169248616Y-66537835D01*
X169232530Y-66499000D01*
X169169389Y-66346564D01*
X169129000Y-66143516D01*
X169129000Y-65936484D01*
X169169389Y-65733436D01*
X169248615Y-65542167D01*
X169363635Y-65370027D01*
X169510027Y-65223635D01*
X169682165Y-65108616D01*
X169682167Y-65108615D01*
X169873436Y-65029389D01*
X170076484Y-64989000D01*
X170283516Y-64989000D01*
X170486564Y-65029389D01*
G37*
G36*
X166041564Y-65029389D02*
G01*
X166232833Y-65108615D01*
X166232835Y-65108616D01*
X166404973Y-65223635D01*
X166551365Y-65370027D01*
X166666385Y-65542167D01*
X166745611Y-65733436D01*
X166786000Y-65936484D01*
X166786000Y-66143516D01*
X166745611Y-66346564D01*
X166682470Y-66499000D01*
X166666384Y-66537835D01*
X166551365Y-66709973D01*
X166404973Y-66856365D01*
X166232835Y-66971384D01*
X166232834Y-66971385D01*
X166232833Y-66971385D01*
X166041564Y-67050611D01*
X165838516Y-67091000D01*
X165631484Y-67091000D01*
X165428436Y-67050611D01*
X165237167Y-66971385D01*
X165237166Y-66971385D01*
X165237165Y-66971384D01*
X165065027Y-66856365D01*
X164918635Y-66709973D01*
X164803616Y-66537835D01*
X164787530Y-66499000D01*
X164724389Y-66346564D01*
X164684000Y-66143516D01*
X164684000Y-65936484D01*
X164724389Y-65733436D01*
X164803615Y-65542167D01*
X164918635Y-65370027D01*
X165065027Y-65223635D01*
X165237165Y-65108616D01*
X165237167Y-65108615D01*
X165428436Y-65029389D01*
X165631484Y-64989000D01*
X165838516Y-64989000D01*
X166041564Y-65029389D01*
G37*
G36*
X162231564Y-65029389D02*
G01*
X162422833Y-65108615D01*
X162422835Y-65108616D01*
X162594973Y-65223635D01*
X162741365Y-65370027D01*
X162856385Y-65542167D01*
X162935611Y-65733436D01*
X162976000Y-65936484D01*
X162976000Y-66143516D01*
X162935611Y-66346564D01*
X162872470Y-66499000D01*
X162856384Y-66537835D01*
X162741365Y-66709973D01*
X162594973Y-66856365D01*
X162422835Y-66971384D01*
X162422834Y-66971385D01*
X162422833Y-66971385D01*
X162231564Y-67050611D01*
X162028516Y-67091000D01*
X161821484Y-67091000D01*
X161618436Y-67050611D01*
X161427167Y-66971385D01*
X161427166Y-66971385D01*
X161427165Y-66971384D01*
X161255027Y-66856365D01*
X161108635Y-66709973D01*
X160993616Y-66537835D01*
X160977530Y-66499000D01*
X160914389Y-66346564D01*
X160874000Y-66143516D01*
X160874000Y-65936484D01*
X160914389Y-65733436D01*
X160993615Y-65542167D01*
X161108635Y-65370027D01*
X161255027Y-65223635D01*
X161427165Y-65108616D01*
X161427167Y-65108615D01*
X161618436Y-65029389D01*
X161821484Y-64989000D01*
X162028516Y-64989000D01*
X162231564Y-65029389D01*
G37*
G36*
X157786564Y-65029389D02*
G01*
X157977833Y-65108615D01*
X157977835Y-65108616D01*
X158149973Y-65223635D01*
X158296365Y-65370027D01*
X158411385Y-65542167D01*
X158490611Y-65733436D01*
X158531000Y-65936484D01*
X158531000Y-66143516D01*
X158490611Y-66346564D01*
X158427470Y-66499000D01*
X158411384Y-66537835D01*
X158296365Y-66709973D01*
X158149973Y-66856365D01*
X157977835Y-66971384D01*
X157977834Y-66971385D01*
X157977833Y-66971385D01*
X157786564Y-67050611D01*
X157583516Y-67091000D01*
X157376484Y-67091000D01*
X157173436Y-67050611D01*
X156982167Y-66971385D01*
X156982166Y-66971385D01*
X156982165Y-66971384D01*
X156810027Y-66856365D01*
X156663635Y-66709973D01*
X156548616Y-66537835D01*
X156532530Y-66499000D01*
X156469389Y-66346564D01*
X156429000Y-66143516D01*
X156429000Y-65936484D01*
X156469389Y-65733436D01*
X156548615Y-65542167D01*
X156663635Y-65370027D01*
X156810027Y-65223635D01*
X156982165Y-65108616D01*
X156982167Y-65108615D01*
X157173436Y-65029389D01*
X157376484Y-64989000D01*
X157583516Y-64989000D01*
X157786564Y-65029389D01*
G37*
M02*
